%FSLAX45Y45*%
G04 Gerber Fmt 4.5, Leading zero omitted, Abs format (unit mm)*
G04 Created by KiCad (PCBNEW (5.1.7)-1) date 2020-11-18 10:27:59*
%MOMM*%
%LPD*%
G01*
G04 APERTURE LIST*
%TA.AperFunction,Profile*%
%ADD10C,0.050000*%
%TD*%
%ADD11C,0.200000*%
%ADD12C,0.300000*%
G04 APERTURE END LIST*
D10*
X3327400Y-3992200D02*
X3327400Y-4017600D01*
X19583400Y-3992200D02*
X3327400Y-3992200D01*
X19608800Y-14634800D02*
X19583400Y-3992200D01*
X3327400Y-14634800D02*
X19608800Y-14634800D01*
X3327400Y-4017600D02*
X3327400Y-14634800D01*
D11*
X16348800Y-13457600D02*
X16518800Y-13627600D01*
X16518800Y-13457600D02*
X16348800Y-13627600D01*
X16348800Y-14157600D02*
X16518800Y-14327600D01*
X16518800Y-14157600D02*
X16348800Y-14327600D01*
X3909200Y-4957400D02*
G75*
G03*
X3909200Y-4957400I-150000J0D01*
G01*
X3909200Y-14177600D02*
G75*
G03*
X3909200Y-14177600I-150000J0D01*
G01*
X18666600Y-4957400D02*
G75*
G03*
X18666600Y-4957400I-150000J0D01*
G01*
X12646800Y-4957400D02*
G75*
G03*
X12646800Y-4957400I-150000J0D01*
G01*
X17472800Y-14177600D02*
G75*
G03*
X17472800Y-14177600I-150000J0D01*
G01*
X12646800Y-14177600D02*
G75*
G03*
X12646800Y-14177600I-150000J0D01*
G01*
D12*
X3611328Y-15103014D02*
X3611328Y-14803014D01*
X3682757Y-14803014D01*
X3725614Y-14817300D01*
X3754186Y-14845871D01*
X3768471Y-14874443D01*
X3782757Y-14931586D01*
X3782757Y-14974443D01*
X3768471Y-15031586D01*
X3754186Y-15060157D01*
X3725614Y-15088729D01*
X3682757Y-15103014D01*
X3611328Y-15103014D01*
X3911328Y-15103014D02*
X3911328Y-14903014D01*
X3911328Y-14960157D02*
X3925614Y-14931586D01*
X3939900Y-14917300D01*
X3968471Y-14903014D01*
X3997043Y-14903014D01*
X4097043Y-15103014D02*
X4097043Y-14903014D01*
X4097043Y-14803014D02*
X4082757Y-14817300D01*
X4097043Y-14831586D01*
X4111328Y-14817300D01*
X4097043Y-14803014D01*
X4097043Y-14831586D01*
X4282757Y-15103014D02*
X4254186Y-15088729D01*
X4239900Y-15060157D01*
X4239900Y-14803014D01*
X4439900Y-15103014D02*
X4411328Y-15088729D01*
X4397043Y-15060157D01*
X4397043Y-14803014D01*
X4782757Y-15103014D02*
X4782757Y-14803014D01*
X4882757Y-15017300D01*
X4982757Y-14803014D01*
X4982757Y-15103014D01*
X5254186Y-15103014D02*
X5254186Y-14945871D01*
X5239900Y-14917300D01*
X5211328Y-14903014D01*
X5154186Y-14903014D01*
X5125614Y-14917300D01*
X5254186Y-15088729D02*
X5225614Y-15103014D01*
X5154186Y-15103014D01*
X5125614Y-15088729D01*
X5111328Y-15060157D01*
X5111328Y-15031586D01*
X5125614Y-15003014D01*
X5154186Y-14988729D01*
X5225614Y-14988729D01*
X5254186Y-14974443D01*
X5397043Y-14903014D02*
X5397043Y-15203014D01*
X5397043Y-14917300D02*
X5425614Y-14903014D01*
X5482757Y-14903014D01*
X5511328Y-14917300D01*
X5525614Y-14931586D01*
X5539900Y-14960157D01*
X5539900Y-15045871D01*
X5525614Y-15074443D01*
X5511328Y-15088729D01*
X5482757Y-15103014D01*
X5425614Y-15103014D01*
X5397043Y-15088729D01*
X5668471Y-15074443D02*
X5682757Y-15088729D01*
X5668471Y-15103014D01*
X5654186Y-15088729D01*
X5668471Y-15074443D01*
X5668471Y-15103014D01*
X5668471Y-14917300D02*
X5682757Y-14931586D01*
X5668471Y-14945871D01*
X5654186Y-14931586D01*
X5668471Y-14917300D01*
X5668471Y-14945871D01*
X3154900Y-15512300D02*
X3324900Y-15682300D01*
X3324900Y-15512300D02*
X3154900Y-15682300D01*
X3768471Y-15733014D02*
X3597043Y-15733014D01*
X3682757Y-15733014D02*
X3682757Y-15433014D01*
X3654186Y-15475871D01*
X3625614Y-15504443D01*
X3597043Y-15518729D01*
X3897043Y-15704443D02*
X3911328Y-15718729D01*
X3897043Y-15733014D01*
X3882757Y-15718729D01*
X3897043Y-15704443D01*
X3897043Y-15733014D01*
X4011328Y-15433014D02*
X4211328Y-15433014D01*
X4082757Y-15733014D01*
X4382757Y-15433014D02*
X4411328Y-15433014D01*
X4439900Y-15447300D01*
X4454186Y-15461586D01*
X4468471Y-15490157D01*
X4482757Y-15547300D01*
X4482757Y-15618729D01*
X4468471Y-15675871D01*
X4454186Y-15704443D01*
X4439900Y-15718729D01*
X4411328Y-15733014D01*
X4382757Y-15733014D01*
X4354186Y-15718729D01*
X4339900Y-15704443D01*
X4325614Y-15675871D01*
X4311328Y-15618729D01*
X4311328Y-15547300D01*
X4325614Y-15490157D01*
X4339900Y-15461586D01*
X4354186Y-15447300D01*
X4382757Y-15433014D01*
X4611328Y-15733014D02*
X4611328Y-15533014D01*
X4611328Y-15561586D02*
X4625614Y-15547300D01*
X4654186Y-15533014D01*
X4697043Y-15533014D01*
X4725614Y-15547300D01*
X4739900Y-15575871D01*
X4739900Y-15733014D01*
X4739900Y-15575871D02*
X4754186Y-15547300D01*
X4782757Y-15533014D01*
X4825614Y-15533014D01*
X4854186Y-15547300D01*
X4868471Y-15575871D01*
X4868471Y-15733014D01*
X5011328Y-15733014D02*
X5011328Y-15533014D01*
X5011328Y-15561586D02*
X5025614Y-15547300D01*
X5054186Y-15533014D01*
X5097043Y-15533014D01*
X5125614Y-15547300D01*
X5139900Y-15575871D01*
X5139900Y-15733014D01*
X5139900Y-15575871D02*
X5154186Y-15547300D01*
X5182757Y-15533014D01*
X5225614Y-15533014D01*
X5254186Y-15547300D01*
X5268471Y-15575871D01*
X5268471Y-15733014D01*
X5854186Y-15418729D02*
X5597043Y-15804443D01*
X6239900Y-15433014D02*
X6268471Y-15433014D01*
X6297043Y-15447300D01*
X6311328Y-15461586D01*
X6325614Y-15490157D01*
X6339900Y-15547300D01*
X6339900Y-15618729D01*
X6325614Y-15675871D01*
X6311328Y-15704443D01*
X6297043Y-15718729D01*
X6268471Y-15733014D01*
X6239900Y-15733014D01*
X6211328Y-15718729D01*
X6197043Y-15704443D01*
X6182757Y-15675871D01*
X6168471Y-15618729D01*
X6168471Y-15547300D01*
X6182757Y-15490157D01*
X6197043Y-15461586D01*
X6211328Y-15447300D01*
X6239900Y-15433014D01*
X6468471Y-15704443D02*
X6482757Y-15718729D01*
X6468471Y-15733014D01*
X6454186Y-15718729D01*
X6468471Y-15704443D01*
X6468471Y-15733014D01*
X6668471Y-15433014D02*
X6697043Y-15433014D01*
X6725614Y-15447300D01*
X6739900Y-15461586D01*
X6754186Y-15490157D01*
X6768471Y-15547300D01*
X6768471Y-15618729D01*
X6754186Y-15675871D01*
X6739900Y-15704443D01*
X6725614Y-15718729D01*
X6697043Y-15733014D01*
X6668471Y-15733014D01*
X6639900Y-15718729D01*
X6625614Y-15704443D01*
X6611328Y-15675871D01*
X6597043Y-15618729D01*
X6597043Y-15547300D01*
X6611328Y-15490157D01*
X6625614Y-15461586D01*
X6639900Y-15447300D01*
X6668471Y-15433014D01*
X7025614Y-15433014D02*
X6968471Y-15433014D01*
X6939900Y-15447300D01*
X6925614Y-15461586D01*
X6897043Y-15504443D01*
X6882757Y-15561586D01*
X6882757Y-15675871D01*
X6897043Y-15704443D01*
X6911328Y-15718729D01*
X6939900Y-15733014D01*
X6997043Y-15733014D01*
X7025614Y-15718729D01*
X7039900Y-15704443D01*
X7054186Y-15675871D01*
X7054186Y-15604443D01*
X7039900Y-15575871D01*
X7025614Y-15561586D01*
X6997043Y-15547300D01*
X6939900Y-15547300D01*
X6911328Y-15561586D01*
X6897043Y-15575871D01*
X6882757Y-15604443D01*
X7154186Y-15433014D02*
X7354186Y-15433014D01*
X7225614Y-15733014D01*
X7454186Y-15433014D02*
X7454186Y-15490157D01*
X7568471Y-15433014D02*
X7568471Y-15490157D01*
X8011328Y-15847300D02*
X7997043Y-15833014D01*
X7968471Y-15790157D01*
X7954186Y-15761586D01*
X7939900Y-15718729D01*
X7925614Y-15647300D01*
X7925614Y-15590157D01*
X7939900Y-15518729D01*
X7954186Y-15475871D01*
X7968471Y-15447300D01*
X7997043Y-15404443D01*
X8011328Y-15390157D01*
X8111328Y-15461586D02*
X8125614Y-15447300D01*
X8154186Y-15433014D01*
X8225614Y-15433014D01*
X8254186Y-15447300D01*
X8268471Y-15461586D01*
X8282757Y-15490157D01*
X8282757Y-15518729D01*
X8268471Y-15561586D01*
X8097043Y-15733014D01*
X8282757Y-15733014D01*
X8639900Y-15733014D02*
X8639900Y-15433014D01*
X8768471Y-15733014D02*
X8768471Y-15575871D01*
X8754186Y-15547300D01*
X8725614Y-15533014D01*
X8682757Y-15533014D01*
X8654186Y-15547300D01*
X8639900Y-15561586D01*
X8954186Y-15733014D02*
X8925614Y-15718729D01*
X8911328Y-15704443D01*
X8897043Y-15675871D01*
X8897043Y-15590157D01*
X8911328Y-15561586D01*
X8925614Y-15547300D01*
X8954186Y-15533014D01*
X8997043Y-15533014D01*
X9025614Y-15547300D01*
X9039900Y-15561586D01*
X9054186Y-15590157D01*
X9054186Y-15675871D01*
X9039900Y-15704443D01*
X9025614Y-15718729D01*
X8997043Y-15733014D01*
X8954186Y-15733014D01*
X9225614Y-15733014D02*
X9197043Y-15718729D01*
X9182757Y-15690157D01*
X9182757Y-15433014D01*
X9454186Y-15718729D02*
X9425614Y-15733014D01*
X9368471Y-15733014D01*
X9339900Y-15718729D01*
X9325614Y-15690157D01*
X9325614Y-15575871D01*
X9339900Y-15547300D01*
X9368471Y-15533014D01*
X9425614Y-15533014D01*
X9454186Y-15547300D01*
X9468471Y-15575871D01*
X9468471Y-15604443D01*
X9325614Y-15633014D01*
X9582757Y-15718729D02*
X9611328Y-15733014D01*
X9668471Y-15733014D01*
X9697043Y-15718729D01*
X9711328Y-15690157D01*
X9711328Y-15675871D01*
X9697043Y-15647300D01*
X9668471Y-15633014D01*
X9625614Y-15633014D01*
X9597043Y-15618729D01*
X9582757Y-15590157D01*
X9582757Y-15575871D01*
X9597043Y-15547300D01*
X9625614Y-15533014D01*
X9668471Y-15533014D01*
X9697043Y-15547300D01*
X9811328Y-15847300D02*
X9825614Y-15833014D01*
X9854186Y-15790157D01*
X9868471Y-15761586D01*
X9882757Y-15718729D01*
X9897043Y-15647300D01*
X9897043Y-15590157D01*
X9882757Y-15518729D01*
X9868471Y-15475871D01*
X9854186Y-15447300D01*
X9825614Y-15404443D01*
X9811328Y-15390157D01*
X10354186Y-15847300D02*
X10339900Y-15833014D01*
X10311328Y-15790157D01*
X10297043Y-15761586D01*
X10282757Y-15718729D01*
X10268471Y-15647300D01*
X10268471Y-15590157D01*
X10282757Y-15518729D01*
X10297043Y-15475871D01*
X10311328Y-15447300D01*
X10339900Y-15404443D01*
X10354186Y-15390157D01*
X10468471Y-15533014D02*
X10468471Y-15733014D01*
X10468471Y-15561586D02*
X10482757Y-15547300D01*
X10511328Y-15533014D01*
X10554186Y-15533014D01*
X10582757Y-15547300D01*
X10597043Y-15575871D01*
X10597043Y-15733014D01*
X10782757Y-15733014D02*
X10754186Y-15718729D01*
X10739900Y-15704443D01*
X10725614Y-15675871D01*
X10725614Y-15590157D01*
X10739900Y-15561586D01*
X10754186Y-15547300D01*
X10782757Y-15533014D01*
X10825614Y-15533014D01*
X10854186Y-15547300D01*
X10868471Y-15561586D01*
X10882757Y-15590157D01*
X10882757Y-15675871D01*
X10868471Y-15704443D01*
X10854186Y-15718729D01*
X10825614Y-15733014D01*
X10782757Y-15733014D01*
X10968471Y-15533014D02*
X11082757Y-15533014D01*
X11011328Y-15433014D02*
X11011328Y-15690157D01*
X11025614Y-15718729D01*
X11054186Y-15733014D01*
X11082757Y-15733014D01*
X11411328Y-15533014D02*
X11411328Y-15833014D01*
X11411328Y-15547300D02*
X11439900Y-15533014D01*
X11497043Y-15533014D01*
X11525614Y-15547300D01*
X11539900Y-15561586D01*
X11554186Y-15590157D01*
X11554186Y-15675871D01*
X11539900Y-15704443D01*
X11525614Y-15718729D01*
X11497043Y-15733014D01*
X11439900Y-15733014D01*
X11411328Y-15718729D01*
X11725614Y-15733014D02*
X11697043Y-15718729D01*
X11682757Y-15690157D01*
X11682757Y-15433014D01*
X11968471Y-15733014D02*
X11968471Y-15575871D01*
X11954186Y-15547300D01*
X11925614Y-15533014D01*
X11868471Y-15533014D01*
X11839900Y-15547300D01*
X11968471Y-15718729D02*
X11939900Y-15733014D01*
X11868471Y-15733014D01*
X11839900Y-15718729D01*
X11825614Y-15690157D01*
X11825614Y-15661586D01*
X11839900Y-15633014D01*
X11868471Y-15618729D01*
X11939900Y-15618729D01*
X11968471Y-15604443D01*
X12068471Y-15533014D02*
X12182757Y-15533014D01*
X12111328Y-15433014D02*
X12111328Y-15690157D01*
X12125614Y-15718729D01*
X12154186Y-15733014D01*
X12182757Y-15733014D01*
X12397043Y-15718729D02*
X12368471Y-15733014D01*
X12311328Y-15733014D01*
X12282757Y-15718729D01*
X12268471Y-15690157D01*
X12268471Y-15575871D01*
X12282757Y-15547300D01*
X12311328Y-15533014D01*
X12368471Y-15533014D01*
X12397043Y-15547300D01*
X12411328Y-15575871D01*
X12411328Y-15604443D01*
X12268471Y-15633014D01*
X12668471Y-15733014D02*
X12668471Y-15433014D01*
X12668471Y-15718729D02*
X12639900Y-15733014D01*
X12582757Y-15733014D01*
X12554186Y-15718729D01*
X12539900Y-15704443D01*
X12525614Y-15675871D01*
X12525614Y-15590157D01*
X12539900Y-15561586D01*
X12554186Y-15547300D01*
X12582757Y-15533014D01*
X12639900Y-15533014D01*
X12668471Y-15547300D01*
X12782757Y-15847300D02*
X12797043Y-15833014D01*
X12825614Y-15790157D01*
X12839900Y-15761586D01*
X12854186Y-15718729D01*
X12868471Y-15647300D01*
X12868471Y-15590157D01*
X12854186Y-15518729D01*
X12839900Y-15475871D01*
X12825614Y-15447300D01*
X12797043Y-15404443D01*
X12782757Y-15390157D01*
X3324900Y-15993300D02*
G75*
G03*
X3324900Y-15993300I-150000J0D01*
G01*
X3582757Y-15829014D02*
X3768471Y-15829014D01*
X3668471Y-15943300D01*
X3711328Y-15943300D01*
X3739900Y-15957586D01*
X3754186Y-15971871D01*
X3768471Y-16000443D01*
X3768471Y-16071871D01*
X3754186Y-16100443D01*
X3739900Y-16114729D01*
X3711328Y-16129014D01*
X3625614Y-16129014D01*
X3597043Y-16114729D01*
X3582757Y-16100443D01*
X3897043Y-16100443D02*
X3911328Y-16114729D01*
X3897043Y-16129014D01*
X3882757Y-16114729D01*
X3897043Y-16100443D01*
X3897043Y-16129014D01*
X4097043Y-15829014D02*
X4125614Y-15829014D01*
X4154186Y-15843300D01*
X4168471Y-15857586D01*
X4182757Y-15886157D01*
X4197043Y-15943300D01*
X4197043Y-16014729D01*
X4182757Y-16071871D01*
X4168471Y-16100443D01*
X4154186Y-16114729D01*
X4125614Y-16129014D01*
X4097043Y-16129014D01*
X4068471Y-16114729D01*
X4054186Y-16100443D01*
X4039900Y-16071871D01*
X4025614Y-16014729D01*
X4025614Y-15943300D01*
X4039900Y-15886157D01*
X4054186Y-15857586D01*
X4068471Y-15843300D01*
X4097043Y-15829014D01*
X4382757Y-15829014D02*
X4411328Y-15829014D01*
X4439900Y-15843300D01*
X4454186Y-15857586D01*
X4468471Y-15886157D01*
X4482757Y-15943300D01*
X4482757Y-16014729D01*
X4468471Y-16071871D01*
X4454186Y-16100443D01*
X4439900Y-16114729D01*
X4411328Y-16129014D01*
X4382757Y-16129014D01*
X4354186Y-16114729D01*
X4339900Y-16100443D01*
X4325614Y-16071871D01*
X4311328Y-16014729D01*
X4311328Y-15943300D01*
X4325614Y-15886157D01*
X4339900Y-15857586D01*
X4354186Y-15843300D01*
X4382757Y-15829014D01*
X4611328Y-16129014D02*
X4611328Y-15929014D01*
X4611328Y-15957586D02*
X4625614Y-15943300D01*
X4654186Y-15929014D01*
X4697043Y-15929014D01*
X4725614Y-15943300D01*
X4739900Y-15971871D01*
X4739900Y-16129014D01*
X4739900Y-15971871D02*
X4754186Y-15943300D01*
X4782757Y-15929014D01*
X4825614Y-15929014D01*
X4854186Y-15943300D01*
X4868471Y-15971871D01*
X4868471Y-16129014D01*
X5011328Y-16129014D02*
X5011328Y-15929014D01*
X5011328Y-15957586D02*
X5025614Y-15943300D01*
X5054186Y-15929014D01*
X5097043Y-15929014D01*
X5125614Y-15943300D01*
X5139900Y-15971871D01*
X5139900Y-16129014D01*
X5139900Y-15971871D02*
X5154186Y-15943300D01*
X5182757Y-15929014D01*
X5225614Y-15929014D01*
X5254186Y-15943300D01*
X5268471Y-15971871D01*
X5268471Y-16129014D01*
X5854186Y-15814729D02*
X5597043Y-16200443D01*
X6239900Y-15829014D02*
X6268471Y-15829014D01*
X6297043Y-15843300D01*
X6311328Y-15857586D01*
X6325614Y-15886157D01*
X6339900Y-15943300D01*
X6339900Y-16014729D01*
X6325614Y-16071871D01*
X6311328Y-16100443D01*
X6297043Y-16114729D01*
X6268471Y-16129014D01*
X6239900Y-16129014D01*
X6211328Y-16114729D01*
X6197043Y-16100443D01*
X6182757Y-16071871D01*
X6168471Y-16014729D01*
X6168471Y-15943300D01*
X6182757Y-15886157D01*
X6197043Y-15857586D01*
X6211328Y-15843300D01*
X6239900Y-15829014D01*
X6468471Y-16100443D02*
X6482757Y-16114729D01*
X6468471Y-16129014D01*
X6454186Y-16114729D01*
X6468471Y-16100443D01*
X6468471Y-16129014D01*
X6768471Y-16129014D02*
X6597043Y-16129014D01*
X6682757Y-16129014D02*
X6682757Y-15829014D01*
X6654186Y-15871871D01*
X6625614Y-15900443D01*
X6597043Y-15914729D01*
X7054186Y-16129014D02*
X6882757Y-16129014D01*
X6968471Y-16129014D02*
X6968471Y-15829014D01*
X6939900Y-15871871D01*
X6911328Y-15900443D01*
X6882757Y-15914729D01*
X7225614Y-15957586D02*
X7197043Y-15943300D01*
X7182757Y-15929014D01*
X7168471Y-15900443D01*
X7168471Y-15886157D01*
X7182757Y-15857586D01*
X7197043Y-15843300D01*
X7225614Y-15829014D01*
X7282757Y-15829014D01*
X7311328Y-15843300D01*
X7325614Y-15857586D01*
X7339900Y-15886157D01*
X7339900Y-15900443D01*
X7325614Y-15929014D01*
X7311328Y-15943300D01*
X7282757Y-15957586D01*
X7225614Y-15957586D01*
X7197043Y-15971871D01*
X7182757Y-15986157D01*
X7168471Y-16014729D01*
X7168471Y-16071871D01*
X7182757Y-16100443D01*
X7197043Y-16114729D01*
X7225614Y-16129014D01*
X7282757Y-16129014D01*
X7311328Y-16114729D01*
X7325614Y-16100443D01*
X7339900Y-16071871D01*
X7339900Y-16014729D01*
X7325614Y-15986157D01*
X7311328Y-15971871D01*
X7282757Y-15957586D01*
X7454186Y-15829014D02*
X7454186Y-15886157D01*
X7568471Y-15829014D02*
X7568471Y-15886157D01*
X8011328Y-16243300D02*
X7997043Y-16229014D01*
X7968471Y-16186157D01*
X7954186Y-16157586D01*
X7939900Y-16114729D01*
X7925614Y-16043300D01*
X7925614Y-15986157D01*
X7939900Y-15914729D01*
X7954186Y-15871871D01*
X7968471Y-15843300D01*
X7997043Y-15800443D01*
X8011328Y-15786157D01*
X8254186Y-15829014D02*
X8197043Y-15829014D01*
X8168471Y-15843300D01*
X8154186Y-15857586D01*
X8125614Y-15900443D01*
X8111328Y-15957586D01*
X8111328Y-16071871D01*
X8125614Y-16100443D01*
X8139900Y-16114729D01*
X8168471Y-16129014D01*
X8225614Y-16129014D01*
X8254186Y-16114729D01*
X8268471Y-16100443D01*
X8282757Y-16071871D01*
X8282757Y-16000443D01*
X8268471Y-15971871D01*
X8254186Y-15957586D01*
X8225614Y-15943300D01*
X8168471Y-15943300D01*
X8139900Y-15957586D01*
X8125614Y-15971871D01*
X8111328Y-16000443D01*
X8639900Y-16129014D02*
X8639900Y-15829014D01*
X8768471Y-16129014D02*
X8768471Y-15971871D01*
X8754186Y-15943300D01*
X8725614Y-15929014D01*
X8682757Y-15929014D01*
X8654186Y-15943300D01*
X8639900Y-15957586D01*
X8954186Y-16129014D02*
X8925614Y-16114729D01*
X8911328Y-16100443D01*
X8897043Y-16071871D01*
X8897043Y-15986157D01*
X8911328Y-15957586D01*
X8925614Y-15943300D01*
X8954186Y-15929014D01*
X8997043Y-15929014D01*
X9025614Y-15943300D01*
X9039900Y-15957586D01*
X9054186Y-15986157D01*
X9054186Y-16071871D01*
X9039900Y-16100443D01*
X9025614Y-16114729D01*
X8997043Y-16129014D01*
X8954186Y-16129014D01*
X9225614Y-16129014D02*
X9197043Y-16114729D01*
X9182757Y-16086157D01*
X9182757Y-15829014D01*
X9454186Y-16114729D02*
X9425614Y-16129014D01*
X9368471Y-16129014D01*
X9339900Y-16114729D01*
X9325614Y-16086157D01*
X9325614Y-15971871D01*
X9339900Y-15943300D01*
X9368471Y-15929014D01*
X9425614Y-15929014D01*
X9454186Y-15943300D01*
X9468471Y-15971871D01*
X9468471Y-16000443D01*
X9325614Y-16029014D01*
X9582757Y-16114729D02*
X9611328Y-16129014D01*
X9668471Y-16129014D01*
X9697043Y-16114729D01*
X9711328Y-16086157D01*
X9711328Y-16071871D01*
X9697043Y-16043300D01*
X9668471Y-16029014D01*
X9625614Y-16029014D01*
X9597043Y-16014729D01*
X9582757Y-15986157D01*
X9582757Y-15971871D01*
X9597043Y-15943300D01*
X9625614Y-15929014D01*
X9668471Y-15929014D01*
X9697043Y-15943300D01*
X9811328Y-16243300D02*
X9825614Y-16229014D01*
X9854186Y-16186157D01*
X9868471Y-16157586D01*
X9882757Y-16114729D01*
X9897043Y-16043300D01*
X9897043Y-15986157D01*
X9882757Y-15914729D01*
X9868471Y-15871871D01*
X9854186Y-15843300D01*
X9825614Y-15800443D01*
X9811328Y-15786157D01*
X10354186Y-16243300D02*
X10339900Y-16229014D01*
X10311328Y-16186157D01*
X10297043Y-16157586D01*
X10282757Y-16114729D01*
X10268471Y-16043300D01*
X10268471Y-15986157D01*
X10282757Y-15914729D01*
X10297043Y-15871871D01*
X10311328Y-15843300D01*
X10339900Y-15800443D01*
X10354186Y-15786157D01*
X10468471Y-15929014D02*
X10468471Y-16129014D01*
X10468471Y-15957586D02*
X10482757Y-15943300D01*
X10511328Y-15929014D01*
X10554186Y-15929014D01*
X10582757Y-15943300D01*
X10597043Y-15971871D01*
X10597043Y-16129014D01*
X10782757Y-16129014D02*
X10754186Y-16114729D01*
X10739900Y-16100443D01*
X10725614Y-16071871D01*
X10725614Y-15986157D01*
X10739900Y-15957586D01*
X10754186Y-15943300D01*
X10782757Y-15929014D01*
X10825614Y-15929014D01*
X10854186Y-15943300D01*
X10868471Y-15957586D01*
X10882757Y-15986157D01*
X10882757Y-16071871D01*
X10868471Y-16100443D01*
X10854186Y-16114729D01*
X10825614Y-16129014D01*
X10782757Y-16129014D01*
X10968471Y-15929014D02*
X11082757Y-15929014D01*
X11011328Y-15829014D02*
X11011328Y-16086157D01*
X11025614Y-16114729D01*
X11054186Y-16129014D01*
X11082757Y-16129014D01*
X11411328Y-15929014D02*
X11411328Y-16229014D01*
X11411328Y-15943300D02*
X11439900Y-15929014D01*
X11497043Y-15929014D01*
X11525614Y-15943300D01*
X11539900Y-15957586D01*
X11554186Y-15986157D01*
X11554186Y-16071871D01*
X11539900Y-16100443D01*
X11525614Y-16114729D01*
X11497043Y-16129014D01*
X11439900Y-16129014D01*
X11411328Y-16114729D01*
X11725614Y-16129014D02*
X11697043Y-16114729D01*
X11682757Y-16086157D01*
X11682757Y-15829014D01*
X11968471Y-16129014D02*
X11968471Y-15971871D01*
X11954186Y-15943300D01*
X11925614Y-15929014D01*
X11868471Y-15929014D01*
X11839900Y-15943300D01*
X11968471Y-16114729D02*
X11939900Y-16129014D01*
X11868471Y-16129014D01*
X11839900Y-16114729D01*
X11825614Y-16086157D01*
X11825614Y-16057586D01*
X11839900Y-16029014D01*
X11868471Y-16014729D01*
X11939900Y-16014729D01*
X11968471Y-16000443D01*
X12068471Y-15929014D02*
X12182757Y-15929014D01*
X12111328Y-15829014D02*
X12111328Y-16086157D01*
X12125614Y-16114729D01*
X12154186Y-16129014D01*
X12182757Y-16129014D01*
X12397043Y-16114729D02*
X12368471Y-16129014D01*
X12311328Y-16129014D01*
X12282757Y-16114729D01*
X12268471Y-16086157D01*
X12268471Y-15971871D01*
X12282757Y-15943300D01*
X12311328Y-15929014D01*
X12368471Y-15929014D01*
X12397043Y-15943300D01*
X12411328Y-15971871D01*
X12411328Y-16000443D01*
X12268471Y-16029014D01*
X12668471Y-16129014D02*
X12668471Y-15829014D01*
X12668471Y-16114729D02*
X12639900Y-16129014D01*
X12582757Y-16129014D01*
X12554186Y-16114729D01*
X12539900Y-16100443D01*
X12525614Y-16071871D01*
X12525614Y-15986157D01*
X12539900Y-15957586D01*
X12554186Y-15943300D01*
X12582757Y-15929014D01*
X12639900Y-15929014D01*
X12668471Y-15943300D01*
X12782757Y-16243300D02*
X12797043Y-16229014D01*
X12825614Y-16186157D01*
X12839900Y-16157586D01*
X12854186Y-16114729D01*
X12868471Y-16043300D01*
X12868471Y-15986157D01*
X12854186Y-15914729D01*
X12839900Y-15871871D01*
X12825614Y-15843300D01*
X12797043Y-15800443D01*
X12782757Y-15786157D01*
M02*
