%TF.GenerationSoftware,KiCad,Pcbnew,(5.1.7)-1*%
%TF.CreationDate,2020-11-17T12:59:15+01:00*%
%TF.ProjectId,matd_8x8,6d617464-5f38-4783-982e-6b696361645f,rev?*%
%TF.SameCoordinates,Original*%
%TF.FileFunction,Soldermask,Top*%
%TF.FilePolarity,Negative*%
%FSLAX46Y46*%
G04 Gerber Fmt 4.6, Leading zero omitted, Abs format (unit mm)*
G04 Created by KiCad (PCBNEW (5.1.7)-1) date 2020-11-17 12:59:15*
%MOMM*%
%LPD*%
G01*
G04 APERTURE LIST*
%ADD10R,1.248000X1.248000*%
%ADD11C,1.248000*%
%ADD12C,1.700000*%
%ADD13R,2.800000X2.200000*%
%ADD14R,2.800000X2.800000*%
%ADD15R,0.650000X1.528000*%
%ADD16C,1.600000*%
%ADD17R,1.600000X1.600000*%
%ADD18O,1.700000X1.700000*%
%ADD19R,1.700000X1.700000*%
%ADD20C,2.133600*%
%ADD21R,3.500000X3.500000*%
%ADD22R,1.525000X0.650000*%
%ADD23R,2.410000X3.100000*%
%ADD24C,3.000000*%
G04 APERTURE END LIST*
D10*
%TO.C,R2*%
X155702000Y-129076000D03*
D11*
X155702000Y-131616000D03*
X155702000Y-134156000D03*
%TD*%
D12*
%TO.C,J4*%
X164338000Y-135426000D03*
D13*
X168038000Y-136326000D03*
X160638000Y-134326000D03*
D14*
X160638000Y-143726000D03*
D12*
X164338000Y-142426000D03*
%TD*%
D15*
%TO.C,IC40*%
X151511000Y-127127000D03*
X150241000Y-127127000D03*
X148971000Y-127127000D03*
X147701000Y-127127000D03*
X147701000Y-132549000D03*
X148971000Y-132549000D03*
X150241000Y-132549000D03*
X151511000Y-132549000D03*
%TD*%
D16*
%TO.C,C70*%
X137851000Y-133013000D03*
D17*
X141351000Y-133013000D03*
%TD*%
%TO.C,R1*%
G36*
G01*
X145091999Y-138576000D02*
X145992001Y-138576000D01*
G75*
G02*
X146242000Y-138825999I0J-249999D01*
G01*
X146242000Y-139351001D01*
G75*
G02*
X145992001Y-139601000I-249999J0D01*
G01*
X145091999Y-139601000D01*
G75*
G02*
X144842000Y-139351001I0J249999D01*
G01*
X144842000Y-138825999D01*
G75*
G02*
X145091999Y-138576000I249999J0D01*
G01*
G37*
G36*
G01*
X145091999Y-136751000D02*
X145992001Y-136751000D01*
G75*
G02*
X146242000Y-137000999I0J-249999D01*
G01*
X146242000Y-137526001D01*
G75*
G02*
X145992001Y-137776000I-249999J0D01*
G01*
X145091999Y-137776000D01*
G75*
G02*
X144842000Y-137526001I0J249999D01*
G01*
X144842000Y-137000999D01*
G75*
G02*
X145091999Y-136751000I249999J0D01*
G01*
G37*
%TD*%
D18*
%TO.C,J5*%
X132207000Y-135045000D03*
X132207000Y-132505000D03*
D19*
X132207000Y-129965000D03*
%TD*%
%TO.C,C71*%
G36*
G01*
X145067000Y-134308000D02*
X146017000Y-134308000D01*
G75*
G02*
X146267000Y-134558000I0J-250000D01*
G01*
X146267000Y-135058000D01*
G75*
G02*
X146017000Y-135308000I-250000J0D01*
G01*
X145067000Y-135308000D01*
G75*
G02*
X144817000Y-135058000I0J250000D01*
G01*
X144817000Y-134558000D01*
G75*
G02*
X145067000Y-134308000I250000J0D01*
G01*
G37*
G36*
G01*
X145067000Y-132408000D02*
X146017000Y-132408000D01*
G75*
G02*
X146267000Y-132658000I0J-250000D01*
G01*
X146267000Y-133158000D01*
G75*
G02*
X146017000Y-133408000I-250000J0D01*
G01*
X145067000Y-133408000D01*
G75*
G02*
X144817000Y-133158000I0J250000D01*
G01*
X144817000Y-132658000D01*
G75*
G02*
X145067000Y-132408000I250000J0D01*
G01*
G37*
%TD*%
D18*
%TO.C,J2*%
X193548000Y-144018000D03*
X191008000Y-144018000D03*
X193548000Y-141478000D03*
X191008000Y-141478000D03*
X193548000Y-138938000D03*
X191008000Y-138938000D03*
X193548000Y-136398000D03*
X191008000Y-136398000D03*
X193548000Y-133858000D03*
X191008000Y-133858000D03*
X193548000Y-131318000D03*
X191008000Y-131318000D03*
X193548000Y-128778000D03*
X191008000Y-128778000D03*
X193548000Y-126238000D03*
X191008000Y-126238000D03*
X193548000Y-123698000D03*
X191008000Y-123698000D03*
X193548000Y-121158000D03*
X191008000Y-121158000D03*
X193548000Y-118618000D03*
X191008000Y-118618000D03*
X193548000Y-116078000D03*
X191008000Y-116078000D03*
X193548000Y-113538000D03*
X191008000Y-113538000D03*
X193548000Y-110998000D03*
X191008000Y-110998000D03*
X193548000Y-108458000D03*
X191008000Y-108458000D03*
X193548000Y-105918000D03*
X191008000Y-105918000D03*
X193548000Y-103378000D03*
X191008000Y-103378000D03*
X193548000Y-100838000D03*
X191008000Y-100838000D03*
X193548000Y-98298000D03*
X191008000Y-98298000D03*
X193548000Y-95758000D03*
D19*
X191008000Y-95758000D03*
%TD*%
D18*
%TO.C,J1*%
X193548000Y-91948000D03*
X191008000Y-91948000D03*
X193548000Y-89408000D03*
X191008000Y-89408000D03*
X193548000Y-86868000D03*
X191008000Y-86868000D03*
X193548000Y-84328000D03*
X191008000Y-84328000D03*
X193548000Y-81788000D03*
X191008000Y-81788000D03*
X193548000Y-79248000D03*
X191008000Y-79248000D03*
X193548000Y-76708000D03*
X191008000Y-76708000D03*
X193548000Y-74168000D03*
X191008000Y-74168000D03*
X193548000Y-71628000D03*
X191008000Y-71628000D03*
X193548000Y-69088000D03*
X191008000Y-69088000D03*
X193548000Y-66548000D03*
X191008000Y-66548000D03*
X193548000Y-64008000D03*
X191008000Y-64008000D03*
X193548000Y-61468000D03*
X191008000Y-61468000D03*
X193548000Y-58928000D03*
X191008000Y-58928000D03*
X193548000Y-56388000D03*
X191008000Y-56388000D03*
X193548000Y-53848000D03*
X191008000Y-53848000D03*
X193548000Y-51308000D03*
X191008000Y-51308000D03*
X193548000Y-48768000D03*
X191008000Y-48768000D03*
X193548000Y-46228000D03*
X191008000Y-46228000D03*
X193548000Y-43688000D03*
D19*
X191008000Y-43688000D03*
%TD*%
D20*
%TO.C,SG64*%
X113450999Y-131318000D03*
X118450999Y-131318000D03*
%TD*%
%TO.C,SG63*%
X103418000Y-131318000D03*
X108418000Y-131318000D03*
%TD*%
%TO.C,SG62*%
X93385000Y-131318000D03*
X98385000Y-131318000D03*
%TD*%
%TO.C,SG61*%
X83351999Y-131318000D03*
X88351999Y-131318000D03*
%TD*%
%TO.C,SG60*%
X73319000Y-131318000D03*
X78319000Y-131318000D03*
%TD*%
%TO.C,SG59*%
X63285999Y-131318000D03*
X68285999Y-131318000D03*
%TD*%
%TO.C,SG58*%
X53252999Y-131318000D03*
X58252999Y-131318000D03*
%TD*%
%TO.C,SG57*%
X43220000Y-131318000D03*
X48220000Y-131318000D03*
%TD*%
%TO.C,SG56*%
X113450999Y-121285000D03*
X118450999Y-121285000D03*
%TD*%
%TO.C,SG55*%
X103418000Y-121285000D03*
X108418000Y-121285000D03*
%TD*%
%TO.C,SG54*%
X93385000Y-121285000D03*
X98385000Y-121285000D03*
%TD*%
%TO.C,SG53*%
X83351999Y-121285000D03*
X88351999Y-121285000D03*
%TD*%
%TO.C,SG52*%
X73319000Y-121285000D03*
X78319000Y-121285000D03*
%TD*%
%TO.C,SG51*%
X63285999Y-121285000D03*
X68285999Y-121285000D03*
%TD*%
%TO.C,SG50*%
X53252999Y-121285000D03*
X58252999Y-121285000D03*
%TD*%
%TO.C,SG49*%
X43220000Y-121285000D03*
X48220000Y-121285000D03*
%TD*%
%TO.C,SG48*%
X113450999Y-111251999D03*
X118450999Y-111251999D03*
%TD*%
%TO.C,SG47*%
X103418000Y-111251999D03*
X108418000Y-111251999D03*
%TD*%
%TO.C,SG46*%
X93385000Y-111251999D03*
X98385000Y-111251999D03*
%TD*%
%TO.C,SG45*%
X83351999Y-111251999D03*
X88351999Y-111251999D03*
%TD*%
%TO.C,SG44*%
X73319000Y-111251999D03*
X78319000Y-111251999D03*
%TD*%
%TO.C,SG43*%
X63285999Y-111251999D03*
X68285999Y-111251999D03*
%TD*%
%TO.C,SG42*%
X53252999Y-111251999D03*
X58252999Y-111251999D03*
%TD*%
%TO.C,SG41*%
X43220000Y-111251999D03*
X48220000Y-111251999D03*
%TD*%
%TO.C,SG40*%
X113450999Y-101219000D03*
X118450999Y-101219000D03*
%TD*%
%TO.C,SG39*%
X103418000Y-101219000D03*
X108418000Y-101219000D03*
%TD*%
%TO.C,SG38*%
X93385000Y-101219000D03*
X98385000Y-101219000D03*
%TD*%
%TO.C,SG37*%
X83351999Y-101219000D03*
X88351999Y-101219000D03*
%TD*%
%TO.C,SG36*%
X73319000Y-101219000D03*
X78319000Y-101219000D03*
%TD*%
%TO.C,SG35*%
X63285999Y-101219000D03*
X68285999Y-101219000D03*
%TD*%
%TO.C,SG34*%
X53252999Y-101219000D03*
X58252999Y-101219000D03*
%TD*%
%TO.C,SG33*%
X43220000Y-101219000D03*
X48220000Y-101219000D03*
%TD*%
%TO.C,SG32*%
X113450999Y-91186000D03*
X118450999Y-91186000D03*
%TD*%
%TO.C,SG31*%
X103418000Y-91186000D03*
X108418000Y-91186000D03*
%TD*%
%TO.C,SG30*%
X93385000Y-91186000D03*
X98385000Y-91186000D03*
%TD*%
%TO.C,SG29*%
X83351999Y-91186000D03*
X88351999Y-91186000D03*
%TD*%
%TO.C,SG28*%
X73319000Y-91186000D03*
X78319000Y-91186000D03*
%TD*%
%TO.C,SG27*%
X63285999Y-91186000D03*
X68285999Y-91186000D03*
%TD*%
%TO.C,SG26*%
X53252999Y-91186000D03*
X58252999Y-91186000D03*
%TD*%
%TO.C,SG25*%
X43220000Y-91186000D03*
X48220000Y-91186000D03*
%TD*%
%TO.C,SG24*%
X113450999Y-81152999D03*
X118450999Y-81152999D03*
%TD*%
%TO.C,SG23*%
X103418000Y-81152999D03*
X108418000Y-81152999D03*
%TD*%
%TO.C,SG22*%
X93385000Y-81152999D03*
X98385000Y-81152999D03*
%TD*%
%TO.C,SG21*%
X83351999Y-81152999D03*
X88351999Y-81152999D03*
%TD*%
%TO.C,SG20*%
X73319000Y-81152999D03*
X78319000Y-81152999D03*
%TD*%
%TO.C,SG19*%
X63285999Y-81152999D03*
X68285999Y-81152999D03*
%TD*%
%TO.C,SG18*%
X53252999Y-81152999D03*
X58252999Y-81152999D03*
%TD*%
%TO.C,SG17*%
X43220000Y-81152999D03*
X48220000Y-81152999D03*
%TD*%
%TO.C,SG16*%
X113450999Y-71120000D03*
X118450999Y-71120000D03*
%TD*%
%TO.C,SG15*%
X103418000Y-71120000D03*
X108418000Y-71120000D03*
%TD*%
%TO.C,SG14*%
X93385000Y-71120000D03*
X98385000Y-71120000D03*
%TD*%
%TO.C,SG13*%
X83351999Y-71120000D03*
X88351999Y-71120000D03*
%TD*%
%TO.C,SG12*%
X73319000Y-71120000D03*
X78319000Y-71120000D03*
%TD*%
%TO.C,SG11*%
X63285999Y-71120000D03*
X68285999Y-71120000D03*
%TD*%
%TO.C,SG10*%
X53252999Y-71120000D03*
X58252999Y-71120000D03*
%TD*%
%TO.C,SG9*%
X43220000Y-71120000D03*
X48220000Y-71120000D03*
%TD*%
%TO.C,SG8*%
X113450999Y-61087000D03*
X118450999Y-61087000D03*
%TD*%
%TO.C,SG7*%
X103418000Y-61087000D03*
X108418000Y-61087000D03*
%TD*%
%TO.C,SG6*%
X93385000Y-61087000D03*
X98385000Y-61087000D03*
%TD*%
%TO.C,SG5*%
X83351999Y-61087000D03*
X88351999Y-61087000D03*
%TD*%
%TO.C,SG4*%
X73319000Y-61087000D03*
X78319000Y-61087000D03*
%TD*%
%TO.C,SG3*%
X63285999Y-61087000D03*
X68285999Y-61087000D03*
%TD*%
%TO.C,SG2*%
X53252999Y-61087000D03*
X58252999Y-61087000D03*
%TD*%
%TO.C,SG1*%
X43220000Y-61087000D03*
X48220000Y-61087000D03*
%TD*%
%TO.C,J3*%
G36*
G01*
X186931000Y-137382000D02*
X185181000Y-137382000D01*
G75*
G02*
X184306000Y-136507000I0J875000D01*
G01*
X184306000Y-134757000D01*
G75*
G02*
X185181000Y-133882000I875000J0D01*
G01*
X186931000Y-133882000D01*
G75*
G02*
X187806000Y-134757000I0J-875000D01*
G01*
X187806000Y-136507000D01*
G75*
G02*
X186931000Y-137382000I-875000J0D01*
G01*
G37*
G36*
G01*
X182356000Y-140132000D02*
X180356000Y-140132000D01*
G75*
G02*
X179606000Y-139382000I0J750000D01*
G01*
X179606000Y-137882000D01*
G75*
G02*
X180356000Y-137132000I750000J0D01*
G01*
X182356000Y-137132000D01*
G75*
G02*
X183106000Y-137882000I0J-750000D01*
G01*
X183106000Y-139382000D01*
G75*
G02*
X182356000Y-140132000I-750000J0D01*
G01*
G37*
D21*
X181356000Y-132632000D03*
%TD*%
D22*
%TO.C,IC32*%
X118662999Y-128396999D03*
X118662999Y-127126999D03*
X118662999Y-125856999D03*
X118662999Y-124586999D03*
X113238999Y-124586999D03*
X113238999Y-125856999D03*
X113238999Y-127126999D03*
X113238999Y-128396999D03*
D23*
X115950999Y-126491999D03*
%TD*%
D22*
%TO.C,IC31*%
X108630000Y-128396999D03*
X108630000Y-127126999D03*
X108630000Y-125856999D03*
X108630000Y-124586999D03*
X103206000Y-124586999D03*
X103206000Y-125856999D03*
X103206000Y-127126999D03*
X103206000Y-128396999D03*
D23*
X105918000Y-126491999D03*
%TD*%
D22*
%TO.C,IC30*%
X98597000Y-128396999D03*
X98597000Y-127126999D03*
X98597000Y-125856999D03*
X98597000Y-124586999D03*
X93173000Y-124586999D03*
X93173000Y-125856999D03*
X93173000Y-127126999D03*
X93173000Y-128396999D03*
D23*
X95885000Y-126491999D03*
%TD*%
D22*
%TO.C,IC29*%
X88563999Y-128396999D03*
X88563999Y-127126999D03*
X88563999Y-125856999D03*
X88563999Y-124586999D03*
X83139999Y-124586999D03*
X83139999Y-125856999D03*
X83139999Y-127126999D03*
X83139999Y-128396999D03*
D23*
X85851999Y-126491999D03*
%TD*%
D22*
%TO.C,IC28*%
X78531000Y-128396999D03*
X78531000Y-127126999D03*
X78531000Y-125856999D03*
X78531000Y-124586999D03*
X73107000Y-124586999D03*
X73107000Y-125856999D03*
X73107000Y-127126999D03*
X73107000Y-128396999D03*
D23*
X75819000Y-126491999D03*
%TD*%
D22*
%TO.C,IC27*%
X68497999Y-128396999D03*
X68497999Y-127126999D03*
X68497999Y-125856999D03*
X68497999Y-124586999D03*
X63073999Y-124586999D03*
X63073999Y-125856999D03*
X63073999Y-127126999D03*
X63073999Y-128396999D03*
D23*
X65785999Y-126491999D03*
%TD*%
D22*
%TO.C,IC26*%
X58464999Y-128396999D03*
X58464999Y-127126999D03*
X58464999Y-125856999D03*
X58464999Y-124586999D03*
X53040999Y-124586999D03*
X53040999Y-125856999D03*
X53040999Y-127126999D03*
X53040999Y-128396999D03*
D23*
X55752999Y-126491999D03*
%TD*%
D22*
%TO.C,IC25*%
X48432000Y-128396999D03*
X48432000Y-127126999D03*
X48432000Y-125856999D03*
X48432000Y-124586999D03*
X43008000Y-124586999D03*
X43008000Y-125856999D03*
X43008000Y-127126999D03*
X43008000Y-128396999D03*
D23*
X45720000Y-126491999D03*
%TD*%
D22*
%TO.C,IC24*%
X118662999Y-108330999D03*
X118662999Y-107060999D03*
X118662999Y-105790999D03*
X118662999Y-104520999D03*
X113238999Y-104520999D03*
X113238999Y-105790999D03*
X113238999Y-107060999D03*
X113238999Y-108330999D03*
D23*
X115950999Y-106425999D03*
%TD*%
D22*
%TO.C,IC23*%
X108630000Y-108330999D03*
X108630000Y-107060999D03*
X108630000Y-105790999D03*
X108630000Y-104520999D03*
X103206000Y-104520999D03*
X103206000Y-105790999D03*
X103206000Y-107060999D03*
X103206000Y-108330999D03*
D23*
X105918000Y-106425999D03*
%TD*%
D22*
%TO.C,IC22*%
X98597000Y-108330999D03*
X98597000Y-107060999D03*
X98597000Y-105790999D03*
X98597000Y-104520999D03*
X93173000Y-104520999D03*
X93173000Y-105790999D03*
X93173000Y-107060999D03*
X93173000Y-108330999D03*
D23*
X95885000Y-106425999D03*
%TD*%
D22*
%TO.C,IC21*%
X88563999Y-108330999D03*
X88563999Y-107060999D03*
X88563999Y-105790999D03*
X88563999Y-104520999D03*
X83139999Y-104520999D03*
X83139999Y-105790999D03*
X83139999Y-107060999D03*
X83139999Y-108330999D03*
D23*
X85851999Y-106425999D03*
%TD*%
D22*
%TO.C,IC20*%
X78531000Y-108330999D03*
X78531000Y-107060999D03*
X78531000Y-105790999D03*
X78531000Y-104520999D03*
X73107000Y-104520999D03*
X73107000Y-105790999D03*
X73107000Y-107060999D03*
X73107000Y-108330999D03*
D23*
X75819000Y-106425999D03*
%TD*%
D22*
%TO.C,IC19*%
X68497999Y-108330999D03*
X68497999Y-107060999D03*
X68497999Y-105790999D03*
X68497999Y-104520999D03*
X63073999Y-104520999D03*
X63073999Y-105790999D03*
X63073999Y-107060999D03*
X63073999Y-108330999D03*
D23*
X65785999Y-106425999D03*
%TD*%
D22*
%TO.C,IC18*%
X58464999Y-108330999D03*
X58464999Y-107060999D03*
X58464999Y-105790999D03*
X58464999Y-104520999D03*
X53040999Y-104520999D03*
X53040999Y-105790999D03*
X53040999Y-107060999D03*
X53040999Y-108330999D03*
D23*
X55752999Y-106425999D03*
%TD*%
D22*
%TO.C,IC17*%
X48432000Y-108330999D03*
X48432000Y-107060999D03*
X48432000Y-105790999D03*
X48432000Y-104520999D03*
X43008000Y-104520999D03*
X43008000Y-105790999D03*
X43008000Y-107060999D03*
X43008000Y-108330999D03*
D23*
X45720000Y-106425999D03*
%TD*%
D22*
%TO.C,IC16*%
X118662999Y-88265000D03*
X118662999Y-86995000D03*
X118662999Y-85725000D03*
X118662999Y-84455000D03*
X113238999Y-84455000D03*
X113238999Y-85725000D03*
X113238999Y-86995000D03*
X113238999Y-88265000D03*
D23*
X115950999Y-86360000D03*
%TD*%
D22*
%TO.C,IC15*%
X108630000Y-88265000D03*
X108630000Y-86995000D03*
X108630000Y-85725000D03*
X108630000Y-84455000D03*
X103206000Y-84455000D03*
X103206000Y-85725000D03*
X103206000Y-86995000D03*
X103206000Y-88265000D03*
D23*
X105918000Y-86360000D03*
%TD*%
D22*
%TO.C,IC14*%
X98597000Y-88265000D03*
X98597000Y-86995000D03*
X98597000Y-85725000D03*
X98597000Y-84455000D03*
X93173000Y-84455000D03*
X93173000Y-85725000D03*
X93173000Y-86995000D03*
X93173000Y-88265000D03*
D23*
X95885000Y-86360000D03*
%TD*%
D22*
%TO.C,IC13*%
X88563999Y-88265000D03*
X88563999Y-86995000D03*
X88563999Y-85725000D03*
X88563999Y-84455000D03*
X83139999Y-84455000D03*
X83139999Y-85725000D03*
X83139999Y-86995000D03*
X83139999Y-88265000D03*
D23*
X85851999Y-86360000D03*
%TD*%
D22*
%TO.C,IC12*%
X78531000Y-88265000D03*
X78531000Y-86995000D03*
X78531000Y-85725000D03*
X78531000Y-84455000D03*
X73107000Y-84455000D03*
X73107000Y-85725000D03*
X73107000Y-86995000D03*
X73107000Y-88265000D03*
D23*
X75819000Y-86360000D03*
%TD*%
D22*
%TO.C,IC11*%
X68497999Y-88265000D03*
X68497999Y-86995000D03*
X68497999Y-85725000D03*
X68497999Y-84455000D03*
X63073999Y-84455000D03*
X63073999Y-85725000D03*
X63073999Y-86995000D03*
X63073999Y-88265000D03*
D23*
X65785999Y-86360000D03*
%TD*%
D22*
%TO.C,IC10*%
X58464999Y-88265000D03*
X58464999Y-86995000D03*
X58464999Y-85725000D03*
X58464999Y-84455000D03*
X53040999Y-84455000D03*
X53040999Y-85725000D03*
X53040999Y-86995000D03*
X53040999Y-88265000D03*
D23*
X55752999Y-86360000D03*
%TD*%
D22*
%TO.C,IC9*%
X48432000Y-88265000D03*
X48432000Y-86995000D03*
X48432000Y-85725000D03*
X48432000Y-84455000D03*
X43008000Y-84455000D03*
X43008000Y-85725000D03*
X43008000Y-86995000D03*
X43008000Y-88265000D03*
D23*
X45720000Y-86360000D03*
%TD*%
D22*
%TO.C,IC8*%
X118662999Y-68199000D03*
X118662999Y-66929000D03*
X118662999Y-65659000D03*
X118662999Y-64389000D03*
X113238999Y-64389000D03*
X113238999Y-65659000D03*
X113238999Y-66929000D03*
X113238999Y-68199000D03*
D23*
X115950999Y-66294000D03*
%TD*%
D22*
%TO.C,IC7*%
X108630000Y-68199000D03*
X108630000Y-66929000D03*
X108630000Y-65659000D03*
X108630000Y-64389000D03*
X103206000Y-64389000D03*
X103206000Y-65659000D03*
X103206000Y-66929000D03*
X103206000Y-68199000D03*
D23*
X105918000Y-66294000D03*
%TD*%
D22*
%TO.C,IC6*%
X98597000Y-68199000D03*
X98597000Y-66929000D03*
X98597000Y-65659000D03*
X98597000Y-64389000D03*
X93173000Y-64389000D03*
X93173000Y-65659000D03*
X93173000Y-66929000D03*
X93173000Y-68199000D03*
D23*
X95885000Y-66294000D03*
%TD*%
D22*
%TO.C,IC5*%
X88563999Y-68199000D03*
X88563999Y-66929000D03*
X88563999Y-65659000D03*
X88563999Y-64389000D03*
X83139999Y-64389000D03*
X83139999Y-65659000D03*
X83139999Y-66929000D03*
X83139999Y-68199000D03*
D23*
X85851999Y-66294000D03*
%TD*%
D22*
%TO.C,IC4*%
X78531000Y-68199000D03*
X78531000Y-66929000D03*
X78531000Y-65659000D03*
X78531000Y-64389000D03*
X73107000Y-64389000D03*
X73107000Y-65659000D03*
X73107000Y-66929000D03*
X73107000Y-68199000D03*
D23*
X75819000Y-66294000D03*
%TD*%
D22*
%TO.C,IC3*%
X68497999Y-68199000D03*
X68497999Y-66929000D03*
X68497999Y-65659000D03*
X68497999Y-64389000D03*
X63073999Y-64389000D03*
X63073999Y-65659000D03*
X63073999Y-66929000D03*
X63073999Y-68199000D03*
D23*
X65785999Y-66294000D03*
%TD*%
D22*
%TO.C,IC2*%
X58464999Y-68199000D03*
X58464999Y-66929000D03*
X58464999Y-65659000D03*
X58464999Y-64389000D03*
X53040999Y-64389000D03*
X53040999Y-65659000D03*
X53040999Y-66929000D03*
X53040999Y-68199000D03*
D23*
X55752999Y-66294000D03*
%TD*%
D22*
%TO.C,IC1*%
X48432000Y-68199000D03*
X48432000Y-66929000D03*
X48432000Y-65659000D03*
X48432000Y-64389000D03*
X43008000Y-64389000D03*
X43008000Y-65659000D03*
X43008000Y-66929000D03*
X43008000Y-68199000D03*
D23*
X45720000Y-66294000D03*
%TD*%
%TO.C,C64*%
G36*
G01*
X116745999Y-118560000D02*
X117695999Y-118560000D01*
G75*
G02*
X117945999Y-118810000I0J-250000D01*
G01*
X117945999Y-119310000D01*
G75*
G02*
X117695999Y-119560000I-250000J0D01*
G01*
X116745999Y-119560000D01*
G75*
G02*
X116495999Y-119310000I0J250000D01*
G01*
X116495999Y-118810000D01*
G75*
G02*
X116745999Y-118560000I250000J0D01*
G01*
G37*
G36*
G01*
X116745999Y-116660000D02*
X117695999Y-116660000D01*
G75*
G02*
X117945999Y-116910000I0J-250000D01*
G01*
X117945999Y-117410000D01*
G75*
G02*
X117695999Y-117660000I-250000J0D01*
G01*
X116745999Y-117660000D01*
G75*
G02*
X116495999Y-117410000I0J250000D01*
G01*
X116495999Y-116910000D01*
G75*
G02*
X116745999Y-116660000I250000J0D01*
G01*
G37*
%TD*%
%TO.C,C62*%
G36*
G01*
X114205999Y-118560000D02*
X115155999Y-118560000D01*
G75*
G02*
X115405999Y-118810000I0J-250000D01*
G01*
X115405999Y-119310000D01*
G75*
G02*
X115155999Y-119560000I-250000J0D01*
G01*
X114205999Y-119560000D01*
G75*
G02*
X113955999Y-119310000I0J250000D01*
G01*
X113955999Y-118810000D01*
G75*
G02*
X114205999Y-118560000I250000J0D01*
G01*
G37*
G36*
G01*
X114205999Y-116660000D02*
X115155999Y-116660000D01*
G75*
G02*
X115405999Y-116910000I0J-250000D01*
G01*
X115405999Y-117410000D01*
G75*
G02*
X115155999Y-117660000I-250000J0D01*
G01*
X114205999Y-117660000D01*
G75*
G02*
X113955999Y-117410000I0J250000D01*
G01*
X113955999Y-116910000D01*
G75*
G02*
X114205999Y-116660000I250000J0D01*
G01*
G37*
%TD*%
%TO.C,C60*%
G36*
G01*
X106713000Y-118560000D02*
X107663000Y-118560000D01*
G75*
G02*
X107913000Y-118810000I0J-250000D01*
G01*
X107913000Y-119310000D01*
G75*
G02*
X107663000Y-119560000I-250000J0D01*
G01*
X106713000Y-119560000D01*
G75*
G02*
X106463000Y-119310000I0J250000D01*
G01*
X106463000Y-118810000D01*
G75*
G02*
X106713000Y-118560000I250000J0D01*
G01*
G37*
G36*
G01*
X106713000Y-116660000D02*
X107663000Y-116660000D01*
G75*
G02*
X107913000Y-116910000I0J-250000D01*
G01*
X107913000Y-117410000D01*
G75*
G02*
X107663000Y-117660000I-250000J0D01*
G01*
X106713000Y-117660000D01*
G75*
G02*
X106463000Y-117410000I0J250000D01*
G01*
X106463000Y-116910000D01*
G75*
G02*
X106713000Y-116660000I250000J0D01*
G01*
G37*
%TD*%
%TO.C,C58*%
G36*
G01*
X104173000Y-118560000D02*
X105123000Y-118560000D01*
G75*
G02*
X105373000Y-118810000I0J-250000D01*
G01*
X105373000Y-119310000D01*
G75*
G02*
X105123000Y-119560000I-250000J0D01*
G01*
X104173000Y-119560000D01*
G75*
G02*
X103923000Y-119310000I0J250000D01*
G01*
X103923000Y-118810000D01*
G75*
G02*
X104173000Y-118560000I250000J0D01*
G01*
G37*
G36*
G01*
X104173000Y-116660000D02*
X105123000Y-116660000D01*
G75*
G02*
X105373000Y-116910000I0J-250000D01*
G01*
X105373000Y-117410000D01*
G75*
G02*
X105123000Y-117660000I-250000J0D01*
G01*
X104173000Y-117660000D01*
G75*
G02*
X103923000Y-117410000I0J250000D01*
G01*
X103923000Y-116910000D01*
G75*
G02*
X104173000Y-116660000I250000J0D01*
G01*
G37*
%TD*%
%TO.C,C63*%
G36*
G01*
X96680000Y-118560000D02*
X97630000Y-118560000D01*
G75*
G02*
X97880000Y-118810000I0J-250000D01*
G01*
X97880000Y-119310000D01*
G75*
G02*
X97630000Y-119560000I-250000J0D01*
G01*
X96680000Y-119560000D01*
G75*
G02*
X96430000Y-119310000I0J250000D01*
G01*
X96430000Y-118810000D01*
G75*
G02*
X96680000Y-118560000I250000J0D01*
G01*
G37*
G36*
G01*
X96680000Y-116660000D02*
X97630000Y-116660000D01*
G75*
G02*
X97880000Y-116910000I0J-250000D01*
G01*
X97880000Y-117410000D01*
G75*
G02*
X97630000Y-117660000I-250000J0D01*
G01*
X96680000Y-117660000D01*
G75*
G02*
X96430000Y-117410000I0J250000D01*
G01*
X96430000Y-116910000D01*
G75*
G02*
X96680000Y-116660000I250000J0D01*
G01*
G37*
%TD*%
%TO.C,C61*%
G36*
G01*
X94140000Y-118560000D02*
X95090000Y-118560000D01*
G75*
G02*
X95340000Y-118810000I0J-250000D01*
G01*
X95340000Y-119310000D01*
G75*
G02*
X95090000Y-119560000I-250000J0D01*
G01*
X94140000Y-119560000D01*
G75*
G02*
X93890000Y-119310000I0J250000D01*
G01*
X93890000Y-118810000D01*
G75*
G02*
X94140000Y-118560000I250000J0D01*
G01*
G37*
G36*
G01*
X94140000Y-116660000D02*
X95090000Y-116660000D01*
G75*
G02*
X95340000Y-116910000I0J-250000D01*
G01*
X95340000Y-117410000D01*
G75*
G02*
X95090000Y-117660000I-250000J0D01*
G01*
X94140000Y-117660000D01*
G75*
G02*
X93890000Y-117410000I0J250000D01*
G01*
X93890000Y-116910000D01*
G75*
G02*
X94140000Y-116660000I250000J0D01*
G01*
G37*
%TD*%
%TO.C,C59*%
G36*
G01*
X86646999Y-118560000D02*
X87596999Y-118560000D01*
G75*
G02*
X87846999Y-118810000I0J-250000D01*
G01*
X87846999Y-119310000D01*
G75*
G02*
X87596999Y-119560000I-250000J0D01*
G01*
X86646999Y-119560000D01*
G75*
G02*
X86396999Y-119310000I0J250000D01*
G01*
X86396999Y-118810000D01*
G75*
G02*
X86646999Y-118560000I250000J0D01*
G01*
G37*
G36*
G01*
X86646999Y-116660000D02*
X87596999Y-116660000D01*
G75*
G02*
X87846999Y-116910000I0J-250000D01*
G01*
X87846999Y-117410000D01*
G75*
G02*
X87596999Y-117660000I-250000J0D01*
G01*
X86646999Y-117660000D01*
G75*
G02*
X86396999Y-117410000I0J250000D01*
G01*
X86396999Y-116910000D01*
G75*
G02*
X86646999Y-116660000I250000J0D01*
G01*
G37*
%TD*%
%TO.C,C57*%
G36*
G01*
X84106999Y-118560000D02*
X85056999Y-118560000D01*
G75*
G02*
X85306999Y-118810000I0J-250000D01*
G01*
X85306999Y-119310000D01*
G75*
G02*
X85056999Y-119560000I-250000J0D01*
G01*
X84106999Y-119560000D01*
G75*
G02*
X83856999Y-119310000I0J250000D01*
G01*
X83856999Y-118810000D01*
G75*
G02*
X84106999Y-118560000I250000J0D01*
G01*
G37*
G36*
G01*
X84106999Y-116660000D02*
X85056999Y-116660000D01*
G75*
G02*
X85306999Y-116910000I0J-250000D01*
G01*
X85306999Y-117410000D01*
G75*
G02*
X85056999Y-117660000I-250000J0D01*
G01*
X84106999Y-117660000D01*
G75*
G02*
X83856999Y-117410000I0J250000D01*
G01*
X83856999Y-116910000D01*
G75*
G02*
X84106999Y-116660000I250000J0D01*
G01*
G37*
%TD*%
%TO.C,C56*%
G36*
G01*
X76614000Y-118560000D02*
X77564000Y-118560000D01*
G75*
G02*
X77814000Y-118810000I0J-250000D01*
G01*
X77814000Y-119310000D01*
G75*
G02*
X77564000Y-119560000I-250000J0D01*
G01*
X76614000Y-119560000D01*
G75*
G02*
X76364000Y-119310000I0J250000D01*
G01*
X76364000Y-118810000D01*
G75*
G02*
X76614000Y-118560000I250000J0D01*
G01*
G37*
G36*
G01*
X76614000Y-116660000D02*
X77564000Y-116660000D01*
G75*
G02*
X77814000Y-116910000I0J-250000D01*
G01*
X77814000Y-117410000D01*
G75*
G02*
X77564000Y-117660000I-250000J0D01*
G01*
X76614000Y-117660000D01*
G75*
G02*
X76364000Y-117410000I0J250000D01*
G01*
X76364000Y-116910000D01*
G75*
G02*
X76614000Y-116660000I250000J0D01*
G01*
G37*
%TD*%
%TO.C,C54*%
G36*
G01*
X74074000Y-118560000D02*
X75024000Y-118560000D01*
G75*
G02*
X75274000Y-118810000I0J-250000D01*
G01*
X75274000Y-119310000D01*
G75*
G02*
X75024000Y-119560000I-250000J0D01*
G01*
X74074000Y-119560000D01*
G75*
G02*
X73824000Y-119310000I0J250000D01*
G01*
X73824000Y-118810000D01*
G75*
G02*
X74074000Y-118560000I250000J0D01*
G01*
G37*
G36*
G01*
X74074000Y-116660000D02*
X75024000Y-116660000D01*
G75*
G02*
X75274000Y-116910000I0J-250000D01*
G01*
X75274000Y-117410000D01*
G75*
G02*
X75024000Y-117660000I-250000J0D01*
G01*
X74074000Y-117660000D01*
G75*
G02*
X73824000Y-117410000I0J250000D01*
G01*
X73824000Y-116910000D01*
G75*
G02*
X74074000Y-116660000I250000J0D01*
G01*
G37*
%TD*%
%TO.C,C52*%
G36*
G01*
X66580999Y-118560000D02*
X67530999Y-118560000D01*
G75*
G02*
X67780999Y-118810000I0J-250000D01*
G01*
X67780999Y-119310000D01*
G75*
G02*
X67530999Y-119560000I-250000J0D01*
G01*
X66580999Y-119560000D01*
G75*
G02*
X66330999Y-119310000I0J250000D01*
G01*
X66330999Y-118810000D01*
G75*
G02*
X66580999Y-118560000I250000J0D01*
G01*
G37*
G36*
G01*
X66580999Y-116660000D02*
X67530999Y-116660000D01*
G75*
G02*
X67780999Y-116910000I0J-250000D01*
G01*
X67780999Y-117410000D01*
G75*
G02*
X67530999Y-117660000I-250000J0D01*
G01*
X66580999Y-117660000D01*
G75*
G02*
X66330999Y-117410000I0J250000D01*
G01*
X66330999Y-116910000D01*
G75*
G02*
X66580999Y-116660000I250000J0D01*
G01*
G37*
%TD*%
%TO.C,C50*%
G36*
G01*
X64040999Y-118560000D02*
X64990999Y-118560000D01*
G75*
G02*
X65240999Y-118810000I0J-250000D01*
G01*
X65240999Y-119310000D01*
G75*
G02*
X64990999Y-119560000I-250000J0D01*
G01*
X64040999Y-119560000D01*
G75*
G02*
X63790999Y-119310000I0J250000D01*
G01*
X63790999Y-118810000D01*
G75*
G02*
X64040999Y-118560000I250000J0D01*
G01*
G37*
G36*
G01*
X64040999Y-116660000D02*
X64990999Y-116660000D01*
G75*
G02*
X65240999Y-116910000I0J-250000D01*
G01*
X65240999Y-117410000D01*
G75*
G02*
X64990999Y-117660000I-250000J0D01*
G01*
X64040999Y-117660000D01*
G75*
G02*
X63790999Y-117410000I0J250000D01*
G01*
X63790999Y-116910000D01*
G75*
G02*
X64040999Y-116660000I250000J0D01*
G01*
G37*
%TD*%
%TO.C,C55*%
G36*
G01*
X56547999Y-118560000D02*
X57497999Y-118560000D01*
G75*
G02*
X57747999Y-118810000I0J-250000D01*
G01*
X57747999Y-119310000D01*
G75*
G02*
X57497999Y-119560000I-250000J0D01*
G01*
X56547999Y-119560000D01*
G75*
G02*
X56297999Y-119310000I0J250000D01*
G01*
X56297999Y-118810000D01*
G75*
G02*
X56547999Y-118560000I250000J0D01*
G01*
G37*
G36*
G01*
X56547999Y-116660000D02*
X57497999Y-116660000D01*
G75*
G02*
X57747999Y-116910000I0J-250000D01*
G01*
X57747999Y-117410000D01*
G75*
G02*
X57497999Y-117660000I-250000J0D01*
G01*
X56547999Y-117660000D01*
G75*
G02*
X56297999Y-117410000I0J250000D01*
G01*
X56297999Y-116910000D01*
G75*
G02*
X56547999Y-116660000I250000J0D01*
G01*
G37*
%TD*%
%TO.C,C53*%
G36*
G01*
X54007999Y-118560000D02*
X54957999Y-118560000D01*
G75*
G02*
X55207999Y-118810000I0J-250000D01*
G01*
X55207999Y-119310000D01*
G75*
G02*
X54957999Y-119560000I-250000J0D01*
G01*
X54007999Y-119560000D01*
G75*
G02*
X53757999Y-119310000I0J250000D01*
G01*
X53757999Y-118810000D01*
G75*
G02*
X54007999Y-118560000I250000J0D01*
G01*
G37*
G36*
G01*
X54007999Y-116660000D02*
X54957999Y-116660000D01*
G75*
G02*
X55207999Y-116910000I0J-250000D01*
G01*
X55207999Y-117410000D01*
G75*
G02*
X54957999Y-117660000I-250000J0D01*
G01*
X54007999Y-117660000D01*
G75*
G02*
X53757999Y-117410000I0J250000D01*
G01*
X53757999Y-116910000D01*
G75*
G02*
X54007999Y-116660000I250000J0D01*
G01*
G37*
%TD*%
%TO.C,C51*%
G36*
G01*
X46515000Y-118560000D02*
X47465000Y-118560000D01*
G75*
G02*
X47715000Y-118810000I0J-250000D01*
G01*
X47715000Y-119310000D01*
G75*
G02*
X47465000Y-119560000I-250000J0D01*
G01*
X46515000Y-119560000D01*
G75*
G02*
X46265000Y-119310000I0J250000D01*
G01*
X46265000Y-118810000D01*
G75*
G02*
X46515000Y-118560000I250000J0D01*
G01*
G37*
G36*
G01*
X46515000Y-116660000D02*
X47465000Y-116660000D01*
G75*
G02*
X47715000Y-116910000I0J-250000D01*
G01*
X47715000Y-117410000D01*
G75*
G02*
X47465000Y-117660000I-250000J0D01*
G01*
X46515000Y-117660000D01*
G75*
G02*
X46265000Y-117410000I0J250000D01*
G01*
X46265000Y-116910000D01*
G75*
G02*
X46515000Y-116660000I250000J0D01*
G01*
G37*
%TD*%
%TO.C,C49*%
G36*
G01*
X43975000Y-118560000D02*
X44925000Y-118560000D01*
G75*
G02*
X45175000Y-118810000I0J-250000D01*
G01*
X45175000Y-119310000D01*
G75*
G02*
X44925000Y-119560000I-250000J0D01*
G01*
X43975000Y-119560000D01*
G75*
G02*
X43725000Y-119310000I0J250000D01*
G01*
X43725000Y-118810000D01*
G75*
G02*
X43975000Y-118560000I250000J0D01*
G01*
G37*
G36*
G01*
X43975000Y-116660000D02*
X44925000Y-116660000D01*
G75*
G02*
X45175000Y-116910000I0J-250000D01*
G01*
X45175000Y-117410000D01*
G75*
G02*
X44925000Y-117660000I-250000J0D01*
G01*
X43975000Y-117660000D01*
G75*
G02*
X43725000Y-117410000I0J250000D01*
G01*
X43725000Y-116910000D01*
G75*
G02*
X43975000Y-116660000I250000J0D01*
G01*
G37*
%TD*%
%TO.C,C48*%
G36*
G01*
X116745999Y-98494000D02*
X117695999Y-98494000D01*
G75*
G02*
X117945999Y-98744000I0J-250000D01*
G01*
X117945999Y-99244000D01*
G75*
G02*
X117695999Y-99494000I-250000J0D01*
G01*
X116745999Y-99494000D01*
G75*
G02*
X116495999Y-99244000I0J250000D01*
G01*
X116495999Y-98744000D01*
G75*
G02*
X116745999Y-98494000I250000J0D01*
G01*
G37*
G36*
G01*
X116745999Y-96594000D02*
X117695999Y-96594000D01*
G75*
G02*
X117945999Y-96844000I0J-250000D01*
G01*
X117945999Y-97344000D01*
G75*
G02*
X117695999Y-97594000I-250000J0D01*
G01*
X116745999Y-97594000D01*
G75*
G02*
X116495999Y-97344000I0J250000D01*
G01*
X116495999Y-96844000D01*
G75*
G02*
X116745999Y-96594000I250000J0D01*
G01*
G37*
%TD*%
%TO.C,C46*%
G36*
G01*
X114205999Y-98494000D02*
X115155999Y-98494000D01*
G75*
G02*
X115405999Y-98744000I0J-250000D01*
G01*
X115405999Y-99244000D01*
G75*
G02*
X115155999Y-99494000I-250000J0D01*
G01*
X114205999Y-99494000D01*
G75*
G02*
X113955999Y-99244000I0J250000D01*
G01*
X113955999Y-98744000D01*
G75*
G02*
X114205999Y-98494000I250000J0D01*
G01*
G37*
G36*
G01*
X114205999Y-96594000D02*
X115155999Y-96594000D01*
G75*
G02*
X115405999Y-96844000I0J-250000D01*
G01*
X115405999Y-97344000D01*
G75*
G02*
X115155999Y-97594000I-250000J0D01*
G01*
X114205999Y-97594000D01*
G75*
G02*
X113955999Y-97344000I0J250000D01*
G01*
X113955999Y-96844000D01*
G75*
G02*
X114205999Y-96594000I250000J0D01*
G01*
G37*
%TD*%
%TO.C,C44*%
G36*
G01*
X106713000Y-98494000D02*
X107663000Y-98494000D01*
G75*
G02*
X107913000Y-98744000I0J-250000D01*
G01*
X107913000Y-99244000D01*
G75*
G02*
X107663000Y-99494000I-250000J0D01*
G01*
X106713000Y-99494000D01*
G75*
G02*
X106463000Y-99244000I0J250000D01*
G01*
X106463000Y-98744000D01*
G75*
G02*
X106713000Y-98494000I250000J0D01*
G01*
G37*
G36*
G01*
X106713000Y-96594000D02*
X107663000Y-96594000D01*
G75*
G02*
X107913000Y-96844000I0J-250000D01*
G01*
X107913000Y-97344000D01*
G75*
G02*
X107663000Y-97594000I-250000J0D01*
G01*
X106713000Y-97594000D01*
G75*
G02*
X106463000Y-97344000I0J250000D01*
G01*
X106463000Y-96844000D01*
G75*
G02*
X106713000Y-96594000I250000J0D01*
G01*
G37*
%TD*%
%TO.C,C42*%
G36*
G01*
X104173000Y-98494000D02*
X105123000Y-98494000D01*
G75*
G02*
X105373000Y-98744000I0J-250000D01*
G01*
X105373000Y-99244000D01*
G75*
G02*
X105123000Y-99494000I-250000J0D01*
G01*
X104173000Y-99494000D01*
G75*
G02*
X103923000Y-99244000I0J250000D01*
G01*
X103923000Y-98744000D01*
G75*
G02*
X104173000Y-98494000I250000J0D01*
G01*
G37*
G36*
G01*
X104173000Y-96594000D02*
X105123000Y-96594000D01*
G75*
G02*
X105373000Y-96844000I0J-250000D01*
G01*
X105373000Y-97344000D01*
G75*
G02*
X105123000Y-97594000I-250000J0D01*
G01*
X104173000Y-97594000D01*
G75*
G02*
X103923000Y-97344000I0J250000D01*
G01*
X103923000Y-96844000D01*
G75*
G02*
X104173000Y-96594000I250000J0D01*
G01*
G37*
%TD*%
%TO.C,C47*%
G36*
G01*
X96680000Y-98494000D02*
X97630000Y-98494000D01*
G75*
G02*
X97880000Y-98744000I0J-250000D01*
G01*
X97880000Y-99244000D01*
G75*
G02*
X97630000Y-99494000I-250000J0D01*
G01*
X96680000Y-99494000D01*
G75*
G02*
X96430000Y-99244000I0J250000D01*
G01*
X96430000Y-98744000D01*
G75*
G02*
X96680000Y-98494000I250000J0D01*
G01*
G37*
G36*
G01*
X96680000Y-96594000D02*
X97630000Y-96594000D01*
G75*
G02*
X97880000Y-96844000I0J-250000D01*
G01*
X97880000Y-97344000D01*
G75*
G02*
X97630000Y-97594000I-250000J0D01*
G01*
X96680000Y-97594000D01*
G75*
G02*
X96430000Y-97344000I0J250000D01*
G01*
X96430000Y-96844000D01*
G75*
G02*
X96680000Y-96594000I250000J0D01*
G01*
G37*
%TD*%
%TO.C,C45*%
G36*
G01*
X94140000Y-98494000D02*
X95090000Y-98494000D01*
G75*
G02*
X95340000Y-98744000I0J-250000D01*
G01*
X95340000Y-99244000D01*
G75*
G02*
X95090000Y-99494000I-250000J0D01*
G01*
X94140000Y-99494000D01*
G75*
G02*
X93890000Y-99244000I0J250000D01*
G01*
X93890000Y-98744000D01*
G75*
G02*
X94140000Y-98494000I250000J0D01*
G01*
G37*
G36*
G01*
X94140000Y-96594000D02*
X95090000Y-96594000D01*
G75*
G02*
X95340000Y-96844000I0J-250000D01*
G01*
X95340000Y-97344000D01*
G75*
G02*
X95090000Y-97594000I-250000J0D01*
G01*
X94140000Y-97594000D01*
G75*
G02*
X93890000Y-97344000I0J250000D01*
G01*
X93890000Y-96844000D01*
G75*
G02*
X94140000Y-96594000I250000J0D01*
G01*
G37*
%TD*%
%TO.C,C43*%
G36*
G01*
X86646999Y-98494000D02*
X87596999Y-98494000D01*
G75*
G02*
X87846999Y-98744000I0J-250000D01*
G01*
X87846999Y-99244000D01*
G75*
G02*
X87596999Y-99494000I-250000J0D01*
G01*
X86646999Y-99494000D01*
G75*
G02*
X86396999Y-99244000I0J250000D01*
G01*
X86396999Y-98744000D01*
G75*
G02*
X86646999Y-98494000I250000J0D01*
G01*
G37*
G36*
G01*
X86646999Y-96594000D02*
X87596999Y-96594000D01*
G75*
G02*
X87846999Y-96844000I0J-250000D01*
G01*
X87846999Y-97344000D01*
G75*
G02*
X87596999Y-97594000I-250000J0D01*
G01*
X86646999Y-97594000D01*
G75*
G02*
X86396999Y-97344000I0J250000D01*
G01*
X86396999Y-96844000D01*
G75*
G02*
X86646999Y-96594000I250000J0D01*
G01*
G37*
%TD*%
%TO.C,C41*%
G36*
G01*
X84106999Y-98494000D02*
X85056999Y-98494000D01*
G75*
G02*
X85306999Y-98744000I0J-250000D01*
G01*
X85306999Y-99244000D01*
G75*
G02*
X85056999Y-99494000I-250000J0D01*
G01*
X84106999Y-99494000D01*
G75*
G02*
X83856999Y-99244000I0J250000D01*
G01*
X83856999Y-98744000D01*
G75*
G02*
X84106999Y-98494000I250000J0D01*
G01*
G37*
G36*
G01*
X84106999Y-96594000D02*
X85056999Y-96594000D01*
G75*
G02*
X85306999Y-96844000I0J-250000D01*
G01*
X85306999Y-97344000D01*
G75*
G02*
X85056999Y-97594000I-250000J0D01*
G01*
X84106999Y-97594000D01*
G75*
G02*
X83856999Y-97344000I0J250000D01*
G01*
X83856999Y-96844000D01*
G75*
G02*
X84106999Y-96594000I250000J0D01*
G01*
G37*
%TD*%
%TO.C,C40*%
G36*
G01*
X76614000Y-98494000D02*
X77564000Y-98494000D01*
G75*
G02*
X77814000Y-98744000I0J-250000D01*
G01*
X77814000Y-99244000D01*
G75*
G02*
X77564000Y-99494000I-250000J0D01*
G01*
X76614000Y-99494000D01*
G75*
G02*
X76364000Y-99244000I0J250000D01*
G01*
X76364000Y-98744000D01*
G75*
G02*
X76614000Y-98494000I250000J0D01*
G01*
G37*
G36*
G01*
X76614000Y-96594000D02*
X77564000Y-96594000D01*
G75*
G02*
X77814000Y-96844000I0J-250000D01*
G01*
X77814000Y-97344000D01*
G75*
G02*
X77564000Y-97594000I-250000J0D01*
G01*
X76614000Y-97594000D01*
G75*
G02*
X76364000Y-97344000I0J250000D01*
G01*
X76364000Y-96844000D01*
G75*
G02*
X76614000Y-96594000I250000J0D01*
G01*
G37*
%TD*%
%TO.C,C38*%
G36*
G01*
X74074000Y-98494000D02*
X75024000Y-98494000D01*
G75*
G02*
X75274000Y-98744000I0J-250000D01*
G01*
X75274000Y-99244000D01*
G75*
G02*
X75024000Y-99494000I-250000J0D01*
G01*
X74074000Y-99494000D01*
G75*
G02*
X73824000Y-99244000I0J250000D01*
G01*
X73824000Y-98744000D01*
G75*
G02*
X74074000Y-98494000I250000J0D01*
G01*
G37*
G36*
G01*
X74074000Y-96594000D02*
X75024000Y-96594000D01*
G75*
G02*
X75274000Y-96844000I0J-250000D01*
G01*
X75274000Y-97344000D01*
G75*
G02*
X75024000Y-97594000I-250000J0D01*
G01*
X74074000Y-97594000D01*
G75*
G02*
X73824000Y-97344000I0J250000D01*
G01*
X73824000Y-96844000D01*
G75*
G02*
X74074000Y-96594000I250000J0D01*
G01*
G37*
%TD*%
%TO.C,C36*%
G36*
G01*
X66580999Y-98494000D02*
X67530999Y-98494000D01*
G75*
G02*
X67780999Y-98744000I0J-250000D01*
G01*
X67780999Y-99244000D01*
G75*
G02*
X67530999Y-99494000I-250000J0D01*
G01*
X66580999Y-99494000D01*
G75*
G02*
X66330999Y-99244000I0J250000D01*
G01*
X66330999Y-98744000D01*
G75*
G02*
X66580999Y-98494000I250000J0D01*
G01*
G37*
G36*
G01*
X66580999Y-96594000D02*
X67530999Y-96594000D01*
G75*
G02*
X67780999Y-96844000I0J-250000D01*
G01*
X67780999Y-97344000D01*
G75*
G02*
X67530999Y-97594000I-250000J0D01*
G01*
X66580999Y-97594000D01*
G75*
G02*
X66330999Y-97344000I0J250000D01*
G01*
X66330999Y-96844000D01*
G75*
G02*
X66580999Y-96594000I250000J0D01*
G01*
G37*
%TD*%
%TO.C,C34*%
G36*
G01*
X64040999Y-98494000D02*
X64990999Y-98494000D01*
G75*
G02*
X65240999Y-98744000I0J-250000D01*
G01*
X65240999Y-99244000D01*
G75*
G02*
X64990999Y-99494000I-250000J0D01*
G01*
X64040999Y-99494000D01*
G75*
G02*
X63790999Y-99244000I0J250000D01*
G01*
X63790999Y-98744000D01*
G75*
G02*
X64040999Y-98494000I250000J0D01*
G01*
G37*
G36*
G01*
X64040999Y-96594000D02*
X64990999Y-96594000D01*
G75*
G02*
X65240999Y-96844000I0J-250000D01*
G01*
X65240999Y-97344000D01*
G75*
G02*
X64990999Y-97594000I-250000J0D01*
G01*
X64040999Y-97594000D01*
G75*
G02*
X63790999Y-97344000I0J250000D01*
G01*
X63790999Y-96844000D01*
G75*
G02*
X64040999Y-96594000I250000J0D01*
G01*
G37*
%TD*%
%TO.C,C39*%
G36*
G01*
X56547999Y-98494000D02*
X57497999Y-98494000D01*
G75*
G02*
X57747999Y-98744000I0J-250000D01*
G01*
X57747999Y-99244000D01*
G75*
G02*
X57497999Y-99494000I-250000J0D01*
G01*
X56547999Y-99494000D01*
G75*
G02*
X56297999Y-99244000I0J250000D01*
G01*
X56297999Y-98744000D01*
G75*
G02*
X56547999Y-98494000I250000J0D01*
G01*
G37*
G36*
G01*
X56547999Y-96594000D02*
X57497999Y-96594000D01*
G75*
G02*
X57747999Y-96844000I0J-250000D01*
G01*
X57747999Y-97344000D01*
G75*
G02*
X57497999Y-97594000I-250000J0D01*
G01*
X56547999Y-97594000D01*
G75*
G02*
X56297999Y-97344000I0J250000D01*
G01*
X56297999Y-96844000D01*
G75*
G02*
X56547999Y-96594000I250000J0D01*
G01*
G37*
%TD*%
%TO.C,C37*%
G36*
G01*
X54007999Y-98494000D02*
X54957999Y-98494000D01*
G75*
G02*
X55207999Y-98744000I0J-250000D01*
G01*
X55207999Y-99244000D01*
G75*
G02*
X54957999Y-99494000I-250000J0D01*
G01*
X54007999Y-99494000D01*
G75*
G02*
X53757999Y-99244000I0J250000D01*
G01*
X53757999Y-98744000D01*
G75*
G02*
X54007999Y-98494000I250000J0D01*
G01*
G37*
G36*
G01*
X54007999Y-96594000D02*
X54957999Y-96594000D01*
G75*
G02*
X55207999Y-96844000I0J-250000D01*
G01*
X55207999Y-97344000D01*
G75*
G02*
X54957999Y-97594000I-250000J0D01*
G01*
X54007999Y-97594000D01*
G75*
G02*
X53757999Y-97344000I0J250000D01*
G01*
X53757999Y-96844000D01*
G75*
G02*
X54007999Y-96594000I250000J0D01*
G01*
G37*
%TD*%
%TO.C,C35*%
G36*
G01*
X46515000Y-98494000D02*
X47465000Y-98494000D01*
G75*
G02*
X47715000Y-98744000I0J-250000D01*
G01*
X47715000Y-99244000D01*
G75*
G02*
X47465000Y-99494000I-250000J0D01*
G01*
X46515000Y-99494000D01*
G75*
G02*
X46265000Y-99244000I0J250000D01*
G01*
X46265000Y-98744000D01*
G75*
G02*
X46515000Y-98494000I250000J0D01*
G01*
G37*
G36*
G01*
X46515000Y-96594000D02*
X47465000Y-96594000D01*
G75*
G02*
X47715000Y-96844000I0J-250000D01*
G01*
X47715000Y-97344000D01*
G75*
G02*
X47465000Y-97594000I-250000J0D01*
G01*
X46515000Y-97594000D01*
G75*
G02*
X46265000Y-97344000I0J250000D01*
G01*
X46265000Y-96844000D01*
G75*
G02*
X46515000Y-96594000I250000J0D01*
G01*
G37*
%TD*%
%TO.C,C33*%
G36*
G01*
X43975000Y-98494000D02*
X44925000Y-98494000D01*
G75*
G02*
X45175000Y-98744000I0J-250000D01*
G01*
X45175000Y-99244000D01*
G75*
G02*
X44925000Y-99494000I-250000J0D01*
G01*
X43975000Y-99494000D01*
G75*
G02*
X43725000Y-99244000I0J250000D01*
G01*
X43725000Y-98744000D01*
G75*
G02*
X43975000Y-98494000I250000J0D01*
G01*
G37*
G36*
G01*
X43975000Y-96594000D02*
X44925000Y-96594000D01*
G75*
G02*
X45175000Y-96844000I0J-250000D01*
G01*
X45175000Y-97344000D01*
G75*
G02*
X44925000Y-97594000I-250000J0D01*
G01*
X43975000Y-97594000D01*
G75*
G02*
X43725000Y-97344000I0J250000D01*
G01*
X43725000Y-96844000D01*
G75*
G02*
X43975000Y-96594000I250000J0D01*
G01*
G37*
%TD*%
%TO.C,C32*%
G36*
G01*
X116745999Y-78427999D02*
X117695999Y-78427999D01*
G75*
G02*
X117945999Y-78677999I0J-250000D01*
G01*
X117945999Y-79177999D01*
G75*
G02*
X117695999Y-79427999I-250000J0D01*
G01*
X116745999Y-79427999D01*
G75*
G02*
X116495999Y-79177999I0J250000D01*
G01*
X116495999Y-78677999D01*
G75*
G02*
X116745999Y-78427999I250000J0D01*
G01*
G37*
G36*
G01*
X116745999Y-76527999D02*
X117695999Y-76527999D01*
G75*
G02*
X117945999Y-76777999I0J-250000D01*
G01*
X117945999Y-77277999D01*
G75*
G02*
X117695999Y-77527999I-250000J0D01*
G01*
X116745999Y-77527999D01*
G75*
G02*
X116495999Y-77277999I0J250000D01*
G01*
X116495999Y-76777999D01*
G75*
G02*
X116745999Y-76527999I250000J0D01*
G01*
G37*
%TD*%
%TO.C,C30*%
G36*
G01*
X114205999Y-78427999D02*
X115155999Y-78427999D01*
G75*
G02*
X115405999Y-78677999I0J-250000D01*
G01*
X115405999Y-79177999D01*
G75*
G02*
X115155999Y-79427999I-250000J0D01*
G01*
X114205999Y-79427999D01*
G75*
G02*
X113955999Y-79177999I0J250000D01*
G01*
X113955999Y-78677999D01*
G75*
G02*
X114205999Y-78427999I250000J0D01*
G01*
G37*
G36*
G01*
X114205999Y-76527999D02*
X115155999Y-76527999D01*
G75*
G02*
X115405999Y-76777999I0J-250000D01*
G01*
X115405999Y-77277999D01*
G75*
G02*
X115155999Y-77527999I-250000J0D01*
G01*
X114205999Y-77527999D01*
G75*
G02*
X113955999Y-77277999I0J250000D01*
G01*
X113955999Y-76777999D01*
G75*
G02*
X114205999Y-76527999I250000J0D01*
G01*
G37*
%TD*%
%TO.C,C28*%
G36*
G01*
X106713000Y-78427999D02*
X107663000Y-78427999D01*
G75*
G02*
X107913000Y-78677999I0J-250000D01*
G01*
X107913000Y-79177999D01*
G75*
G02*
X107663000Y-79427999I-250000J0D01*
G01*
X106713000Y-79427999D01*
G75*
G02*
X106463000Y-79177999I0J250000D01*
G01*
X106463000Y-78677999D01*
G75*
G02*
X106713000Y-78427999I250000J0D01*
G01*
G37*
G36*
G01*
X106713000Y-76527999D02*
X107663000Y-76527999D01*
G75*
G02*
X107913000Y-76777999I0J-250000D01*
G01*
X107913000Y-77277999D01*
G75*
G02*
X107663000Y-77527999I-250000J0D01*
G01*
X106713000Y-77527999D01*
G75*
G02*
X106463000Y-77277999I0J250000D01*
G01*
X106463000Y-76777999D01*
G75*
G02*
X106713000Y-76527999I250000J0D01*
G01*
G37*
%TD*%
%TO.C,C26*%
G36*
G01*
X104173000Y-78427999D02*
X105123000Y-78427999D01*
G75*
G02*
X105373000Y-78677999I0J-250000D01*
G01*
X105373000Y-79177999D01*
G75*
G02*
X105123000Y-79427999I-250000J0D01*
G01*
X104173000Y-79427999D01*
G75*
G02*
X103923000Y-79177999I0J250000D01*
G01*
X103923000Y-78677999D01*
G75*
G02*
X104173000Y-78427999I250000J0D01*
G01*
G37*
G36*
G01*
X104173000Y-76527999D02*
X105123000Y-76527999D01*
G75*
G02*
X105373000Y-76777999I0J-250000D01*
G01*
X105373000Y-77277999D01*
G75*
G02*
X105123000Y-77527999I-250000J0D01*
G01*
X104173000Y-77527999D01*
G75*
G02*
X103923000Y-77277999I0J250000D01*
G01*
X103923000Y-76777999D01*
G75*
G02*
X104173000Y-76527999I250000J0D01*
G01*
G37*
%TD*%
%TO.C,C31*%
G36*
G01*
X96680000Y-78427999D02*
X97630000Y-78427999D01*
G75*
G02*
X97880000Y-78677999I0J-250000D01*
G01*
X97880000Y-79177999D01*
G75*
G02*
X97630000Y-79427999I-250000J0D01*
G01*
X96680000Y-79427999D01*
G75*
G02*
X96430000Y-79177999I0J250000D01*
G01*
X96430000Y-78677999D01*
G75*
G02*
X96680000Y-78427999I250000J0D01*
G01*
G37*
G36*
G01*
X96680000Y-76527999D02*
X97630000Y-76527999D01*
G75*
G02*
X97880000Y-76777999I0J-250000D01*
G01*
X97880000Y-77277999D01*
G75*
G02*
X97630000Y-77527999I-250000J0D01*
G01*
X96680000Y-77527999D01*
G75*
G02*
X96430000Y-77277999I0J250000D01*
G01*
X96430000Y-76777999D01*
G75*
G02*
X96680000Y-76527999I250000J0D01*
G01*
G37*
%TD*%
%TO.C,C29*%
G36*
G01*
X94140000Y-78427999D02*
X95090000Y-78427999D01*
G75*
G02*
X95340000Y-78677999I0J-250000D01*
G01*
X95340000Y-79177999D01*
G75*
G02*
X95090000Y-79427999I-250000J0D01*
G01*
X94140000Y-79427999D01*
G75*
G02*
X93890000Y-79177999I0J250000D01*
G01*
X93890000Y-78677999D01*
G75*
G02*
X94140000Y-78427999I250000J0D01*
G01*
G37*
G36*
G01*
X94140000Y-76527999D02*
X95090000Y-76527999D01*
G75*
G02*
X95340000Y-76777999I0J-250000D01*
G01*
X95340000Y-77277999D01*
G75*
G02*
X95090000Y-77527999I-250000J0D01*
G01*
X94140000Y-77527999D01*
G75*
G02*
X93890000Y-77277999I0J250000D01*
G01*
X93890000Y-76777999D01*
G75*
G02*
X94140000Y-76527999I250000J0D01*
G01*
G37*
%TD*%
%TO.C,C27*%
G36*
G01*
X86646999Y-78427999D02*
X87596999Y-78427999D01*
G75*
G02*
X87846999Y-78677999I0J-250000D01*
G01*
X87846999Y-79177999D01*
G75*
G02*
X87596999Y-79427999I-250000J0D01*
G01*
X86646999Y-79427999D01*
G75*
G02*
X86396999Y-79177999I0J250000D01*
G01*
X86396999Y-78677999D01*
G75*
G02*
X86646999Y-78427999I250000J0D01*
G01*
G37*
G36*
G01*
X86646999Y-76527999D02*
X87596999Y-76527999D01*
G75*
G02*
X87846999Y-76777999I0J-250000D01*
G01*
X87846999Y-77277999D01*
G75*
G02*
X87596999Y-77527999I-250000J0D01*
G01*
X86646999Y-77527999D01*
G75*
G02*
X86396999Y-77277999I0J250000D01*
G01*
X86396999Y-76777999D01*
G75*
G02*
X86646999Y-76527999I250000J0D01*
G01*
G37*
%TD*%
%TO.C,C25*%
G36*
G01*
X84106999Y-78427999D02*
X85056999Y-78427999D01*
G75*
G02*
X85306999Y-78677999I0J-250000D01*
G01*
X85306999Y-79177999D01*
G75*
G02*
X85056999Y-79427999I-250000J0D01*
G01*
X84106999Y-79427999D01*
G75*
G02*
X83856999Y-79177999I0J250000D01*
G01*
X83856999Y-78677999D01*
G75*
G02*
X84106999Y-78427999I250000J0D01*
G01*
G37*
G36*
G01*
X84106999Y-76527999D02*
X85056999Y-76527999D01*
G75*
G02*
X85306999Y-76777999I0J-250000D01*
G01*
X85306999Y-77277999D01*
G75*
G02*
X85056999Y-77527999I-250000J0D01*
G01*
X84106999Y-77527999D01*
G75*
G02*
X83856999Y-77277999I0J250000D01*
G01*
X83856999Y-76777999D01*
G75*
G02*
X84106999Y-76527999I250000J0D01*
G01*
G37*
%TD*%
%TO.C,C24*%
G36*
G01*
X76614000Y-78427999D02*
X77564000Y-78427999D01*
G75*
G02*
X77814000Y-78677999I0J-250000D01*
G01*
X77814000Y-79177999D01*
G75*
G02*
X77564000Y-79427999I-250000J0D01*
G01*
X76614000Y-79427999D01*
G75*
G02*
X76364000Y-79177999I0J250000D01*
G01*
X76364000Y-78677999D01*
G75*
G02*
X76614000Y-78427999I250000J0D01*
G01*
G37*
G36*
G01*
X76614000Y-76527999D02*
X77564000Y-76527999D01*
G75*
G02*
X77814000Y-76777999I0J-250000D01*
G01*
X77814000Y-77277999D01*
G75*
G02*
X77564000Y-77527999I-250000J0D01*
G01*
X76614000Y-77527999D01*
G75*
G02*
X76364000Y-77277999I0J250000D01*
G01*
X76364000Y-76777999D01*
G75*
G02*
X76614000Y-76527999I250000J0D01*
G01*
G37*
%TD*%
%TO.C,C22*%
G36*
G01*
X74074000Y-78427999D02*
X75024000Y-78427999D01*
G75*
G02*
X75274000Y-78677999I0J-250000D01*
G01*
X75274000Y-79177999D01*
G75*
G02*
X75024000Y-79427999I-250000J0D01*
G01*
X74074000Y-79427999D01*
G75*
G02*
X73824000Y-79177999I0J250000D01*
G01*
X73824000Y-78677999D01*
G75*
G02*
X74074000Y-78427999I250000J0D01*
G01*
G37*
G36*
G01*
X74074000Y-76527999D02*
X75024000Y-76527999D01*
G75*
G02*
X75274000Y-76777999I0J-250000D01*
G01*
X75274000Y-77277999D01*
G75*
G02*
X75024000Y-77527999I-250000J0D01*
G01*
X74074000Y-77527999D01*
G75*
G02*
X73824000Y-77277999I0J250000D01*
G01*
X73824000Y-76777999D01*
G75*
G02*
X74074000Y-76527999I250000J0D01*
G01*
G37*
%TD*%
%TO.C,C20*%
G36*
G01*
X66580999Y-78427999D02*
X67530999Y-78427999D01*
G75*
G02*
X67780999Y-78677999I0J-250000D01*
G01*
X67780999Y-79177999D01*
G75*
G02*
X67530999Y-79427999I-250000J0D01*
G01*
X66580999Y-79427999D01*
G75*
G02*
X66330999Y-79177999I0J250000D01*
G01*
X66330999Y-78677999D01*
G75*
G02*
X66580999Y-78427999I250000J0D01*
G01*
G37*
G36*
G01*
X66580999Y-76527999D02*
X67530999Y-76527999D01*
G75*
G02*
X67780999Y-76777999I0J-250000D01*
G01*
X67780999Y-77277999D01*
G75*
G02*
X67530999Y-77527999I-250000J0D01*
G01*
X66580999Y-77527999D01*
G75*
G02*
X66330999Y-77277999I0J250000D01*
G01*
X66330999Y-76777999D01*
G75*
G02*
X66580999Y-76527999I250000J0D01*
G01*
G37*
%TD*%
%TO.C,C18*%
G36*
G01*
X64040999Y-78427999D02*
X64990999Y-78427999D01*
G75*
G02*
X65240999Y-78677999I0J-250000D01*
G01*
X65240999Y-79177999D01*
G75*
G02*
X64990999Y-79427999I-250000J0D01*
G01*
X64040999Y-79427999D01*
G75*
G02*
X63790999Y-79177999I0J250000D01*
G01*
X63790999Y-78677999D01*
G75*
G02*
X64040999Y-78427999I250000J0D01*
G01*
G37*
G36*
G01*
X64040999Y-76527999D02*
X64990999Y-76527999D01*
G75*
G02*
X65240999Y-76777999I0J-250000D01*
G01*
X65240999Y-77277999D01*
G75*
G02*
X64990999Y-77527999I-250000J0D01*
G01*
X64040999Y-77527999D01*
G75*
G02*
X63790999Y-77277999I0J250000D01*
G01*
X63790999Y-76777999D01*
G75*
G02*
X64040999Y-76527999I250000J0D01*
G01*
G37*
%TD*%
%TO.C,C23*%
G36*
G01*
X56547999Y-78427999D02*
X57497999Y-78427999D01*
G75*
G02*
X57747999Y-78677999I0J-250000D01*
G01*
X57747999Y-79177999D01*
G75*
G02*
X57497999Y-79427999I-250000J0D01*
G01*
X56547999Y-79427999D01*
G75*
G02*
X56297999Y-79177999I0J250000D01*
G01*
X56297999Y-78677999D01*
G75*
G02*
X56547999Y-78427999I250000J0D01*
G01*
G37*
G36*
G01*
X56547999Y-76527999D02*
X57497999Y-76527999D01*
G75*
G02*
X57747999Y-76777999I0J-250000D01*
G01*
X57747999Y-77277999D01*
G75*
G02*
X57497999Y-77527999I-250000J0D01*
G01*
X56547999Y-77527999D01*
G75*
G02*
X56297999Y-77277999I0J250000D01*
G01*
X56297999Y-76777999D01*
G75*
G02*
X56547999Y-76527999I250000J0D01*
G01*
G37*
%TD*%
%TO.C,C21*%
G36*
G01*
X54007999Y-78427999D02*
X54957999Y-78427999D01*
G75*
G02*
X55207999Y-78677999I0J-250000D01*
G01*
X55207999Y-79177999D01*
G75*
G02*
X54957999Y-79427999I-250000J0D01*
G01*
X54007999Y-79427999D01*
G75*
G02*
X53757999Y-79177999I0J250000D01*
G01*
X53757999Y-78677999D01*
G75*
G02*
X54007999Y-78427999I250000J0D01*
G01*
G37*
G36*
G01*
X54007999Y-76527999D02*
X54957999Y-76527999D01*
G75*
G02*
X55207999Y-76777999I0J-250000D01*
G01*
X55207999Y-77277999D01*
G75*
G02*
X54957999Y-77527999I-250000J0D01*
G01*
X54007999Y-77527999D01*
G75*
G02*
X53757999Y-77277999I0J250000D01*
G01*
X53757999Y-76777999D01*
G75*
G02*
X54007999Y-76527999I250000J0D01*
G01*
G37*
%TD*%
%TO.C,C19*%
G36*
G01*
X46515000Y-78427999D02*
X47465000Y-78427999D01*
G75*
G02*
X47715000Y-78677999I0J-250000D01*
G01*
X47715000Y-79177999D01*
G75*
G02*
X47465000Y-79427999I-250000J0D01*
G01*
X46515000Y-79427999D01*
G75*
G02*
X46265000Y-79177999I0J250000D01*
G01*
X46265000Y-78677999D01*
G75*
G02*
X46515000Y-78427999I250000J0D01*
G01*
G37*
G36*
G01*
X46515000Y-76527999D02*
X47465000Y-76527999D01*
G75*
G02*
X47715000Y-76777999I0J-250000D01*
G01*
X47715000Y-77277999D01*
G75*
G02*
X47465000Y-77527999I-250000J0D01*
G01*
X46515000Y-77527999D01*
G75*
G02*
X46265000Y-77277999I0J250000D01*
G01*
X46265000Y-76777999D01*
G75*
G02*
X46515000Y-76527999I250000J0D01*
G01*
G37*
%TD*%
%TO.C,C17*%
G36*
G01*
X43975000Y-78427999D02*
X44925000Y-78427999D01*
G75*
G02*
X45175000Y-78677999I0J-250000D01*
G01*
X45175000Y-79177999D01*
G75*
G02*
X44925000Y-79427999I-250000J0D01*
G01*
X43975000Y-79427999D01*
G75*
G02*
X43725000Y-79177999I0J250000D01*
G01*
X43725000Y-78677999D01*
G75*
G02*
X43975000Y-78427999I250000J0D01*
G01*
G37*
G36*
G01*
X43975000Y-76527999D02*
X44925000Y-76527999D01*
G75*
G02*
X45175000Y-76777999I0J-250000D01*
G01*
X45175000Y-77277999D01*
G75*
G02*
X44925000Y-77527999I-250000J0D01*
G01*
X43975000Y-77527999D01*
G75*
G02*
X43725000Y-77277999I0J250000D01*
G01*
X43725000Y-76777999D01*
G75*
G02*
X43975000Y-76527999I250000J0D01*
G01*
G37*
%TD*%
%TO.C,C16*%
G36*
G01*
X116745999Y-58362000D02*
X117695999Y-58362000D01*
G75*
G02*
X117945999Y-58612000I0J-250000D01*
G01*
X117945999Y-59112000D01*
G75*
G02*
X117695999Y-59362000I-250000J0D01*
G01*
X116745999Y-59362000D01*
G75*
G02*
X116495999Y-59112000I0J250000D01*
G01*
X116495999Y-58612000D01*
G75*
G02*
X116745999Y-58362000I250000J0D01*
G01*
G37*
G36*
G01*
X116745999Y-56462000D02*
X117695999Y-56462000D01*
G75*
G02*
X117945999Y-56712000I0J-250000D01*
G01*
X117945999Y-57212000D01*
G75*
G02*
X117695999Y-57462000I-250000J0D01*
G01*
X116745999Y-57462000D01*
G75*
G02*
X116495999Y-57212000I0J250000D01*
G01*
X116495999Y-56712000D01*
G75*
G02*
X116745999Y-56462000I250000J0D01*
G01*
G37*
%TD*%
%TO.C,C14*%
G36*
G01*
X114205999Y-58362000D02*
X115155999Y-58362000D01*
G75*
G02*
X115405999Y-58612000I0J-250000D01*
G01*
X115405999Y-59112000D01*
G75*
G02*
X115155999Y-59362000I-250000J0D01*
G01*
X114205999Y-59362000D01*
G75*
G02*
X113955999Y-59112000I0J250000D01*
G01*
X113955999Y-58612000D01*
G75*
G02*
X114205999Y-58362000I250000J0D01*
G01*
G37*
G36*
G01*
X114205999Y-56462000D02*
X115155999Y-56462000D01*
G75*
G02*
X115405999Y-56712000I0J-250000D01*
G01*
X115405999Y-57212000D01*
G75*
G02*
X115155999Y-57462000I-250000J0D01*
G01*
X114205999Y-57462000D01*
G75*
G02*
X113955999Y-57212000I0J250000D01*
G01*
X113955999Y-56712000D01*
G75*
G02*
X114205999Y-56462000I250000J0D01*
G01*
G37*
%TD*%
%TO.C,C12*%
G36*
G01*
X106713000Y-58362000D02*
X107663000Y-58362000D01*
G75*
G02*
X107913000Y-58612000I0J-250000D01*
G01*
X107913000Y-59112000D01*
G75*
G02*
X107663000Y-59362000I-250000J0D01*
G01*
X106713000Y-59362000D01*
G75*
G02*
X106463000Y-59112000I0J250000D01*
G01*
X106463000Y-58612000D01*
G75*
G02*
X106713000Y-58362000I250000J0D01*
G01*
G37*
G36*
G01*
X106713000Y-56462000D02*
X107663000Y-56462000D01*
G75*
G02*
X107913000Y-56712000I0J-250000D01*
G01*
X107913000Y-57212000D01*
G75*
G02*
X107663000Y-57462000I-250000J0D01*
G01*
X106713000Y-57462000D01*
G75*
G02*
X106463000Y-57212000I0J250000D01*
G01*
X106463000Y-56712000D01*
G75*
G02*
X106713000Y-56462000I250000J0D01*
G01*
G37*
%TD*%
%TO.C,C10*%
G36*
G01*
X104173000Y-58362000D02*
X105123000Y-58362000D01*
G75*
G02*
X105373000Y-58612000I0J-250000D01*
G01*
X105373000Y-59112000D01*
G75*
G02*
X105123000Y-59362000I-250000J0D01*
G01*
X104173000Y-59362000D01*
G75*
G02*
X103923000Y-59112000I0J250000D01*
G01*
X103923000Y-58612000D01*
G75*
G02*
X104173000Y-58362000I250000J0D01*
G01*
G37*
G36*
G01*
X104173000Y-56462000D02*
X105123000Y-56462000D01*
G75*
G02*
X105373000Y-56712000I0J-250000D01*
G01*
X105373000Y-57212000D01*
G75*
G02*
X105123000Y-57462000I-250000J0D01*
G01*
X104173000Y-57462000D01*
G75*
G02*
X103923000Y-57212000I0J250000D01*
G01*
X103923000Y-56712000D01*
G75*
G02*
X104173000Y-56462000I250000J0D01*
G01*
G37*
%TD*%
%TO.C,C15*%
G36*
G01*
X96680000Y-58362000D02*
X97630000Y-58362000D01*
G75*
G02*
X97880000Y-58612000I0J-250000D01*
G01*
X97880000Y-59112000D01*
G75*
G02*
X97630000Y-59362000I-250000J0D01*
G01*
X96680000Y-59362000D01*
G75*
G02*
X96430000Y-59112000I0J250000D01*
G01*
X96430000Y-58612000D01*
G75*
G02*
X96680000Y-58362000I250000J0D01*
G01*
G37*
G36*
G01*
X96680000Y-56462000D02*
X97630000Y-56462000D01*
G75*
G02*
X97880000Y-56712000I0J-250000D01*
G01*
X97880000Y-57212000D01*
G75*
G02*
X97630000Y-57462000I-250000J0D01*
G01*
X96680000Y-57462000D01*
G75*
G02*
X96430000Y-57212000I0J250000D01*
G01*
X96430000Y-56712000D01*
G75*
G02*
X96680000Y-56462000I250000J0D01*
G01*
G37*
%TD*%
%TO.C,C13*%
G36*
G01*
X94140000Y-58362000D02*
X95090000Y-58362000D01*
G75*
G02*
X95340000Y-58612000I0J-250000D01*
G01*
X95340000Y-59112000D01*
G75*
G02*
X95090000Y-59362000I-250000J0D01*
G01*
X94140000Y-59362000D01*
G75*
G02*
X93890000Y-59112000I0J250000D01*
G01*
X93890000Y-58612000D01*
G75*
G02*
X94140000Y-58362000I250000J0D01*
G01*
G37*
G36*
G01*
X94140000Y-56462000D02*
X95090000Y-56462000D01*
G75*
G02*
X95340000Y-56712000I0J-250000D01*
G01*
X95340000Y-57212000D01*
G75*
G02*
X95090000Y-57462000I-250000J0D01*
G01*
X94140000Y-57462000D01*
G75*
G02*
X93890000Y-57212000I0J250000D01*
G01*
X93890000Y-56712000D01*
G75*
G02*
X94140000Y-56462000I250000J0D01*
G01*
G37*
%TD*%
%TO.C,C11*%
G36*
G01*
X86646999Y-58362000D02*
X87596999Y-58362000D01*
G75*
G02*
X87846999Y-58612000I0J-250000D01*
G01*
X87846999Y-59112000D01*
G75*
G02*
X87596999Y-59362000I-250000J0D01*
G01*
X86646999Y-59362000D01*
G75*
G02*
X86396999Y-59112000I0J250000D01*
G01*
X86396999Y-58612000D01*
G75*
G02*
X86646999Y-58362000I250000J0D01*
G01*
G37*
G36*
G01*
X86646999Y-56462000D02*
X87596999Y-56462000D01*
G75*
G02*
X87846999Y-56712000I0J-250000D01*
G01*
X87846999Y-57212000D01*
G75*
G02*
X87596999Y-57462000I-250000J0D01*
G01*
X86646999Y-57462000D01*
G75*
G02*
X86396999Y-57212000I0J250000D01*
G01*
X86396999Y-56712000D01*
G75*
G02*
X86646999Y-56462000I250000J0D01*
G01*
G37*
%TD*%
%TO.C,C9*%
G36*
G01*
X84106999Y-58362000D02*
X85056999Y-58362000D01*
G75*
G02*
X85306999Y-58612000I0J-250000D01*
G01*
X85306999Y-59112000D01*
G75*
G02*
X85056999Y-59362000I-250000J0D01*
G01*
X84106999Y-59362000D01*
G75*
G02*
X83856999Y-59112000I0J250000D01*
G01*
X83856999Y-58612000D01*
G75*
G02*
X84106999Y-58362000I250000J0D01*
G01*
G37*
G36*
G01*
X84106999Y-56462000D02*
X85056999Y-56462000D01*
G75*
G02*
X85306999Y-56712000I0J-250000D01*
G01*
X85306999Y-57212000D01*
G75*
G02*
X85056999Y-57462000I-250000J0D01*
G01*
X84106999Y-57462000D01*
G75*
G02*
X83856999Y-57212000I0J250000D01*
G01*
X83856999Y-56712000D01*
G75*
G02*
X84106999Y-56462000I250000J0D01*
G01*
G37*
%TD*%
%TO.C,C8*%
G36*
G01*
X76614000Y-58362000D02*
X77564000Y-58362000D01*
G75*
G02*
X77814000Y-58612000I0J-250000D01*
G01*
X77814000Y-59112000D01*
G75*
G02*
X77564000Y-59362000I-250000J0D01*
G01*
X76614000Y-59362000D01*
G75*
G02*
X76364000Y-59112000I0J250000D01*
G01*
X76364000Y-58612000D01*
G75*
G02*
X76614000Y-58362000I250000J0D01*
G01*
G37*
G36*
G01*
X76614000Y-56462000D02*
X77564000Y-56462000D01*
G75*
G02*
X77814000Y-56712000I0J-250000D01*
G01*
X77814000Y-57212000D01*
G75*
G02*
X77564000Y-57462000I-250000J0D01*
G01*
X76614000Y-57462000D01*
G75*
G02*
X76364000Y-57212000I0J250000D01*
G01*
X76364000Y-56712000D01*
G75*
G02*
X76614000Y-56462000I250000J0D01*
G01*
G37*
%TD*%
%TO.C,C6*%
G36*
G01*
X74074000Y-58362000D02*
X75024000Y-58362000D01*
G75*
G02*
X75274000Y-58612000I0J-250000D01*
G01*
X75274000Y-59112000D01*
G75*
G02*
X75024000Y-59362000I-250000J0D01*
G01*
X74074000Y-59362000D01*
G75*
G02*
X73824000Y-59112000I0J250000D01*
G01*
X73824000Y-58612000D01*
G75*
G02*
X74074000Y-58362000I250000J0D01*
G01*
G37*
G36*
G01*
X74074000Y-56462000D02*
X75024000Y-56462000D01*
G75*
G02*
X75274000Y-56712000I0J-250000D01*
G01*
X75274000Y-57212000D01*
G75*
G02*
X75024000Y-57462000I-250000J0D01*
G01*
X74074000Y-57462000D01*
G75*
G02*
X73824000Y-57212000I0J250000D01*
G01*
X73824000Y-56712000D01*
G75*
G02*
X74074000Y-56462000I250000J0D01*
G01*
G37*
%TD*%
%TO.C,C4*%
G36*
G01*
X66580999Y-58362000D02*
X67530999Y-58362000D01*
G75*
G02*
X67780999Y-58612000I0J-250000D01*
G01*
X67780999Y-59112000D01*
G75*
G02*
X67530999Y-59362000I-250000J0D01*
G01*
X66580999Y-59362000D01*
G75*
G02*
X66330999Y-59112000I0J250000D01*
G01*
X66330999Y-58612000D01*
G75*
G02*
X66580999Y-58362000I250000J0D01*
G01*
G37*
G36*
G01*
X66580999Y-56462000D02*
X67530999Y-56462000D01*
G75*
G02*
X67780999Y-56712000I0J-250000D01*
G01*
X67780999Y-57212000D01*
G75*
G02*
X67530999Y-57462000I-250000J0D01*
G01*
X66580999Y-57462000D01*
G75*
G02*
X66330999Y-57212000I0J250000D01*
G01*
X66330999Y-56712000D01*
G75*
G02*
X66580999Y-56462000I250000J0D01*
G01*
G37*
%TD*%
%TO.C,C2*%
G36*
G01*
X64040999Y-58362000D02*
X64990999Y-58362000D01*
G75*
G02*
X65240999Y-58612000I0J-250000D01*
G01*
X65240999Y-59112000D01*
G75*
G02*
X64990999Y-59362000I-250000J0D01*
G01*
X64040999Y-59362000D01*
G75*
G02*
X63790999Y-59112000I0J250000D01*
G01*
X63790999Y-58612000D01*
G75*
G02*
X64040999Y-58362000I250000J0D01*
G01*
G37*
G36*
G01*
X64040999Y-56462000D02*
X64990999Y-56462000D01*
G75*
G02*
X65240999Y-56712000I0J-250000D01*
G01*
X65240999Y-57212000D01*
G75*
G02*
X64990999Y-57462000I-250000J0D01*
G01*
X64040999Y-57462000D01*
G75*
G02*
X63790999Y-57212000I0J250000D01*
G01*
X63790999Y-56712000D01*
G75*
G02*
X64040999Y-56462000I250000J0D01*
G01*
G37*
%TD*%
%TO.C,C7*%
G36*
G01*
X56547999Y-58362000D02*
X57497999Y-58362000D01*
G75*
G02*
X57747999Y-58612000I0J-250000D01*
G01*
X57747999Y-59112000D01*
G75*
G02*
X57497999Y-59362000I-250000J0D01*
G01*
X56547999Y-59362000D01*
G75*
G02*
X56297999Y-59112000I0J250000D01*
G01*
X56297999Y-58612000D01*
G75*
G02*
X56547999Y-58362000I250000J0D01*
G01*
G37*
G36*
G01*
X56547999Y-56462000D02*
X57497999Y-56462000D01*
G75*
G02*
X57747999Y-56712000I0J-250000D01*
G01*
X57747999Y-57212000D01*
G75*
G02*
X57497999Y-57462000I-250000J0D01*
G01*
X56547999Y-57462000D01*
G75*
G02*
X56297999Y-57212000I0J250000D01*
G01*
X56297999Y-56712000D01*
G75*
G02*
X56547999Y-56462000I250000J0D01*
G01*
G37*
%TD*%
%TO.C,C5*%
G36*
G01*
X54007999Y-58362000D02*
X54957999Y-58362000D01*
G75*
G02*
X55207999Y-58612000I0J-250000D01*
G01*
X55207999Y-59112000D01*
G75*
G02*
X54957999Y-59362000I-250000J0D01*
G01*
X54007999Y-59362000D01*
G75*
G02*
X53757999Y-59112000I0J250000D01*
G01*
X53757999Y-58612000D01*
G75*
G02*
X54007999Y-58362000I250000J0D01*
G01*
G37*
G36*
G01*
X54007999Y-56462000D02*
X54957999Y-56462000D01*
G75*
G02*
X55207999Y-56712000I0J-250000D01*
G01*
X55207999Y-57212000D01*
G75*
G02*
X54957999Y-57462000I-250000J0D01*
G01*
X54007999Y-57462000D01*
G75*
G02*
X53757999Y-57212000I0J250000D01*
G01*
X53757999Y-56712000D01*
G75*
G02*
X54007999Y-56462000I250000J0D01*
G01*
G37*
%TD*%
%TO.C,C3*%
G36*
G01*
X46515000Y-58362000D02*
X47465000Y-58362000D01*
G75*
G02*
X47715000Y-58612000I0J-250000D01*
G01*
X47715000Y-59112000D01*
G75*
G02*
X47465000Y-59362000I-250000J0D01*
G01*
X46515000Y-59362000D01*
G75*
G02*
X46265000Y-59112000I0J250000D01*
G01*
X46265000Y-58612000D01*
G75*
G02*
X46515000Y-58362000I250000J0D01*
G01*
G37*
G36*
G01*
X46515000Y-56462000D02*
X47465000Y-56462000D01*
G75*
G02*
X47715000Y-56712000I0J-250000D01*
G01*
X47715000Y-57212000D01*
G75*
G02*
X47465000Y-57462000I-250000J0D01*
G01*
X46515000Y-57462000D01*
G75*
G02*
X46265000Y-57212000I0J250000D01*
G01*
X46265000Y-56712000D01*
G75*
G02*
X46515000Y-56462000I250000J0D01*
G01*
G37*
%TD*%
%TO.C,C1*%
G36*
G01*
X43975000Y-58362000D02*
X44925000Y-58362000D01*
G75*
G02*
X45175000Y-58612000I0J-250000D01*
G01*
X45175000Y-59112000D01*
G75*
G02*
X44925000Y-59362000I-250000J0D01*
G01*
X43975000Y-59362000D01*
G75*
G02*
X43725000Y-59112000I0J250000D01*
G01*
X43725000Y-58612000D01*
G75*
G02*
X43975000Y-58362000I250000J0D01*
G01*
G37*
G36*
G01*
X43975000Y-56462000D02*
X44925000Y-56462000D01*
G75*
G02*
X45175000Y-56712000I0J-250000D01*
G01*
X45175000Y-57212000D01*
G75*
G02*
X44925000Y-57462000I-250000J0D01*
G01*
X43975000Y-57462000D01*
G75*
G02*
X43725000Y-57212000I0J250000D01*
G01*
X43725000Y-56712000D01*
G75*
G02*
X43975000Y-56462000I250000J0D01*
G01*
G37*
%TD*%
D24*
%TO.C,*%
X37592000Y-49574000D03*
%TD*%
%TO.C,*%
X37592000Y-141776000D03*
%TD*%
%TO.C,*%
X124968000Y-49574000D03*
%TD*%
%TO.C,*%
X124968000Y-141776000D03*
%TD*%
%TO.C,*%
X173228000Y-141776000D03*
%TD*%
%TO.C,*%
X185166000Y-49574000D03*
%TD*%
M02*
