M48
; DRILL file {KiCad (5.1.7)-1} date 11/18/20 10:27:57
; FORMAT={-:-/ absolute / metric / decimal}
; #@! TF.CreationDate,2020-11-18T10:27:57+01:00
; #@! TF.GenerationSoftware,Kicad,Pcbnew,(5.1.7)-1
; #@! TF.FileFunction,Plated,1,2,PTH
FMAT,2
METRIC
T1C0.400
T2C0.740
T3C0.800
T4C1.000
%
G90
G05
T1
X49.403Y-83.229
X49.53Y-67.31
X49.657Y-122.345
X49.911Y-87.039
X49.911Y-99.739
X49.911Y-107.105
X49.911Y-127.171
X59.69Y-67.31
X59.69Y-107.442
X59.817Y-87.039
X59.817Y-127.171
X69.596Y-67.31
X69.85Y-107.442
X69.977Y-87.039
X69.977Y-127.171
X79.756Y-67.31
X79.756Y-127.508
X79.883Y-87.039
X79.883Y-107.105
X89.789Y-66.973
X90.043Y-87.039
X90.043Y-107.105
X90.043Y-127.171
X99.695Y-66.973
X99.822Y-127.508
X99.949Y-87.039
X99.949Y-107.105
X109.728Y-127.508
X109.855Y-66.973
X109.855Y-87.039
X110.109Y-107.105
X120.142Y-67.31
X120.142Y-87.376
X120.142Y-127.508
X120.396Y-107.442
X147.574Y-126.028
X149.098Y-133.902
X150.368Y-126.028
T2
X155.702Y-129.076
X155.702Y-131.616
X155.702Y-134.156
T3
X137.851Y-133.013
X141.351Y-133.013
T4
X83.352Y-131.318
X88.352Y-131.318
X113.451Y-131.318
X118.451Y-131.318
X103.418Y-101.219
X108.418Y-101.219
X43.22Y-101.219
X48.22Y-101.219
X93.385Y-61.087
X98.385Y-61.087
X53.253Y-61.087
X58.253Y-61.087
X83.352Y-61.087
X88.352Y-61.087
X113.451Y-81.153
X118.451Y-81.153
X83.352Y-91.186
X88.352Y-91.186
X53.253Y-81.153
X58.253Y-81.153
X73.319Y-131.318
X78.319Y-131.318
X43.22Y-131.318
X48.22Y-131.318
X113.451Y-111.252
X118.451Y-111.252
X53.253Y-111.252
X58.253Y-111.252
X132.207Y-129.965
X132.207Y-132.505
X132.207Y-135.045
X113.451Y-101.219
X118.451Y-101.219
X43.22Y-61.087
X48.22Y-61.087
X63.286Y-61.087
X68.286Y-61.087
X53.253Y-71.12
X58.253Y-71.12
X93.385Y-71.12
X98.385Y-71.12
X93.385Y-81.153
X98.385Y-81.153
X63.286Y-81.153
X68.286Y-81.153
X93.385Y-131.318
X98.385Y-131.318
X93.385Y-121.285
X98.385Y-121.285
X103.418Y-121.285
X108.418Y-121.285
X103.418Y-111.252
X108.418Y-111.252
X93.385Y-91.186
X98.385Y-91.186
X53.253Y-101.219
X58.253Y-101.219
X113.451Y-61.087
X118.451Y-61.087
X63.286Y-71.12
X68.286Y-71.12
X43.22Y-81.153
X48.22Y-81.153
X103.418Y-81.153
X108.418Y-81.153
X191.008Y-43.688
X191.008Y-46.228
X191.008Y-48.768
X191.008Y-51.308
X191.008Y-53.848
X191.008Y-56.388
X191.008Y-58.928
X191.008Y-61.468
X191.008Y-64.008
X191.008Y-66.548
X191.008Y-69.088
X191.008Y-71.628
X191.008Y-74.168
X191.008Y-76.708
X191.008Y-79.248
X191.008Y-81.788
X191.008Y-84.328
X191.008Y-86.868
X191.008Y-89.408
X191.008Y-91.948
X193.548Y-43.688
X193.548Y-46.228
X193.548Y-48.768
X193.548Y-51.308
X193.548Y-53.848
X193.548Y-56.388
X193.548Y-58.928
X193.548Y-61.468
X193.548Y-64.008
X193.548Y-66.548
X193.548Y-69.088
X193.548Y-71.628
X193.548Y-74.168
X193.548Y-76.708
X193.548Y-79.248
X193.548Y-81.788
X193.548Y-84.328
X193.548Y-86.868
X193.548Y-89.408
X193.548Y-91.948
X63.286Y-131.318
X68.286Y-131.318
X83.352Y-121.285
X88.352Y-121.285
X83.352Y-111.252
X88.352Y-111.252
X103.418Y-91.186
X108.418Y-91.186
X93.385Y-101.219
X98.385Y-101.219
X73.319Y-81.153
X78.319Y-81.153
X53.253Y-91.186
X58.253Y-91.186
X43.22Y-121.285
X48.22Y-121.285
X103.418Y-131.318
X108.418Y-131.318
X113.451Y-121.285
X118.451Y-121.285
X63.286Y-111.252
X68.286Y-111.252
X113.451Y-91.186
X118.451Y-91.186
X63.286Y-101.219
X68.286Y-101.219
X43.22Y-71.12
X48.22Y-71.12
X103.418Y-71.12
X108.418Y-71.12
X73.319Y-91.186
X78.319Y-91.186
X63.286Y-121.285
X68.286Y-121.285
X53.253Y-121.285
X58.253Y-121.285
X43.22Y-111.252
X48.22Y-111.252
X83.352Y-101.219
X88.352Y-101.219
X73.319Y-101.219
X78.319Y-101.219
X63.286Y-91.186
X68.286Y-91.186
X113.451Y-71.12
X118.451Y-71.12
X73.319Y-71.12
X78.319Y-71.12
X73.319Y-121.285
X78.319Y-121.285
X53.253Y-131.318
X58.253Y-131.318
X93.385Y-111.252
X98.385Y-111.252
X73.319Y-111.252
X78.319Y-111.252
X191.008Y-95.758
X191.008Y-98.298
X191.008Y-100.838
X191.008Y-103.378
X191.008Y-105.918
X191.008Y-108.458
X191.008Y-110.998
X191.008Y-113.538
X191.008Y-116.078
X191.008Y-118.618
X191.008Y-121.158
X191.008Y-123.698
X191.008Y-126.238
X191.008Y-128.778
X191.008Y-131.318
X191.008Y-133.858
X191.008Y-136.398
X191.008Y-138.938
X191.008Y-141.478
X191.008Y-144.018
X193.548Y-95.758
X193.548Y-98.298
X193.548Y-100.838
X193.548Y-103.378
X193.548Y-105.918
X193.548Y-108.458
X193.548Y-110.998
X193.548Y-113.538
X193.548Y-116.078
X193.548Y-118.618
X193.548Y-121.158
X193.548Y-123.698
X193.548Y-126.238
X193.548Y-128.778
X193.548Y-131.318
X193.548Y-133.858
X193.548Y-136.398
X193.548Y-138.938
X193.548Y-141.478
X193.548Y-144.018
X103.418Y-61.087
X108.418Y-61.087
X73.319Y-61.087
X78.319Y-61.087
X83.352Y-71.12
X88.352Y-71.12
X43.22Y-91.186
X48.22Y-91.186
X83.352Y-81.153
X88.352Y-81.153
T4
G00X180.356Y-132.632
M15
G01X182.356Y-132.632
M16
G05
G00X180.356Y-138.632
M15
G01X182.356Y-138.632
M16
G05
G00X186.056Y-136.632
M15
G01X186.056Y-134.632
M16
G05
T0
M30
