%FSLAX45Y45*%
G04 Gerber Fmt 4.5, Leading zero omitted, Abs format (unit mm)*
G04 Created by KiCad (PCBNEW (5.1.7)-1) date 2020-11-18 10:27:59*
%MOMM*%
%LPD*%
G01*
G04 APERTURE LIST*
%TA.AperFunction,Profile*%
%ADD10C,0.050000*%
%TD*%
%ADD11C,0.200000*%
%ADD12C,0.300000*%
G04 APERTURE END LIST*
D10*
X3327400Y-3992200D02*
X3327400Y-4017600D01*
X19583400Y-3992200D02*
X3327400Y-3992200D01*
X19608800Y-14634800D02*
X19583400Y-3992200D01*
X3327400Y-14634800D02*
X19608800Y-14634800D01*
X3327400Y-4017600D02*
X3327400Y-14634800D01*
D11*
X4920300Y-8302900D02*
X4960300Y-8342900D01*
X4960300Y-8302900D02*
X4920300Y-8342900D01*
X4933000Y-6711000D02*
X4973000Y-6751000D01*
X4973000Y-6711000D02*
X4933000Y-6751000D01*
X4945700Y-12214500D02*
X4985700Y-12254500D01*
X4985700Y-12214500D02*
X4945700Y-12254500D01*
X4971100Y-8683900D02*
X5011100Y-8723900D01*
X5011100Y-8683900D02*
X4971100Y-8723900D01*
X4971100Y-9953900D02*
X5011100Y-9993900D01*
X5011100Y-9953900D02*
X4971100Y-9993900D01*
X4971100Y-10690500D02*
X5011100Y-10730500D01*
X5011100Y-10690500D02*
X4971100Y-10730500D01*
X4971100Y-12697100D02*
X5011100Y-12737100D01*
X5011100Y-12697100D02*
X4971100Y-12737100D01*
X5949000Y-6711000D02*
X5989000Y-6751000D01*
X5989000Y-6711000D02*
X5949000Y-6751000D01*
X5949000Y-10724200D02*
X5989000Y-10764200D01*
X5989000Y-10724200D02*
X5949000Y-10764200D01*
X5961700Y-8683900D02*
X6001700Y-8723900D01*
X6001700Y-8683900D02*
X5961700Y-8723900D01*
X5961700Y-12697100D02*
X6001700Y-12737100D01*
X6001700Y-12697100D02*
X5961700Y-12737100D01*
X6939600Y-6711000D02*
X6979600Y-6751000D01*
X6979600Y-6711000D02*
X6939600Y-6751000D01*
X6965000Y-10724200D02*
X7005000Y-10764200D01*
X7005000Y-10724200D02*
X6965000Y-10764200D01*
X6977700Y-8683900D02*
X7017700Y-8723900D01*
X7017700Y-8683900D02*
X6977700Y-8723900D01*
X6977700Y-12697100D02*
X7017700Y-12737100D01*
X7017700Y-12697100D02*
X6977700Y-12737100D01*
X7955600Y-6711000D02*
X7995600Y-6751000D01*
X7995600Y-6711000D02*
X7955600Y-6751000D01*
X7955600Y-12730800D02*
X7995600Y-12770800D01*
X7995600Y-12730800D02*
X7955600Y-12770800D01*
X7968300Y-8683900D02*
X8008300Y-8723900D01*
X8008300Y-8683900D02*
X7968300Y-8723900D01*
X7968300Y-10690500D02*
X8008300Y-10730500D01*
X8008300Y-10690500D02*
X7968300Y-10730500D01*
X8958900Y-6677300D02*
X8998900Y-6717300D01*
X8998900Y-6677300D02*
X8958900Y-6717300D01*
X8984300Y-8683900D02*
X9024300Y-8723900D01*
X9024300Y-8683900D02*
X8984300Y-8723900D01*
X8984300Y-10690500D02*
X9024300Y-10730500D01*
X9024300Y-10690500D02*
X8984300Y-10730500D01*
X8984300Y-12697100D02*
X9024300Y-12737100D01*
X9024300Y-12697100D02*
X8984300Y-12737100D01*
X9949500Y-6677300D02*
X9989500Y-6717300D01*
X9989500Y-6677300D02*
X9949500Y-6717300D01*
X9962200Y-12730800D02*
X10002200Y-12770800D01*
X10002200Y-12730800D02*
X9962200Y-12770800D01*
X9974900Y-8683900D02*
X10014900Y-8723900D01*
X10014900Y-8683900D02*
X9974900Y-8723900D01*
X9974900Y-10690500D02*
X10014900Y-10730500D01*
X10014900Y-10690500D02*
X9974900Y-10730500D01*
X10952800Y-12730800D02*
X10992800Y-12770800D01*
X10992800Y-12730800D02*
X10952800Y-12770800D01*
X10965500Y-6677300D02*
X11005500Y-6717300D01*
X11005500Y-6677300D02*
X10965500Y-6717300D01*
X10965500Y-8683900D02*
X11005500Y-8723900D01*
X11005500Y-8683900D02*
X10965500Y-8723900D01*
X10990900Y-10690500D02*
X11030900Y-10730500D01*
X11030900Y-10690500D02*
X10990900Y-10730500D01*
X11994200Y-6711000D02*
X12034200Y-6751000D01*
X12034200Y-6711000D02*
X11994200Y-6751000D01*
X11994200Y-8717600D02*
X12034200Y-8757600D01*
X12034200Y-8717600D02*
X11994200Y-8757600D01*
X11994200Y-12730800D02*
X12034200Y-12770800D01*
X12034200Y-12730800D02*
X11994200Y-12770800D01*
X12019600Y-10724200D02*
X12059600Y-10764200D01*
X12059600Y-10724200D02*
X12019600Y-10764200D01*
X14737400Y-12582800D02*
X14777400Y-12622800D01*
X14777400Y-12582800D02*
X14737400Y-12622800D01*
X14889800Y-13370200D02*
X14929800Y-13410200D01*
X14929800Y-13370200D02*
X14889800Y-13410200D01*
X15016800Y-12582800D02*
X15056800Y-12622800D01*
X15056800Y-12582800D02*
X15016800Y-12622800D01*
X15607200Y-12907600D02*
G75*
G03*
X15607200Y-12907600I-37000J0D01*
G01*
X15607200Y-13161600D02*
G75*
G03*
X15607200Y-13161600I-37000J0D01*
G01*
X15607200Y-13415600D02*
G75*
G03*
X15607200Y-13415600I-37000J0D01*
G01*
X13785100Y-13261300D02*
X13785100Y-13341300D01*
X13745100Y-13301300D02*
X13825100Y-13301300D01*
X14135100Y-13261300D02*
X14135100Y-13341300D01*
X14095100Y-13301300D02*
X14175100Y-13301300D01*
X8370556Y-13167156D02*
X8370556Y-13096444D01*
X8299844Y-13096444D01*
X8299844Y-13167156D01*
X8370556Y-13167156D01*
X8870556Y-13167156D02*
X8870556Y-13096444D01*
X8799844Y-13096444D01*
X8799844Y-13167156D01*
X8870556Y-13167156D01*
X11380456Y-13167156D02*
X11380456Y-13096444D01*
X11309744Y-13096444D01*
X11309744Y-13167156D01*
X11380456Y-13167156D01*
X11880456Y-13167156D02*
X11880456Y-13096444D01*
X11809744Y-13096444D01*
X11809744Y-13167156D01*
X11880456Y-13167156D01*
X10377156Y-10157256D02*
X10377156Y-10086544D01*
X10306444Y-10086544D01*
X10306444Y-10157256D01*
X10377156Y-10157256D01*
X10877156Y-10157256D02*
X10877156Y-10086544D01*
X10806444Y-10086544D01*
X10806444Y-10157256D01*
X10877156Y-10157256D01*
X4357356Y-10157256D02*
X4357356Y-10086544D01*
X4286644Y-10086544D01*
X4286644Y-10157256D01*
X4357356Y-10157256D01*
X4857356Y-10157256D02*
X4857356Y-10086544D01*
X4786644Y-10086544D01*
X4786644Y-10157256D01*
X4857356Y-10157256D01*
X9373856Y-6144056D02*
X9373856Y-6073344D01*
X9303144Y-6073344D01*
X9303144Y-6144056D01*
X9373856Y-6144056D01*
X9873856Y-6144056D02*
X9873856Y-6073344D01*
X9803144Y-6073344D01*
X9803144Y-6144056D01*
X9873856Y-6144056D01*
X5360656Y-6144056D02*
X5360656Y-6073344D01*
X5289944Y-6073344D01*
X5289944Y-6144056D01*
X5360656Y-6144056D01*
X5860656Y-6144056D02*
X5860656Y-6073344D01*
X5789944Y-6073344D01*
X5789944Y-6144056D01*
X5860656Y-6144056D01*
X8370556Y-6144056D02*
X8370556Y-6073344D01*
X8299844Y-6073344D01*
X8299844Y-6144056D01*
X8370556Y-6144056D01*
X8870556Y-6144056D02*
X8870556Y-6073344D01*
X8799844Y-6073344D01*
X8799844Y-6144056D01*
X8870556Y-6144056D01*
X11380456Y-8150656D02*
X11380456Y-8079944D01*
X11309744Y-8079944D01*
X11309744Y-8150656D01*
X11380456Y-8150656D01*
X11880456Y-8150656D02*
X11880456Y-8079944D01*
X11809744Y-8079944D01*
X11809744Y-8150656D01*
X11880456Y-8150656D01*
X8370556Y-9153956D02*
X8370556Y-9083244D01*
X8299844Y-9083244D01*
X8299844Y-9153956D01*
X8370556Y-9153956D01*
X8870556Y-9153956D02*
X8870556Y-9083244D01*
X8799844Y-9083244D01*
X8799844Y-9153956D01*
X8870556Y-9153956D01*
X5360656Y-8150656D02*
X5360656Y-8079944D01*
X5289944Y-8079944D01*
X5289944Y-8150656D01*
X5360656Y-8150656D01*
X5860656Y-8150656D02*
X5860656Y-8079944D01*
X5789944Y-8079944D01*
X5789944Y-8150656D01*
X5860656Y-8150656D01*
X7367256Y-13167156D02*
X7367256Y-13096444D01*
X7296544Y-13096444D01*
X7296544Y-13167156D01*
X7367256Y-13167156D01*
X7867256Y-13167156D02*
X7867256Y-13096444D01*
X7796544Y-13096444D01*
X7796544Y-13167156D01*
X7867256Y-13167156D01*
X4357356Y-13167156D02*
X4357356Y-13096444D01*
X4286644Y-13096444D01*
X4286644Y-13167156D01*
X4357356Y-13167156D01*
X4857356Y-13167156D02*
X4857356Y-13096444D01*
X4786644Y-13096444D01*
X4786644Y-13167156D01*
X4857356Y-13167156D01*
X11380456Y-11160556D02*
X11380456Y-11089844D01*
X11309744Y-11089844D01*
X11309744Y-11160556D01*
X11380456Y-11160556D01*
X11880456Y-11160556D02*
X11880456Y-11089844D01*
X11809744Y-11089844D01*
X11809744Y-11160556D01*
X11880456Y-11160556D01*
X5360656Y-11160556D02*
X5360656Y-11089844D01*
X5289944Y-11089844D01*
X5289944Y-11160556D01*
X5360656Y-11160556D01*
X5860656Y-11160556D02*
X5860656Y-11089844D01*
X5789944Y-11089844D01*
X5789944Y-11160556D01*
X5860656Y-11160556D01*
X13256056Y-13031856D02*
X13256056Y-12961144D01*
X13185344Y-12961144D01*
X13185344Y-13031856D01*
X13256056Y-13031856D01*
X13256056Y-13285856D02*
X13256056Y-13215144D01*
X13185344Y-13215144D01*
X13185344Y-13285856D01*
X13256056Y-13285856D01*
X13256056Y-13539856D02*
X13256056Y-13469144D01*
X13185344Y-13469144D01*
X13185344Y-13539856D01*
X13256056Y-13539856D01*
X11380456Y-10157256D02*
X11380456Y-10086544D01*
X11309744Y-10086544D01*
X11309744Y-10157256D01*
X11380456Y-10157256D01*
X11880456Y-10157256D02*
X11880456Y-10086544D01*
X11809744Y-10086544D01*
X11809744Y-10157256D01*
X11880456Y-10157256D01*
X4357356Y-6144056D02*
X4357356Y-6073344D01*
X4286644Y-6073344D01*
X4286644Y-6144056D01*
X4357356Y-6144056D01*
X4857356Y-6144056D02*
X4857356Y-6073344D01*
X4786644Y-6073344D01*
X4786644Y-6144056D01*
X4857356Y-6144056D01*
X6363956Y-6144056D02*
X6363956Y-6073344D01*
X6293244Y-6073344D01*
X6293244Y-6144056D01*
X6363956Y-6144056D01*
X6863956Y-6144056D02*
X6863956Y-6073344D01*
X6793244Y-6073344D01*
X6793244Y-6144056D01*
X6863956Y-6144056D01*
X5360656Y-7147356D02*
X5360656Y-7076644D01*
X5289944Y-7076644D01*
X5289944Y-7147356D01*
X5360656Y-7147356D01*
X5860656Y-7147356D02*
X5860656Y-7076644D01*
X5789944Y-7076644D01*
X5789944Y-7147356D01*
X5860656Y-7147356D01*
X9373856Y-7147356D02*
X9373856Y-7076644D01*
X9303144Y-7076644D01*
X9303144Y-7147356D01*
X9373856Y-7147356D01*
X9873856Y-7147356D02*
X9873856Y-7076644D01*
X9803144Y-7076644D01*
X9803144Y-7147356D01*
X9873856Y-7147356D01*
X9373856Y-8150656D02*
X9373856Y-8079944D01*
X9303144Y-8079944D01*
X9303144Y-8150656D01*
X9373856Y-8150656D01*
X9873856Y-8150656D02*
X9873856Y-8079944D01*
X9803144Y-8079944D01*
X9803144Y-8150656D01*
X9873856Y-8150656D01*
X6363956Y-8150656D02*
X6363956Y-8079944D01*
X6293244Y-8079944D01*
X6293244Y-8150656D01*
X6363956Y-8150656D01*
X6863956Y-8150656D02*
X6863956Y-8079944D01*
X6793244Y-8079944D01*
X6793244Y-8150656D01*
X6863956Y-8150656D01*
X9373856Y-13167156D02*
X9373856Y-13096444D01*
X9303144Y-13096444D01*
X9303144Y-13167156D01*
X9373856Y-13167156D01*
X9873856Y-13167156D02*
X9873856Y-13096444D01*
X9803144Y-13096444D01*
X9803144Y-13167156D01*
X9873856Y-13167156D01*
X9373856Y-12163856D02*
X9373856Y-12093144D01*
X9303144Y-12093144D01*
X9303144Y-12163856D01*
X9373856Y-12163856D01*
X9873856Y-12163856D02*
X9873856Y-12093144D01*
X9803144Y-12093144D01*
X9803144Y-12163856D01*
X9873856Y-12163856D01*
X10377156Y-12163856D02*
X10377156Y-12093144D01*
X10306444Y-12093144D01*
X10306444Y-12163856D01*
X10377156Y-12163856D01*
X10877156Y-12163856D02*
X10877156Y-12093144D01*
X10806444Y-12093144D01*
X10806444Y-12163856D01*
X10877156Y-12163856D01*
X10377156Y-11160556D02*
X10377156Y-11089844D01*
X10306444Y-11089844D01*
X10306444Y-11160556D01*
X10377156Y-11160556D01*
X10877156Y-11160556D02*
X10877156Y-11089844D01*
X10806444Y-11089844D01*
X10806444Y-11160556D01*
X10877156Y-11160556D01*
X9373856Y-9153956D02*
X9373856Y-9083244D01*
X9303144Y-9083244D01*
X9303144Y-9153956D01*
X9373856Y-9153956D01*
X9873856Y-9153956D02*
X9873856Y-9083244D01*
X9803144Y-9083244D01*
X9803144Y-9153956D01*
X9873856Y-9153956D01*
X5360656Y-10157256D02*
X5360656Y-10086544D01*
X5289944Y-10086544D01*
X5289944Y-10157256D01*
X5360656Y-10157256D01*
X5860656Y-10157256D02*
X5860656Y-10086544D01*
X5789944Y-10086544D01*
X5789944Y-10157256D01*
X5860656Y-10157256D01*
X11380456Y-6144056D02*
X11380456Y-6073344D01*
X11309744Y-6073344D01*
X11309744Y-6144056D01*
X11380456Y-6144056D01*
X11880456Y-6144056D02*
X11880456Y-6073344D01*
X11809744Y-6073344D01*
X11809744Y-6144056D01*
X11880456Y-6144056D01*
X6363956Y-7147356D02*
X6363956Y-7076644D01*
X6293244Y-7076644D01*
X6293244Y-7147356D01*
X6363956Y-7147356D01*
X6863956Y-7147356D02*
X6863956Y-7076644D01*
X6793244Y-7076644D01*
X6793244Y-7147356D01*
X6863956Y-7147356D01*
X4357356Y-8150656D02*
X4357356Y-8079944D01*
X4286644Y-8079944D01*
X4286644Y-8150656D01*
X4357356Y-8150656D01*
X4857356Y-8150656D02*
X4857356Y-8079944D01*
X4786644Y-8079944D01*
X4786644Y-8150656D01*
X4857356Y-8150656D01*
X10377156Y-8150656D02*
X10377156Y-8079944D01*
X10306444Y-8079944D01*
X10306444Y-8150656D01*
X10377156Y-8150656D01*
X10877156Y-8150656D02*
X10877156Y-8079944D01*
X10806444Y-8079944D01*
X10806444Y-8150656D01*
X10877156Y-8150656D01*
X19136156Y-4404156D02*
X19136156Y-4333444D01*
X19065444Y-4333444D01*
X19065444Y-4404156D01*
X19136156Y-4404156D01*
X19136156Y-4658156D02*
X19136156Y-4587444D01*
X19065444Y-4587444D01*
X19065444Y-4658156D01*
X19136156Y-4658156D01*
X19136156Y-4912156D02*
X19136156Y-4841444D01*
X19065444Y-4841444D01*
X19065444Y-4912156D01*
X19136156Y-4912156D01*
X19136156Y-5166156D02*
X19136156Y-5095444D01*
X19065444Y-5095444D01*
X19065444Y-5166156D01*
X19136156Y-5166156D01*
X19136156Y-5420156D02*
X19136156Y-5349444D01*
X19065444Y-5349444D01*
X19065444Y-5420156D01*
X19136156Y-5420156D01*
X19136156Y-5674156D02*
X19136156Y-5603444D01*
X19065444Y-5603444D01*
X19065444Y-5674156D01*
X19136156Y-5674156D01*
X19136156Y-5928156D02*
X19136156Y-5857444D01*
X19065444Y-5857444D01*
X19065444Y-5928156D01*
X19136156Y-5928156D01*
X19136156Y-6182156D02*
X19136156Y-6111444D01*
X19065444Y-6111444D01*
X19065444Y-6182156D01*
X19136156Y-6182156D01*
X19136156Y-6436156D02*
X19136156Y-6365444D01*
X19065444Y-6365444D01*
X19065444Y-6436156D01*
X19136156Y-6436156D01*
X19136156Y-6690156D02*
X19136156Y-6619444D01*
X19065444Y-6619444D01*
X19065444Y-6690156D01*
X19136156Y-6690156D01*
X19136156Y-6944156D02*
X19136156Y-6873444D01*
X19065444Y-6873444D01*
X19065444Y-6944156D01*
X19136156Y-6944156D01*
X19136156Y-7198156D02*
X19136156Y-7127444D01*
X19065444Y-7127444D01*
X19065444Y-7198156D01*
X19136156Y-7198156D01*
X19136156Y-7452156D02*
X19136156Y-7381444D01*
X19065444Y-7381444D01*
X19065444Y-7452156D01*
X19136156Y-7452156D01*
X19136156Y-7706156D02*
X19136156Y-7635444D01*
X19065444Y-7635444D01*
X19065444Y-7706156D01*
X19136156Y-7706156D01*
X19136156Y-7960156D02*
X19136156Y-7889444D01*
X19065444Y-7889444D01*
X19065444Y-7960156D01*
X19136156Y-7960156D01*
X19136156Y-8214156D02*
X19136156Y-8143444D01*
X19065444Y-8143444D01*
X19065444Y-8214156D01*
X19136156Y-8214156D01*
X19136156Y-8468156D02*
X19136156Y-8397444D01*
X19065444Y-8397444D01*
X19065444Y-8468156D01*
X19136156Y-8468156D01*
X19136156Y-8722156D02*
X19136156Y-8651444D01*
X19065444Y-8651444D01*
X19065444Y-8722156D01*
X19136156Y-8722156D01*
X19136156Y-8976156D02*
X19136156Y-8905444D01*
X19065444Y-8905444D01*
X19065444Y-8976156D01*
X19136156Y-8976156D01*
X19136156Y-9230156D02*
X19136156Y-9159444D01*
X19065444Y-9159444D01*
X19065444Y-9230156D01*
X19136156Y-9230156D01*
X19390156Y-4404156D02*
X19390156Y-4333444D01*
X19319444Y-4333444D01*
X19319444Y-4404156D01*
X19390156Y-4404156D01*
X19390156Y-4658156D02*
X19390156Y-4587444D01*
X19319444Y-4587444D01*
X19319444Y-4658156D01*
X19390156Y-4658156D01*
X19390156Y-4912156D02*
X19390156Y-4841444D01*
X19319444Y-4841444D01*
X19319444Y-4912156D01*
X19390156Y-4912156D01*
X19390156Y-5166156D02*
X19390156Y-5095444D01*
X19319444Y-5095444D01*
X19319444Y-5166156D01*
X19390156Y-5166156D01*
X19390156Y-5420156D02*
X19390156Y-5349444D01*
X19319444Y-5349444D01*
X19319444Y-5420156D01*
X19390156Y-5420156D01*
X19390156Y-5674156D02*
X19390156Y-5603444D01*
X19319444Y-5603444D01*
X19319444Y-5674156D01*
X19390156Y-5674156D01*
X19390156Y-5928156D02*
X19390156Y-5857444D01*
X19319444Y-5857444D01*
X19319444Y-5928156D01*
X19390156Y-5928156D01*
X19390156Y-6182156D02*
X19390156Y-6111444D01*
X19319444Y-6111444D01*
X19319444Y-6182156D01*
X19390156Y-6182156D01*
X19390156Y-6436156D02*
X19390156Y-6365444D01*
X19319444Y-6365444D01*
X19319444Y-6436156D01*
X19390156Y-6436156D01*
X19390156Y-6690156D02*
X19390156Y-6619444D01*
X19319444Y-6619444D01*
X19319444Y-6690156D01*
X19390156Y-6690156D01*
X19390156Y-6944156D02*
X19390156Y-6873444D01*
X19319444Y-6873444D01*
X19319444Y-6944156D01*
X19390156Y-6944156D01*
X19390156Y-7198156D02*
X19390156Y-7127444D01*
X19319444Y-7127444D01*
X19319444Y-7198156D01*
X19390156Y-7198156D01*
X19390156Y-7452156D02*
X19390156Y-7381444D01*
X19319444Y-7381444D01*
X19319444Y-7452156D01*
X19390156Y-7452156D01*
X19390156Y-7706156D02*
X19390156Y-7635444D01*
X19319444Y-7635444D01*
X19319444Y-7706156D01*
X19390156Y-7706156D01*
X19390156Y-7960156D02*
X19390156Y-7889444D01*
X19319444Y-7889444D01*
X19319444Y-7960156D01*
X19390156Y-7960156D01*
X19390156Y-8214156D02*
X19390156Y-8143444D01*
X19319444Y-8143444D01*
X19319444Y-8214156D01*
X19390156Y-8214156D01*
X19390156Y-8468156D02*
X19390156Y-8397444D01*
X19319444Y-8397444D01*
X19319444Y-8468156D01*
X19390156Y-8468156D01*
X19390156Y-8722156D02*
X19390156Y-8651444D01*
X19319444Y-8651444D01*
X19319444Y-8722156D01*
X19390156Y-8722156D01*
X19390156Y-8976156D02*
X19390156Y-8905444D01*
X19319444Y-8905444D01*
X19319444Y-8976156D01*
X19390156Y-8976156D01*
X19390156Y-9230156D02*
X19390156Y-9159444D01*
X19319444Y-9159444D01*
X19319444Y-9230156D01*
X19390156Y-9230156D01*
X6363956Y-13167156D02*
X6363956Y-13096444D01*
X6293244Y-13096444D01*
X6293244Y-13167156D01*
X6363956Y-13167156D01*
X6863956Y-13167156D02*
X6863956Y-13096444D01*
X6793244Y-13096444D01*
X6793244Y-13167156D01*
X6863956Y-13167156D01*
X8370556Y-12163856D02*
X8370556Y-12093144D01*
X8299844Y-12093144D01*
X8299844Y-12163856D01*
X8370556Y-12163856D01*
X8870556Y-12163856D02*
X8870556Y-12093144D01*
X8799844Y-12093144D01*
X8799844Y-12163856D01*
X8870556Y-12163856D01*
X8370556Y-11160556D02*
X8370556Y-11089844D01*
X8299844Y-11089844D01*
X8299844Y-11160556D01*
X8370556Y-11160556D01*
X8870556Y-11160556D02*
X8870556Y-11089844D01*
X8799844Y-11089844D01*
X8799844Y-11160556D01*
X8870556Y-11160556D01*
X10377156Y-9153956D02*
X10377156Y-9083244D01*
X10306444Y-9083244D01*
X10306444Y-9153956D01*
X10377156Y-9153956D01*
X10877156Y-9153956D02*
X10877156Y-9083244D01*
X10806444Y-9083244D01*
X10806444Y-9153956D01*
X10877156Y-9153956D01*
X9373856Y-10157256D02*
X9373856Y-10086544D01*
X9303144Y-10086544D01*
X9303144Y-10157256D01*
X9373856Y-10157256D01*
X9873856Y-10157256D02*
X9873856Y-10086544D01*
X9803144Y-10086544D01*
X9803144Y-10157256D01*
X9873856Y-10157256D01*
X18170956Y-13298556D02*
X18170956Y-13227844D01*
X18100244Y-13227844D01*
X18100244Y-13298556D01*
X18170956Y-13298556D01*
X18035600Y-13303200D02*
X18235600Y-13303200D01*
X18035600Y-13223200D02*
X18235600Y-13223200D01*
X18235600Y-13303200D02*
G75*
G03*
X18235600Y-13223200I0J40000D01*
G01*
X18035600Y-13223200D02*
G75*
G03*
X18035600Y-13303200I0J-40000D01*
G01*
X18170956Y-13898556D02*
X18170956Y-13827844D01*
X18100244Y-13827844D01*
X18100244Y-13898556D01*
X18170956Y-13898556D01*
X18035600Y-13903200D02*
X18235600Y-13903200D01*
X18035600Y-13823200D02*
X18235600Y-13823200D01*
X18235600Y-13903200D02*
G75*
G03*
X18235600Y-13823200I0J40000D01*
G01*
X18035600Y-13823200D02*
G75*
G03*
X18035600Y-13903200I0J-40000D01*
G01*
X18640956Y-13598556D02*
X18640956Y-13527844D01*
X18570244Y-13527844D01*
X18570244Y-13598556D01*
X18640956Y-13598556D01*
X18645600Y-13663200D02*
X18645600Y-13463200D01*
X18565600Y-13663200D02*
X18565600Y-13463200D01*
X18645600Y-13463200D02*
G75*
G03*
X18565600Y-13463200I-40000J0D01*
G01*
X18565600Y-13663200D02*
G75*
G03*
X18645600Y-13663200I40000J0D01*
G01*
X7367256Y-8150656D02*
X7367256Y-8079944D01*
X7296544Y-8079944D01*
X7296544Y-8150656D01*
X7367256Y-8150656D01*
X7867256Y-8150656D02*
X7867256Y-8079944D01*
X7796544Y-8079944D01*
X7796544Y-8150656D01*
X7867256Y-8150656D01*
X5360656Y-9153956D02*
X5360656Y-9083244D01*
X5289944Y-9083244D01*
X5289944Y-9153956D01*
X5360656Y-9153956D01*
X5860656Y-9153956D02*
X5860656Y-9083244D01*
X5789944Y-9083244D01*
X5789944Y-9153956D01*
X5860656Y-9153956D01*
X4357356Y-12163856D02*
X4357356Y-12093144D01*
X4286644Y-12093144D01*
X4286644Y-12163856D01*
X4357356Y-12163856D01*
X4857356Y-12163856D02*
X4857356Y-12093144D01*
X4786644Y-12093144D01*
X4786644Y-12163856D01*
X4857356Y-12163856D01*
X10377156Y-13167156D02*
X10377156Y-13096444D01*
X10306444Y-13096444D01*
X10306444Y-13167156D01*
X10377156Y-13167156D01*
X10877156Y-13167156D02*
X10877156Y-13096444D01*
X10806444Y-13096444D01*
X10806444Y-13167156D01*
X10877156Y-13167156D01*
X11380456Y-12163856D02*
X11380456Y-12093144D01*
X11309744Y-12093144D01*
X11309744Y-12163856D01*
X11380456Y-12163856D01*
X11880456Y-12163856D02*
X11880456Y-12093144D01*
X11809744Y-12093144D01*
X11809744Y-12163856D01*
X11880456Y-12163856D01*
X6363956Y-11160556D02*
X6363956Y-11089844D01*
X6293244Y-11089844D01*
X6293244Y-11160556D01*
X6363956Y-11160556D01*
X6863956Y-11160556D02*
X6863956Y-11089844D01*
X6793244Y-11089844D01*
X6793244Y-11160556D01*
X6863956Y-11160556D01*
X11380456Y-9153956D02*
X11380456Y-9083244D01*
X11309744Y-9083244D01*
X11309744Y-9153956D01*
X11380456Y-9153956D01*
X11880456Y-9153956D02*
X11880456Y-9083244D01*
X11809744Y-9083244D01*
X11809744Y-9153956D01*
X11880456Y-9153956D01*
X6363956Y-10157256D02*
X6363956Y-10086544D01*
X6293244Y-10086544D01*
X6293244Y-10157256D01*
X6363956Y-10157256D01*
X6863956Y-10157256D02*
X6863956Y-10086544D01*
X6793244Y-10086544D01*
X6793244Y-10157256D01*
X6863956Y-10157256D01*
X4357356Y-7147356D02*
X4357356Y-7076644D01*
X4286644Y-7076644D01*
X4286644Y-7147356D01*
X4357356Y-7147356D01*
X4857356Y-7147356D02*
X4857356Y-7076644D01*
X4786644Y-7076644D01*
X4786644Y-7147356D01*
X4857356Y-7147356D01*
X10377156Y-7147356D02*
X10377156Y-7076644D01*
X10306444Y-7076644D01*
X10306444Y-7147356D01*
X10377156Y-7147356D01*
X10877156Y-7147356D02*
X10877156Y-7076644D01*
X10806444Y-7076644D01*
X10806444Y-7147356D01*
X10877156Y-7147356D01*
X7367256Y-9153956D02*
X7367256Y-9083244D01*
X7296544Y-9083244D01*
X7296544Y-9153956D01*
X7367256Y-9153956D01*
X7867256Y-9153956D02*
X7867256Y-9083244D01*
X7796544Y-9083244D01*
X7796544Y-9153956D01*
X7867256Y-9153956D01*
X6363956Y-12163856D02*
X6363956Y-12093144D01*
X6293244Y-12093144D01*
X6293244Y-12163856D01*
X6363956Y-12163856D01*
X6863956Y-12163856D02*
X6863956Y-12093144D01*
X6793244Y-12093144D01*
X6793244Y-12163856D01*
X6863956Y-12163856D01*
X5360656Y-12163856D02*
X5360656Y-12093144D01*
X5289944Y-12093144D01*
X5289944Y-12163856D01*
X5360656Y-12163856D01*
X5860656Y-12163856D02*
X5860656Y-12093144D01*
X5789944Y-12093144D01*
X5789944Y-12163856D01*
X5860656Y-12163856D01*
X4357356Y-11160556D02*
X4357356Y-11089844D01*
X4286644Y-11089844D01*
X4286644Y-11160556D01*
X4357356Y-11160556D01*
X4857356Y-11160556D02*
X4857356Y-11089844D01*
X4786644Y-11089844D01*
X4786644Y-11160556D01*
X4857356Y-11160556D01*
X8370556Y-10157256D02*
X8370556Y-10086544D01*
X8299844Y-10086544D01*
X8299844Y-10157256D01*
X8370556Y-10157256D01*
X8870556Y-10157256D02*
X8870556Y-10086544D01*
X8799844Y-10086544D01*
X8799844Y-10157256D01*
X8870556Y-10157256D01*
X7367256Y-10157256D02*
X7367256Y-10086544D01*
X7296544Y-10086544D01*
X7296544Y-10157256D01*
X7367256Y-10157256D01*
X7867256Y-10157256D02*
X7867256Y-10086544D01*
X7796544Y-10086544D01*
X7796544Y-10157256D01*
X7867256Y-10157256D01*
X6363956Y-9153956D02*
X6363956Y-9083244D01*
X6293244Y-9083244D01*
X6293244Y-9153956D01*
X6363956Y-9153956D01*
X6863956Y-9153956D02*
X6863956Y-9083244D01*
X6793244Y-9083244D01*
X6793244Y-9153956D01*
X6863956Y-9153956D01*
X11380456Y-7147356D02*
X11380456Y-7076644D01*
X11309744Y-7076644D01*
X11309744Y-7147356D01*
X11380456Y-7147356D01*
X11880456Y-7147356D02*
X11880456Y-7076644D01*
X11809744Y-7076644D01*
X11809744Y-7147356D01*
X11880456Y-7147356D01*
X7367256Y-7147356D02*
X7367256Y-7076644D01*
X7296544Y-7076644D01*
X7296544Y-7147356D01*
X7367256Y-7147356D01*
X7867256Y-7147356D02*
X7867256Y-7076644D01*
X7796544Y-7076644D01*
X7796544Y-7147356D01*
X7867256Y-7147356D01*
X7367256Y-12163856D02*
X7367256Y-12093144D01*
X7296544Y-12093144D01*
X7296544Y-12163856D01*
X7367256Y-12163856D01*
X7867256Y-12163856D02*
X7867256Y-12093144D01*
X7796544Y-12093144D01*
X7796544Y-12163856D01*
X7867256Y-12163856D01*
X5360656Y-13167156D02*
X5360656Y-13096444D01*
X5289944Y-13096444D01*
X5289944Y-13167156D01*
X5360656Y-13167156D01*
X5860656Y-13167156D02*
X5860656Y-13096444D01*
X5789944Y-13096444D01*
X5789944Y-13167156D01*
X5860656Y-13167156D01*
X9373856Y-11160556D02*
X9373856Y-11089844D01*
X9303144Y-11089844D01*
X9303144Y-11160556D01*
X9373856Y-11160556D01*
X9873856Y-11160556D02*
X9873856Y-11089844D01*
X9803144Y-11089844D01*
X9803144Y-11160556D01*
X9873856Y-11160556D01*
X7367256Y-11160556D02*
X7367256Y-11089844D01*
X7296544Y-11089844D01*
X7296544Y-11160556D01*
X7367256Y-11160556D01*
X7867256Y-11160556D02*
X7867256Y-11089844D01*
X7796544Y-11089844D01*
X7796544Y-11160556D01*
X7867256Y-11160556D01*
X19136156Y-9611156D02*
X19136156Y-9540444D01*
X19065444Y-9540444D01*
X19065444Y-9611156D01*
X19136156Y-9611156D01*
X19136156Y-9865156D02*
X19136156Y-9794444D01*
X19065444Y-9794444D01*
X19065444Y-9865156D01*
X19136156Y-9865156D01*
X19136156Y-10119156D02*
X19136156Y-10048444D01*
X19065444Y-10048444D01*
X19065444Y-10119156D01*
X19136156Y-10119156D01*
X19136156Y-10373156D02*
X19136156Y-10302444D01*
X19065444Y-10302444D01*
X19065444Y-10373156D01*
X19136156Y-10373156D01*
X19136156Y-10627156D02*
X19136156Y-10556444D01*
X19065444Y-10556444D01*
X19065444Y-10627156D01*
X19136156Y-10627156D01*
X19136156Y-10881156D02*
X19136156Y-10810444D01*
X19065444Y-10810444D01*
X19065444Y-10881156D01*
X19136156Y-10881156D01*
X19136156Y-11135156D02*
X19136156Y-11064444D01*
X19065444Y-11064444D01*
X19065444Y-11135156D01*
X19136156Y-11135156D01*
X19136156Y-11389156D02*
X19136156Y-11318444D01*
X19065444Y-11318444D01*
X19065444Y-11389156D01*
X19136156Y-11389156D01*
X19136156Y-11643156D02*
X19136156Y-11572444D01*
X19065444Y-11572444D01*
X19065444Y-11643156D01*
X19136156Y-11643156D01*
X19136156Y-11897156D02*
X19136156Y-11826444D01*
X19065444Y-11826444D01*
X19065444Y-11897156D01*
X19136156Y-11897156D01*
X19136156Y-12151156D02*
X19136156Y-12080444D01*
X19065444Y-12080444D01*
X19065444Y-12151156D01*
X19136156Y-12151156D01*
X19136156Y-12405156D02*
X19136156Y-12334444D01*
X19065444Y-12334444D01*
X19065444Y-12405156D01*
X19136156Y-12405156D01*
X19136156Y-12659156D02*
X19136156Y-12588444D01*
X19065444Y-12588444D01*
X19065444Y-12659156D01*
X19136156Y-12659156D01*
X19136156Y-12913156D02*
X19136156Y-12842444D01*
X19065444Y-12842444D01*
X19065444Y-12913156D01*
X19136156Y-12913156D01*
X19136156Y-13167156D02*
X19136156Y-13096444D01*
X19065444Y-13096444D01*
X19065444Y-13167156D01*
X19136156Y-13167156D01*
X19136156Y-13421156D02*
X19136156Y-13350444D01*
X19065444Y-13350444D01*
X19065444Y-13421156D01*
X19136156Y-13421156D01*
X19136156Y-13675156D02*
X19136156Y-13604444D01*
X19065444Y-13604444D01*
X19065444Y-13675156D01*
X19136156Y-13675156D01*
X19136156Y-13929156D02*
X19136156Y-13858444D01*
X19065444Y-13858444D01*
X19065444Y-13929156D01*
X19136156Y-13929156D01*
X19136156Y-14183156D02*
X19136156Y-14112444D01*
X19065444Y-14112444D01*
X19065444Y-14183156D01*
X19136156Y-14183156D01*
X19136156Y-14437156D02*
X19136156Y-14366444D01*
X19065444Y-14366444D01*
X19065444Y-14437156D01*
X19136156Y-14437156D01*
X19390156Y-9611156D02*
X19390156Y-9540444D01*
X19319444Y-9540444D01*
X19319444Y-9611156D01*
X19390156Y-9611156D01*
X19390156Y-9865156D02*
X19390156Y-9794444D01*
X19319444Y-9794444D01*
X19319444Y-9865156D01*
X19390156Y-9865156D01*
X19390156Y-10119156D02*
X19390156Y-10048444D01*
X19319444Y-10048444D01*
X19319444Y-10119156D01*
X19390156Y-10119156D01*
X19390156Y-10373156D02*
X19390156Y-10302444D01*
X19319444Y-10302444D01*
X19319444Y-10373156D01*
X19390156Y-10373156D01*
X19390156Y-10627156D02*
X19390156Y-10556444D01*
X19319444Y-10556444D01*
X19319444Y-10627156D01*
X19390156Y-10627156D01*
X19390156Y-10881156D02*
X19390156Y-10810444D01*
X19319444Y-10810444D01*
X19319444Y-10881156D01*
X19390156Y-10881156D01*
X19390156Y-11135156D02*
X19390156Y-11064444D01*
X19319444Y-11064444D01*
X19319444Y-11135156D01*
X19390156Y-11135156D01*
X19390156Y-11389156D02*
X19390156Y-11318444D01*
X19319444Y-11318444D01*
X19319444Y-11389156D01*
X19390156Y-11389156D01*
X19390156Y-11643156D02*
X19390156Y-11572444D01*
X19319444Y-11572444D01*
X19319444Y-11643156D01*
X19390156Y-11643156D01*
X19390156Y-11897156D02*
X19390156Y-11826444D01*
X19319444Y-11826444D01*
X19319444Y-11897156D01*
X19390156Y-11897156D01*
X19390156Y-12151156D02*
X19390156Y-12080444D01*
X19319444Y-12080444D01*
X19319444Y-12151156D01*
X19390156Y-12151156D01*
X19390156Y-12405156D02*
X19390156Y-12334444D01*
X19319444Y-12334444D01*
X19319444Y-12405156D01*
X19390156Y-12405156D01*
X19390156Y-12659156D02*
X19390156Y-12588444D01*
X19319444Y-12588444D01*
X19319444Y-12659156D01*
X19390156Y-12659156D01*
X19390156Y-12913156D02*
X19390156Y-12842444D01*
X19319444Y-12842444D01*
X19319444Y-12913156D01*
X19390156Y-12913156D01*
X19390156Y-13167156D02*
X19390156Y-13096444D01*
X19319444Y-13096444D01*
X19319444Y-13167156D01*
X19390156Y-13167156D01*
X19390156Y-13421156D02*
X19390156Y-13350444D01*
X19319444Y-13350444D01*
X19319444Y-13421156D01*
X19390156Y-13421156D01*
X19390156Y-13675156D02*
X19390156Y-13604444D01*
X19319444Y-13604444D01*
X19319444Y-13675156D01*
X19390156Y-13675156D01*
X19390156Y-13929156D02*
X19390156Y-13858444D01*
X19319444Y-13858444D01*
X19319444Y-13929156D01*
X19390156Y-13929156D01*
X19390156Y-14183156D02*
X19390156Y-14112444D01*
X19319444Y-14112444D01*
X19319444Y-14183156D01*
X19390156Y-14183156D01*
X19390156Y-14437156D02*
X19390156Y-14366444D01*
X19319444Y-14366444D01*
X19319444Y-14437156D01*
X19390156Y-14437156D01*
X10377156Y-6144056D02*
X10377156Y-6073344D01*
X10306444Y-6073344D01*
X10306444Y-6144056D01*
X10377156Y-6144056D01*
X10877156Y-6144056D02*
X10877156Y-6073344D01*
X10806444Y-6073344D01*
X10806444Y-6144056D01*
X10877156Y-6144056D01*
X7367256Y-6144056D02*
X7367256Y-6073344D01*
X7296544Y-6073344D01*
X7296544Y-6144056D01*
X7367256Y-6144056D01*
X7867256Y-6144056D02*
X7867256Y-6073344D01*
X7796544Y-6073344D01*
X7796544Y-6144056D01*
X7867256Y-6144056D01*
X8370556Y-7147356D02*
X8370556Y-7076644D01*
X8299844Y-7076644D01*
X8299844Y-7147356D01*
X8370556Y-7147356D01*
X8870556Y-7147356D02*
X8870556Y-7076644D01*
X8799844Y-7076644D01*
X8799844Y-7147356D01*
X8870556Y-7147356D01*
X4357356Y-9153956D02*
X4357356Y-9083244D01*
X4286644Y-9083244D01*
X4286644Y-9153956D01*
X4357356Y-9153956D01*
X4857356Y-9153956D02*
X4857356Y-9083244D01*
X4786644Y-9083244D01*
X4786644Y-9153956D01*
X4857356Y-9153956D01*
X8370556Y-8150656D02*
X8370556Y-8079944D01*
X8299844Y-8079944D01*
X8299844Y-8150656D01*
X8370556Y-8150656D01*
X8870556Y-8150656D02*
X8870556Y-8079944D01*
X8799844Y-8079944D01*
X8799844Y-8150656D01*
X8870556Y-8150656D01*
D12*
X3611328Y-15103014D02*
X3611328Y-14803014D01*
X3682757Y-14803014D01*
X3725614Y-14817300D01*
X3754186Y-14845871D01*
X3768471Y-14874443D01*
X3782757Y-14931586D01*
X3782757Y-14974443D01*
X3768471Y-15031586D01*
X3754186Y-15060157D01*
X3725614Y-15088729D01*
X3682757Y-15103014D01*
X3611328Y-15103014D01*
X3911328Y-15103014D02*
X3911328Y-14903014D01*
X3911328Y-14960157D02*
X3925614Y-14931586D01*
X3939900Y-14917300D01*
X3968471Y-14903014D01*
X3997043Y-14903014D01*
X4097043Y-15103014D02*
X4097043Y-14903014D01*
X4097043Y-14803014D02*
X4082757Y-14817300D01*
X4097043Y-14831586D01*
X4111328Y-14817300D01*
X4097043Y-14803014D01*
X4097043Y-14831586D01*
X4282757Y-15103014D02*
X4254186Y-15088729D01*
X4239900Y-15060157D01*
X4239900Y-14803014D01*
X4439900Y-15103014D02*
X4411328Y-15088729D01*
X4397043Y-15060157D01*
X4397043Y-14803014D01*
X4782757Y-15103014D02*
X4782757Y-14803014D01*
X4882757Y-15017300D01*
X4982757Y-14803014D01*
X4982757Y-15103014D01*
X5254186Y-15103014D02*
X5254186Y-14945871D01*
X5239900Y-14917300D01*
X5211328Y-14903014D01*
X5154186Y-14903014D01*
X5125614Y-14917300D01*
X5254186Y-15088729D02*
X5225614Y-15103014D01*
X5154186Y-15103014D01*
X5125614Y-15088729D01*
X5111328Y-15060157D01*
X5111328Y-15031586D01*
X5125614Y-15003014D01*
X5154186Y-14988729D01*
X5225614Y-14988729D01*
X5254186Y-14974443D01*
X5397043Y-14903014D02*
X5397043Y-15203014D01*
X5397043Y-14917300D02*
X5425614Y-14903014D01*
X5482757Y-14903014D01*
X5511328Y-14917300D01*
X5525614Y-14931586D01*
X5539900Y-14960157D01*
X5539900Y-15045871D01*
X5525614Y-15074443D01*
X5511328Y-15088729D01*
X5482757Y-15103014D01*
X5425614Y-15103014D01*
X5397043Y-15088729D01*
X5668471Y-15074443D02*
X5682757Y-15088729D01*
X5668471Y-15103014D01*
X5654186Y-15088729D01*
X5668471Y-15074443D01*
X5668471Y-15103014D01*
X5668471Y-14917300D02*
X5682757Y-14931586D01*
X5668471Y-14945871D01*
X5654186Y-14931586D01*
X5668471Y-14917300D01*
X5668471Y-14945871D01*
X3284900Y-15577300D02*
X3324900Y-15617300D01*
X3324900Y-15577300D02*
X3284900Y-15617300D01*
X3668471Y-15433014D02*
X3697043Y-15433014D01*
X3725614Y-15447300D01*
X3739900Y-15461586D01*
X3754186Y-15490157D01*
X3768471Y-15547300D01*
X3768471Y-15618729D01*
X3754186Y-15675871D01*
X3739900Y-15704443D01*
X3725614Y-15718729D01*
X3697043Y-15733014D01*
X3668471Y-15733014D01*
X3639900Y-15718729D01*
X3625614Y-15704443D01*
X3611328Y-15675871D01*
X3597043Y-15618729D01*
X3597043Y-15547300D01*
X3611328Y-15490157D01*
X3625614Y-15461586D01*
X3639900Y-15447300D01*
X3668471Y-15433014D01*
X3897043Y-15704443D02*
X3911328Y-15718729D01*
X3897043Y-15733014D01*
X3882757Y-15718729D01*
X3897043Y-15704443D01*
X3897043Y-15733014D01*
X4168471Y-15533014D02*
X4168471Y-15733014D01*
X4097043Y-15418729D02*
X4025614Y-15633014D01*
X4211328Y-15633014D01*
X4382757Y-15433014D02*
X4411328Y-15433014D01*
X4439900Y-15447300D01*
X4454186Y-15461586D01*
X4468471Y-15490157D01*
X4482757Y-15547300D01*
X4482757Y-15618729D01*
X4468471Y-15675871D01*
X4454186Y-15704443D01*
X4439900Y-15718729D01*
X4411328Y-15733014D01*
X4382757Y-15733014D01*
X4354186Y-15718729D01*
X4339900Y-15704443D01*
X4325614Y-15675871D01*
X4311328Y-15618729D01*
X4311328Y-15547300D01*
X4325614Y-15490157D01*
X4339900Y-15461586D01*
X4354186Y-15447300D01*
X4382757Y-15433014D01*
X4611328Y-15733014D02*
X4611328Y-15533014D01*
X4611328Y-15561586D02*
X4625614Y-15547300D01*
X4654186Y-15533014D01*
X4697043Y-15533014D01*
X4725614Y-15547300D01*
X4739900Y-15575871D01*
X4739900Y-15733014D01*
X4739900Y-15575871D02*
X4754186Y-15547300D01*
X4782757Y-15533014D01*
X4825614Y-15533014D01*
X4854186Y-15547300D01*
X4868471Y-15575871D01*
X4868471Y-15733014D01*
X5011328Y-15733014D02*
X5011328Y-15533014D01*
X5011328Y-15561586D02*
X5025614Y-15547300D01*
X5054186Y-15533014D01*
X5097043Y-15533014D01*
X5125614Y-15547300D01*
X5139900Y-15575871D01*
X5139900Y-15733014D01*
X5139900Y-15575871D02*
X5154186Y-15547300D01*
X5182757Y-15533014D01*
X5225614Y-15533014D01*
X5254186Y-15547300D01*
X5268471Y-15575871D01*
X5268471Y-15733014D01*
X5854186Y-15418729D02*
X5597043Y-15804443D01*
X6239900Y-15433014D02*
X6268471Y-15433014D01*
X6297043Y-15447300D01*
X6311328Y-15461586D01*
X6325614Y-15490157D01*
X6339900Y-15547300D01*
X6339900Y-15618729D01*
X6325614Y-15675871D01*
X6311328Y-15704443D01*
X6297043Y-15718729D01*
X6268471Y-15733014D01*
X6239900Y-15733014D01*
X6211328Y-15718729D01*
X6197043Y-15704443D01*
X6182757Y-15675871D01*
X6168471Y-15618729D01*
X6168471Y-15547300D01*
X6182757Y-15490157D01*
X6197043Y-15461586D01*
X6211328Y-15447300D01*
X6239900Y-15433014D01*
X6468471Y-15704443D02*
X6482757Y-15718729D01*
X6468471Y-15733014D01*
X6454186Y-15718729D01*
X6468471Y-15704443D01*
X6468471Y-15733014D01*
X6668471Y-15433014D02*
X6697043Y-15433014D01*
X6725614Y-15447300D01*
X6739900Y-15461586D01*
X6754186Y-15490157D01*
X6768471Y-15547300D01*
X6768471Y-15618729D01*
X6754186Y-15675871D01*
X6739900Y-15704443D01*
X6725614Y-15718729D01*
X6697043Y-15733014D01*
X6668471Y-15733014D01*
X6639900Y-15718729D01*
X6625614Y-15704443D01*
X6611328Y-15675871D01*
X6597043Y-15618729D01*
X6597043Y-15547300D01*
X6611328Y-15490157D01*
X6625614Y-15461586D01*
X6639900Y-15447300D01*
X6668471Y-15433014D01*
X7054186Y-15733014D02*
X6882757Y-15733014D01*
X6968471Y-15733014D02*
X6968471Y-15433014D01*
X6939900Y-15475871D01*
X6911328Y-15504443D01*
X6882757Y-15518729D01*
X7311328Y-15433014D02*
X7254186Y-15433014D01*
X7225614Y-15447300D01*
X7211328Y-15461586D01*
X7182757Y-15504443D01*
X7168471Y-15561586D01*
X7168471Y-15675871D01*
X7182757Y-15704443D01*
X7197043Y-15718729D01*
X7225614Y-15733014D01*
X7282757Y-15733014D01*
X7311328Y-15718729D01*
X7325614Y-15704443D01*
X7339900Y-15675871D01*
X7339900Y-15604443D01*
X7325614Y-15575871D01*
X7311328Y-15561586D01*
X7282757Y-15547300D01*
X7225614Y-15547300D01*
X7197043Y-15561586D01*
X7182757Y-15575871D01*
X7168471Y-15604443D01*
X7454186Y-15433014D02*
X7454186Y-15490157D01*
X7568471Y-15433014D02*
X7568471Y-15490157D01*
X8011328Y-15847300D02*
X7997043Y-15833014D01*
X7968471Y-15790157D01*
X7954186Y-15761586D01*
X7939900Y-15718729D01*
X7925614Y-15647300D01*
X7925614Y-15590157D01*
X7939900Y-15518729D01*
X7954186Y-15475871D01*
X7968471Y-15447300D01*
X7997043Y-15404443D01*
X8011328Y-15390157D01*
X8097043Y-15433014D02*
X8282757Y-15433014D01*
X8182757Y-15547300D01*
X8225614Y-15547300D01*
X8254186Y-15561586D01*
X8268471Y-15575871D01*
X8282757Y-15604443D01*
X8282757Y-15675871D01*
X8268471Y-15704443D01*
X8254186Y-15718729D01*
X8225614Y-15733014D01*
X8139900Y-15733014D01*
X8111328Y-15718729D01*
X8097043Y-15704443D01*
X8454186Y-15561586D02*
X8425614Y-15547300D01*
X8411328Y-15533014D01*
X8397043Y-15504443D01*
X8397043Y-15490157D01*
X8411328Y-15461586D01*
X8425614Y-15447300D01*
X8454186Y-15433014D01*
X8511328Y-15433014D01*
X8539900Y-15447300D01*
X8554186Y-15461586D01*
X8568471Y-15490157D01*
X8568471Y-15504443D01*
X8554186Y-15533014D01*
X8539900Y-15547300D01*
X8511328Y-15561586D01*
X8454186Y-15561586D01*
X8425614Y-15575871D01*
X8411328Y-15590157D01*
X8397043Y-15618729D01*
X8397043Y-15675871D01*
X8411328Y-15704443D01*
X8425614Y-15718729D01*
X8454186Y-15733014D01*
X8511328Y-15733014D01*
X8539900Y-15718729D01*
X8554186Y-15704443D01*
X8568471Y-15675871D01*
X8568471Y-15618729D01*
X8554186Y-15590157D01*
X8539900Y-15575871D01*
X8511328Y-15561586D01*
X8925614Y-15733014D02*
X8925614Y-15433014D01*
X9054186Y-15733014D02*
X9054186Y-15575871D01*
X9039900Y-15547300D01*
X9011328Y-15533014D01*
X8968471Y-15533014D01*
X8939900Y-15547300D01*
X8925614Y-15561586D01*
X9239900Y-15733014D02*
X9211328Y-15718729D01*
X9197043Y-15704443D01*
X9182757Y-15675871D01*
X9182757Y-15590157D01*
X9197043Y-15561586D01*
X9211328Y-15547300D01*
X9239900Y-15533014D01*
X9282757Y-15533014D01*
X9311328Y-15547300D01*
X9325614Y-15561586D01*
X9339900Y-15590157D01*
X9339900Y-15675871D01*
X9325614Y-15704443D01*
X9311328Y-15718729D01*
X9282757Y-15733014D01*
X9239900Y-15733014D01*
X9511328Y-15733014D02*
X9482757Y-15718729D01*
X9468471Y-15690157D01*
X9468471Y-15433014D01*
X9739900Y-15718729D02*
X9711328Y-15733014D01*
X9654186Y-15733014D01*
X9625614Y-15718729D01*
X9611328Y-15690157D01*
X9611328Y-15575871D01*
X9625614Y-15547300D01*
X9654186Y-15533014D01*
X9711328Y-15533014D01*
X9739900Y-15547300D01*
X9754186Y-15575871D01*
X9754186Y-15604443D01*
X9611328Y-15633014D01*
X9868471Y-15718729D02*
X9897043Y-15733014D01*
X9954186Y-15733014D01*
X9982757Y-15718729D01*
X9997043Y-15690157D01*
X9997043Y-15675871D01*
X9982757Y-15647300D01*
X9954186Y-15633014D01*
X9911328Y-15633014D01*
X9882757Y-15618729D01*
X9868471Y-15590157D01*
X9868471Y-15575871D01*
X9882757Y-15547300D01*
X9911328Y-15533014D01*
X9954186Y-15533014D01*
X9982757Y-15547300D01*
X10097043Y-15847300D02*
X10111328Y-15833014D01*
X10139900Y-15790157D01*
X10154186Y-15761586D01*
X10168471Y-15718729D01*
X10182757Y-15647300D01*
X10182757Y-15590157D01*
X10168471Y-15518729D01*
X10154186Y-15475871D01*
X10139900Y-15447300D01*
X10111328Y-15404443D01*
X10097043Y-15390157D01*
X3324900Y-15993300D02*
G75*
G03*
X3324900Y-15993300I-37000J0D01*
G01*
X3668471Y-15829014D02*
X3697043Y-15829014D01*
X3725614Y-15843300D01*
X3739900Y-15857586D01*
X3754186Y-15886157D01*
X3768471Y-15943300D01*
X3768471Y-16014729D01*
X3754186Y-16071871D01*
X3739900Y-16100443D01*
X3725614Y-16114729D01*
X3697043Y-16129014D01*
X3668471Y-16129014D01*
X3639900Y-16114729D01*
X3625614Y-16100443D01*
X3611328Y-16071871D01*
X3597043Y-16014729D01*
X3597043Y-15943300D01*
X3611328Y-15886157D01*
X3625614Y-15857586D01*
X3639900Y-15843300D01*
X3668471Y-15829014D01*
X3897043Y-16100443D02*
X3911328Y-16114729D01*
X3897043Y-16129014D01*
X3882757Y-16114729D01*
X3897043Y-16100443D01*
X3897043Y-16129014D01*
X4011328Y-15829014D02*
X4211328Y-15829014D01*
X4082757Y-16129014D01*
X4454186Y-15929014D02*
X4454186Y-16129014D01*
X4382757Y-15814729D02*
X4311328Y-16029014D01*
X4497043Y-16029014D01*
X4611328Y-16129014D02*
X4611328Y-15929014D01*
X4611328Y-15957586D02*
X4625614Y-15943300D01*
X4654186Y-15929014D01*
X4697043Y-15929014D01*
X4725614Y-15943300D01*
X4739900Y-15971871D01*
X4739900Y-16129014D01*
X4739900Y-15971871D02*
X4754186Y-15943300D01*
X4782757Y-15929014D01*
X4825614Y-15929014D01*
X4854186Y-15943300D01*
X4868471Y-15971871D01*
X4868471Y-16129014D01*
X5011328Y-16129014D02*
X5011328Y-15929014D01*
X5011328Y-15957586D02*
X5025614Y-15943300D01*
X5054186Y-15929014D01*
X5097043Y-15929014D01*
X5125614Y-15943300D01*
X5139900Y-15971871D01*
X5139900Y-16129014D01*
X5139900Y-15971871D02*
X5154186Y-15943300D01*
X5182757Y-15929014D01*
X5225614Y-15929014D01*
X5254186Y-15943300D01*
X5268471Y-15971871D01*
X5268471Y-16129014D01*
X5854186Y-15814729D02*
X5597043Y-16200443D01*
X6239900Y-15829014D02*
X6268471Y-15829014D01*
X6297043Y-15843300D01*
X6311328Y-15857586D01*
X6325614Y-15886157D01*
X6339900Y-15943300D01*
X6339900Y-16014729D01*
X6325614Y-16071871D01*
X6311328Y-16100443D01*
X6297043Y-16114729D01*
X6268471Y-16129014D01*
X6239900Y-16129014D01*
X6211328Y-16114729D01*
X6197043Y-16100443D01*
X6182757Y-16071871D01*
X6168471Y-16014729D01*
X6168471Y-15943300D01*
X6182757Y-15886157D01*
X6197043Y-15857586D01*
X6211328Y-15843300D01*
X6239900Y-15829014D01*
X6468471Y-16100443D02*
X6482757Y-16114729D01*
X6468471Y-16129014D01*
X6454186Y-16114729D01*
X6468471Y-16100443D01*
X6468471Y-16129014D01*
X6668471Y-15829014D02*
X6697043Y-15829014D01*
X6725614Y-15843300D01*
X6739900Y-15857586D01*
X6754186Y-15886157D01*
X6768471Y-15943300D01*
X6768471Y-16014729D01*
X6754186Y-16071871D01*
X6739900Y-16100443D01*
X6725614Y-16114729D01*
X6697043Y-16129014D01*
X6668471Y-16129014D01*
X6639900Y-16114729D01*
X6625614Y-16100443D01*
X6611328Y-16071871D01*
X6597043Y-16014729D01*
X6597043Y-15943300D01*
X6611328Y-15886157D01*
X6625614Y-15857586D01*
X6639900Y-15843300D01*
X6668471Y-15829014D01*
X6882757Y-15857586D02*
X6897043Y-15843300D01*
X6925614Y-15829014D01*
X6997043Y-15829014D01*
X7025614Y-15843300D01*
X7039900Y-15857586D01*
X7054186Y-15886157D01*
X7054186Y-15914729D01*
X7039900Y-15957586D01*
X6868471Y-16129014D01*
X7054186Y-16129014D01*
X7197043Y-16129014D02*
X7254186Y-16129014D01*
X7282757Y-16114729D01*
X7297043Y-16100443D01*
X7325614Y-16057586D01*
X7339900Y-16000443D01*
X7339900Y-15886157D01*
X7325614Y-15857586D01*
X7311328Y-15843300D01*
X7282757Y-15829014D01*
X7225614Y-15829014D01*
X7197043Y-15843300D01*
X7182757Y-15857586D01*
X7168471Y-15886157D01*
X7168471Y-15957586D01*
X7182757Y-15986157D01*
X7197043Y-16000443D01*
X7225614Y-16014729D01*
X7282757Y-16014729D01*
X7311328Y-16000443D01*
X7325614Y-15986157D01*
X7339900Y-15957586D01*
X7454186Y-15829014D02*
X7454186Y-15886157D01*
X7568471Y-15829014D02*
X7568471Y-15886157D01*
X8011328Y-16243300D02*
X7997043Y-16229014D01*
X7968471Y-16186157D01*
X7954186Y-16157586D01*
X7939900Y-16114729D01*
X7925614Y-16043300D01*
X7925614Y-15986157D01*
X7939900Y-15914729D01*
X7954186Y-15871871D01*
X7968471Y-15843300D01*
X7997043Y-15800443D01*
X8011328Y-15786157D01*
X8097043Y-15829014D02*
X8282757Y-15829014D01*
X8182757Y-15943300D01*
X8225614Y-15943300D01*
X8254186Y-15957586D01*
X8268471Y-15971871D01*
X8282757Y-16000443D01*
X8282757Y-16071871D01*
X8268471Y-16100443D01*
X8254186Y-16114729D01*
X8225614Y-16129014D01*
X8139900Y-16129014D01*
X8111328Y-16114729D01*
X8097043Y-16100443D01*
X8639900Y-16129014D02*
X8639900Y-15829014D01*
X8768471Y-16129014D02*
X8768471Y-15971871D01*
X8754186Y-15943300D01*
X8725614Y-15929014D01*
X8682757Y-15929014D01*
X8654186Y-15943300D01*
X8639900Y-15957586D01*
X8954186Y-16129014D02*
X8925614Y-16114729D01*
X8911328Y-16100443D01*
X8897043Y-16071871D01*
X8897043Y-15986157D01*
X8911328Y-15957586D01*
X8925614Y-15943300D01*
X8954186Y-15929014D01*
X8997043Y-15929014D01*
X9025614Y-15943300D01*
X9039900Y-15957586D01*
X9054186Y-15986157D01*
X9054186Y-16071871D01*
X9039900Y-16100443D01*
X9025614Y-16114729D01*
X8997043Y-16129014D01*
X8954186Y-16129014D01*
X9225614Y-16129014D02*
X9197043Y-16114729D01*
X9182757Y-16086157D01*
X9182757Y-15829014D01*
X9454186Y-16114729D02*
X9425614Y-16129014D01*
X9368471Y-16129014D01*
X9339900Y-16114729D01*
X9325614Y-16086157D01*
X9325614Y-15971871D01*
X9339900Y-15943300D01*
X9368471Y-15929014D01*
X9425614Y-15929014D01*
X9454186Y-15943300D01*
X9468471Y-15971871D01*
X9468471Y-16000443D01*
X9325614Y-16029014D01*
X9582757Y-16114729D02*
X9611328Y-16129014D01*
X9668471Y-16129014D01*
X9697043Y-16114729D01*
X9711328Y-16086157D01*
X9711328Y-16071871D01*
X9697043Y-16043300D01*
X9668471Y-16029014D01*
X9625614Y-16029014D01*
X9597043Y-16014729D01*
X9582757Y-15986157D01*
X9582757Y-15971871D01*
X9597043Y-15943300D01*
X9625614Y-15929014D01*
X9668471Y-15929014D01*
X9697043Y-15943300D01*
X9811328Y-16243300D02*
X9825614Y-16229014D01*
X9854186Y-16186157D01*
X9868471Y-16157586D01*
X9882757Y-16114729D01*
X9897043Y-16043300D01*
X9897043Y-15986157D01*
X9882757Y-15914729D01*
X9868471Y-15871871D01*
X9854186Y-15843300D01*
X9825614Y-15800443D01*
X9811328Y-15786157D01*
X3284900Y-16349300D02*
X3284900Y-16429300D01*
X3244900Y-16389300D02*
X3324900Y-16389300D01*
X3668471Y-16225014D02*
X3697043Y-16225014D01*
X3725614Y-16239300D01*
X3739900Y-16253586D01*
X3754186Y-16282157D01*
X3768471Y-16339300D01*
X3768471Y-16410729D01*
X3754186Y-16467871D01*
X3739900Y-16496443D01*
X3725614Y-16510729D01*
X3697043Y-16525014D01*
X3668471Y-16525014D01*
X3639900Y-16510729D01*
X3625614Y-16496443D01*
X3611328Y-16467871D01*
X3597043Y-16410729D01*
X3597043Y-16339300D01*
X3611328Y-16282157D01*
X3625614Y-16253586D01*
X3639900Y-16239300D01*
X3668471Y-16225014D01*
X3897043Y-16496443D02*
X3911328Y-16510729D01*
X3897043Y-16525014D01*
X3882757Y-16510729D01*
X3897043Y-16496443D01*
X3897043Y-16525014D01*
X4082757Y-16353586D02*
X4054186Y-16339300D01*
X4039900Y-16325014D01*
X4025614Y-16296443D01*
X4025614Y-16282157D01*
X4039900Y-16253586D01*
X4054186Y-16239300D01*
X4082757Y-16225014D01*
X4139900Y-16225014D01*
X4168471Y-16239300D01*
X4182757Y-16253586D01*
X4197043Y-16282157D01*
X4197043Y-16296443D01*
X4182757Y-16325014D01*
X4168471Y-16339300D01*
X4139900Y-16353586D01*
X4082757Y-16353586D01*
X4054186Y-16367871D01*
X4039900Y-16382157D01*
X4025614Y-16410729D01*
X4025614Y-16467871D01*
X4039900Y-16496443D01*
X4054186Y-16510729D01*
X4082757Y-16525014D01*
X4139900Y-16525014D01*
X4168471Y-16510729D01*
X4182757Y-16496443D01*
X4197043Y-16467871D01*
X4197043Y-16410729D01*
X4182757Y-16382157D01*
X4168471Y-16367871D01*
X4139900Y-16353586D01*
X4382757Y-16225014D02*
X4411328Y-16225014D01*
X4439900Y-16239300D01*
X4454186Y-16253586D01*
X4468471Y-16282157D01*
X4482757Y-16339300D01*
X4482757Y-16410729D01*
X4468471Y-16467871D01*
X4454186Y-16496443D01*
X4439900Y-16510729D01*
X4411328Y-16525014D01*
X4382757Y-16525014D01*
X4354186Y-16510729D01*
X4339900Y-16496443D01*
X4325614Y-16467871D01*
X4311328Y-16410729D01*
X4311328Y-16339300D01*
X4325614Y-16282157D01*
X4339900Y-16253586D01*
X4354186Y-16239300D01*
X4382757Y-16225014D01*
X4611328Y-16525014D02*
X4611328Y-16325014D01*
X4611328Y-16353586D02*
X4625614Y-16339300D01*
X4654186Y-16325014D01*
X4697043Y-16325014D01*
X4725614Y-16339300D01*
X4739900Y-16367871D01*
X4739900Y-16525014D01*
X4739900Y-16367871D02*
X4754186Y-16339300D01*
X4782757Y-16325014D01*
X4825614Y-16325014D01*
X4854186Y-16339300D01*
X4868471Y-16367871D01*
X4868471Y-16525014D01*
X5011328Y-16525014D02*
X5011328Y-16325014D01*
X5011328Y-16353586D02*
X5025614Y-16339300D01*
X5054186Y-16325014D01*
X5097043Y-16325014D01*
X5125614Y-16339300D01*
X5139900Y-16367871D01*
X5139900Y-16525014D01*
X5139900Y-16367871D02*
X5154186Y-16339300D01*
X5182757Y-16325014D01*
X5225614Y-16325014D01*
X5254186Y-16339300D01*
X5268471Y-16367871D01*
X5268471Y-16525014D01*
X5854186Y-16210729D02*
X5597043Y-16596443D01*
X6239900Y-16225014D02*
X6268471Y-16225014D01*
X6297043Y-16239300D01*
X6311328Y-16253586D01*
X6325614Y-16282157D01*
X6339900Y-16339300D01*
X6339900Y-16410729D01*
X6325614Y-16467871D01*
X6311328Y-16496443D01*
X6297043Y-16510729D01*
X6268471Y-16525014D01*
X6239900Y-16525014D01*
X6211328Y-16510729D01*
X6197043Y-16496443D01*
X6182757Y-16467871D01*
X6168471Y-16410729D01*
X6168471Y-16339300D01*
X6182757Y-16282157D01*
X6197043Y-16253586D01*
X6211328Y-16239300D01*
X6239900Y-16225014D01*
X6468471Y-16496443D02*
X6482757Y-16510729D01*
X6468471Y-16525014D01*
X6454186Y-16510729D01*
X6468471Y-16496443D01*
X6468471Y-16525014D01*
X6668471Y-16225014D02*
X6697043Y-16225014D01*
X6725614Y-16239300D01*
X6739900Y-16253586D01*
X6754186Y-16282157D01*
X6768471Y-16339300D01*
X6768471Y-16410729D01*
X6754186Y-16467871D01*
X6739900Y-16496443D01*
X6725614Y-16510729D01*
X6697043Y-16525014D01*
X6668471Y-16525014D01*
X6639900Y-16510729D01*
X6625614Y-16496443D01*
X6611328Y-16467871D01*
X6597043Y-16410729D01*
X6597043Y-16339300D01*
X6611328Y-16282157D01*
X6625614Y-16253586D01*
X6639900Y-16239300D01*
X6668471Y-16225014D01*
X6868471Y-16225014D02*
X7054186Y-16225014D01*
X6954186Y-16339300D01*
X6997043Y-16339300D01*
X7025614Y-16353586D01*
X7039900Y-16367871D01*
X7054186Y-16396443D01*
X7054186Y-16467871D01*
X7039900Y-16496443D01*
X7025614Y-16510729D01*
X6997043Y-16525014D01*
X6911328Y-16525014D01*
X6882757Y-16510729D01*
X6868471Y-16496443D01*
X7339900Y-16525014D02*
X7168471Y-16525014D01*
X7254186Y-16525014D02*
X7254186Y-16225014D01*
X7225614Y-16267871D01*
X7197043Y-16296443D01*
X7168471Y-16310729D01*
X7454186Y-16225014D02*
X7454186Y-16282157D01*
X7568471Y-16225014D02*
X7568471Y-16282157D01*
X8011328Y-16639300D02*
X7997043Y-16625014D01*
X7968471Y-16582157D01*
X7954186Y-16553586D01*
X7939900Y-16510729D01*
X7925614Y-16439300D01*
X7925614Y-16382157D01*
X7939900Y-16310729D01*
X7954186Y-16267871D01*
X7968471Y-16239300D01*
X7997043Y-16196443D01*
X8011328Y-16182157D01*
X8111328Y-16253586D02*
X8125614Y-16239300D01*
X8154186Y-16225014D01*
X8225614Y-16225014D01*
X8254186Y-16239300D01*
X8268471Y-16253586D01*
X8282757Y-16282157D01*
X8282757Y-16310729D01*
X8268471Y-16353586D01*
X8097043Y-16525014D01*
X8282757Y-16525014D01*
X8639900Y-16525014D02*
X8639900Y-16225014D01*
X8768471Y-16525014D02*
X8768471Y-16367871D01*
X8754186Y-16339300D01*
X8725614Y-16325014D01*
X8682757Y-16325014D01*
X8654186Y-16339300D01*
X8639900Y-16353586D01*
X8954186Y-16525014D02*
X8925614Y-16510729D01*
X8911328Y-16496443D01*
X8897043Y-16467871D01*
X8897043Y-16382157D01*
X8911328Y-16353586D01*
X8925614Y-16339300D01*
X8954186Y-16325014D01*
X8997043Y-16325014D01*
X9025614Y-16339300D01*
X9039900Y-16353586D01*
X9054186Y-16382157D01*
X9054186Y-16467871D01*
X9039900Y-16496443D01*
X9025614Y-16510729D01*
X8997043Y-16525014D01*
X8954186Y-16525014D01*
X9225614Y-16525014D02*
X9197043Y-16510729D01*
X9182757Y-16482157D01*
X9182757Y-16225014D01*
X9454186Y-16510729D02*
X9425614Y-16525014D01*
X9368471Y-16525014D01*
X9339900Y-16510729D01*
X9325614Y-16482157D01*
X9325614Y-16367871D01*
X9339900Y-16339300D01*
X9368471Y-16325014D01*
X9425614Y-16325014D01*
X9454186Y-16339300D01*
X9468471Y-16367871D01*
X9468471Y-16396443D01*
X9325614Y-16425014D01*
X9582757Y-16510729D02*
X9611328Y-16525014D01*
X9668471Y-16525014D01*
X9697043Y-16510729D01*
X9711328Y-16482157D01*
X9711328Y-16467871D01*
X9697043Y-16439300D01*
X9668471Y-16425014D01*
X9625614Y-16425014D01*
X9597043Y-16410729D01*
X9582757Y-16382157D01*
X9582757Y-16367871D01*
X9597043Y-16339300D01*
X9625614Y-16325014D01*
X9668471Y-16325014D01*
X9697043Y-16339300D01*
X9811328Y-16639300D02*
X9825614Y-16625014D01*
X9854186Y-16582157D01*
X9868471Y-16553586D01*
X9882757Y-16510729D01*
X9897043Y-16439300D01*
X9897043Y-16382157D01*
X9882757Y-16310729D01*
X9868471Y-16267871D01*
X9854186Y-16239300D01*
X9825614Y-16196443D01*
X9811328Y-16182157D01*
X3310256Y-16820656D02*
X3310256Y-16749944D01*
X3239544Y-16749944D01*
X3239544Y-16820656D01*
X3310256Y-16820656D01*
X3768471Y-16921014D02*
X3597043Y-16921014D01*
X3682757Y-16921014D02*
X3682757Y-16621014D01*
X3654186Y-16663871D01*
X3625614Y-16692443D01*
X3597043Y-16706729D01*
X3897043Y-16892443D02*
X3911328Y-16906729D01*
X3897043Y-16921014D01*
X3882757Y-16906729D01*
X3897043Y-16892443D01*
X3897043Y-16921014D01*
X4097043Y-16621014D02*
X4125614Y-16621014D01*
X4154186Y-16635300D01*
X4168471Y-16649586D01*
X4182757Y-16678157D01*
X4197043Y-16735300D01*
X4197043Y-16806729D01*
X4182757Y-16863872D01*
X4168471Y-16892443D01*
X4154186Y-16906729D01*
X4125614Y-16921014D01*
X4097043Y-16921014D01*
X4068471Y-16906729D01*
X4054186Y-16892443D01*
X4039900Y-16863872D01*
X4025614Y-16806729D01*
X4025614Y-16735300D01*
X4039900Y-16678157D01*
X4054186Y-16649586D01*
X4068471Y-16635300D01*
X4097043Y-16621014D01*
X4382757Y-16621014D02*
X4411328Y-16621014D01*
X4439900Y-16635300D01*
X4454186Y-16649586D01*
X4468471Y-16678157D01*
X4482757Y-16735300D01*
X4482757Y-16806729D01*
X4468471Y-16863872D01*
X4454186Y-16892443D01*
X4439900Y-16906729D01*
X4411328Y-16921014D01*
X4382757Y-16921014D01*
X4354186Y-16906729D01*
X4339900Y-16892443D01*
X4325614Y-16863872D01*
X4311328Y-16806729D01*
X4311328Y-16735300D01*
X4325614Y-16678157D01*
X4339900Y-16649586D01*
X4354186Y-16635300D01*
X4382757Y-16621014D01*
X4611328Y-16921014D02*
X4611328Y-16721014D01*
X4611328Y-16749586D02*
X4625614Y-16735300D01*
X4654186Y-16721014D01*
X4697043Y-16721014D01*
X4725614Y-16735300D01*
X4739900Y-16763871D01*
X4739900Y-16921014D01*
X4739900Y-16763871D02*
X4754186Y-16735300D01*
X4782757Y-16721014D01*
X4825614Y-16721014D01*
X4854186Y-16735300D01*
X4868471Y-16763871D01*
X4868471Y-16921014D01*
X5011328Y-16921014D02*
X5011328Y-16721014D01*
X5011328Y-16749586D02*
X5025614Y-16735300D01*
X5054186Y-16721014D01*
X5097043Y-16721014D01*
X5125614Y-16735300D01*
X5139900Y-16763871D01*
X5139900Y-16921014D01*
X5139900Y-16763871D02*
X5154186Y-16735300D01*
X5182757Y-16721014D01*
X5225614Y-16721014D01*
X5254186Y-16735300D01*
X5268471Y-16763871D01*
X5268471Y-16921014D01*
X5854186Y-16606729D02*
X5597043Y-16992443D01*
X6239900Y-16621014D02*
X6268471Y-16621014D01*
X6297043Y-16635300D01*
X6311328Y-16649586D01*
X6325614Y-16678157D01*
X6339900Y-16735300D01*
X6339900Y-16806729D01*
X6325614Y-16863872D01*
X6311328Y-16892443D01*
X6297043Y-16906729D01*
X6268471Y-16921014D01*
X6239900Y-16921014D01*
X6211328Y-16906729D01*
X6197043Y-16892443D01*
X6182757Y-16863872D01*
X6168471Y-16806729D01*
X6168471Y-16735300D01*
X6182757Y-16678157D01*
X6197043Y-16649586D01*
X6211328Y-16635300D01*
X6239900Y-16621014D01*
X6468471Y-16892443D02*
X6482757Y-16906729D01*
X6468471Y-16921014D01*
X6454186Y-16906729D01*
X6468471Y-16892443D01*
X6468471Y-16921014D01*
X6668471Y-16621014D02*
X6697043Y-16621014D01*
X6725614Y-16635300D01*
X6739900Y-16649586D01*
X6754186Y-16678157D01*
X6768471Y-16735300D01*
X6768471Y-16806729D01*
X6754186Y-16863872D01*
X6739900Y-16892443D01*
X6725614Y-16906729D01*
X6697043Y-16921014D01*
X6668471Y-16921014D01*
X6639900Y-16906729D01*
X6625614Y-16892443D01*
X6611328Y-16863872D01*
X6597043Y-16806729D01*
X6597043Y-16735300D01*
X6611328Y-16678157D01*
X6625614Y-16649586D01*
X6639900Y-16635300D01*
X6668471Y-16621014D01*
X6868471Y-16621014D02*
X7054186Y-16621014D01*
X6954186Y-16735300D01*
X6997043Y-16735300D01*
X7025614Y-16749586D01*
X7039900Y-16763871D01*
X7054186Y-16792443D01*
X7054186Y-16863872D01*
X7039900Y-16892443D01*
X7025614Y-16906729D01*
X6997043Y-16921014D01*
X6911328Y-16921014D01*
X6882757Y-16906729D01*
X6868471Y-16892443D01*
X7197043Y-16921014D02*
X7254186Y-16921014D01*
X7282757Y-16906729D01*
X7297043Y-16892443D01*
X7325614Y-16849586D01*
X7339900Y-16792443D01*
X7339900Y-16678157D01*
X7325614Y-16649586D01*
X7311328Y-16635300D01*
X7282757Y-16621014D01*
X7225614Y-16621014D01*
X7197043Y-16635300D01*
X7182757Y-16649586D01*
X7168471Y-16678157D01*
X7168471Y-16749586D01*
X7182757Y-16778157D01*
X7197043Y-16792443D01*
X7225614Y-16806729D01*
X7282757Y-16806729D01*
X7311328Y-16792443D01*
X7325614Y-16778157D01*
X7339900Y-16749586D01*
X7454186Y-16621014D02*
X7454186Y-16678157D01*
X7568471Y-16621014D02*
X7568471Y-16678157D01*
X8011328Y-17035300D02*
X7997043Y-17021014D01*
X7968471Y-16978157D01*
X7954186Y-16949586D01*
X7939900Y-16906729D01*
X7925614Y-16835300D01*
X7925614Y-16778157D01*
X7939900Y-16706729D01*
X7954186Y-16663871D01*
X7968471Y-16635300D01*
X7997043Y-16592443D01*
X8011328Y-16578157D01*
X8111328Y-16649586D02*
X8125614Y-16635300D01*
X8154186Y-16621014D01*
X8225614Y-16621014D01*
X8254186Y-16635300D01*
X8268471Y-16649586D01*
X8282757Y-16678157D01*
X8282757Y-16706729D01*
X8268471Y-16749586D01*
X8097043Y-16921014D01*
X8282757Y-16921014D01*
X8568471Y-16921014D02*
X8397043Y-16921014D01*
X8482757Y-16921014D02*
X8482757Y-16621014D01*
X8454186Y-16663871D01*
X8425614Y-16692443D01*
X8397043Y-16706729D01*
X8854186Y-16921014D02*
X8682757Y-16921014D01*
X8768471Y-16921014D02*
X8768471Y-16621014D01*
X8739900Y-16663871D01*
X8711328Y-16692443D01*
X8682757Y-16706729D01*
X9211328Y-16921014D02*
X9211328Y-16621014D01*
X9339900Y-16921014D02*
X9339900Y-16763871D01*
X9325614Y-16735300D01*
X9297043Y-16721014D01*
X9254186Y-16721014D01*
X9225614Y-16735300D01*
X9211328Y-16749586D01*
X9525614Y-16921014D02*
X9497043Y-16906729D01*
X9482757Y-16892443D01*
X9468471Y-16863872D01*
X9468471Y-16778157D01*
X9482757Y-16749586D01*
X9497043Y-16735300D01*
X9525614Y-16721014D01*
X9568471Y-16721014D01*
X9597043Y-16735300D01*
X9611328Y-16749586D01*
X9625614Y-16778157D01*
X9625614Y-16863872D01*
X9611328Y-16892443D01*
X9597043Y-16906729D01*
X9568471Y-16921014D01*
X9525614Y-16921014D01*
X9797043Y-16921014D02*
X9768471Y-16906729D01*
X9754186Y-16878157D01*
X9754186Y-16621014D01*
X10025614Y-16906729D02*
X9997043Y-16921014D01*
X9939900Y-16921014D01*
X9911328Y-16906729D01*
X9897043Y-16878157D01*
X9897043Y-16763871D01*
X9911328Y-16735300D01*
X9939900Y-16721014D01*
X9997043Y-16721014D01*
X10025614Y-16735300D01*
X10039900Y-16763871D01*
X10039900Y-16792443D01*
X9897043Y-16821014D01*
X10154186Y-16906729D02*
X10182757Y-16921014D01*
X10239900Y-16921014D01*
X10268471Y-16906729D01*
X10282757Y-16878157D01*
X10282757Y-16863872D01*
X10268471Y-16835300D01*
X10239900Y-16821014D01*
X10197043Y-16821014D01*
X10168471Y-16806729D01*
X10154186Y-16778157D01*
X10154186Y-16763871D01*
X10168471Y-16735300D01*
X10197043Y-16721014D01*
X10239900Y-16721014D01*
X10268471Y-16735300D01*
X10639900Y-16806729D02*
X10868471Y-16806729D01*
X10754186Y-16921014D02*
X10754186Y-16692443D01*
X11211328Y-16621014D02*
X11397043Y-16621014D01*
X11297043Y-16735300D01*
X11339900Y-16735300D01*
X11368471Y-16749586D01*
X11382757Y-16763871D01*
X11397043Y-16792443D01*
X11397043Y-16863872D01*
X11382757Y-16892443D01*
X11368471Y-16906729D01*
X11339900Y-16921014D01*
X11254186Y-16921014D01*
X11225614Y-16906729D01*
X11211328Y-16892443D01*
X11739900Y-16906729D02*
X11768471Y-16921014D01*
X11825614Y-16921014D01*
X11854186Y-16906729D01*
X11868471Y-16878157D01*
X11868471Y-16863872D01*
X11854186Y-16835300D01*
X11825614Y-16821014D01*
X11782757Y-16821014D01*
X11754186Y-16806729D01*
X11739900Y-16778157D01*
X11739900Y-16763871D01*
X11754186Y-16735300D01*
X11782757Y-16721014D01*
X11825614Y-16721014D01*
X11854186Y-16735300D01*
X12039900Y-16921014D02*
X12011328Y-16906729D01*
X11997043Y-16878157D01*
X11997043Y-16621014D01*
X12197043Y-16921014D02*
X12168471Y-16906729D01*
X12154186Y-16892443D01*
X12139900Y-16863872D01*
X12139900Y-16778157D01*
X12154186Y-16749586D01*
X12168471Y-16735300D01*
X12197043Y-16721014D01*
X12239900Y-16721014D01*
X12268471Y-16735300D01*
X12282757Y-16749586D01*
X12297043Y-16778157D01*
X12297043Y-16863872D01*
X12282757Y-16892443D01*
X12268471Y-16906729D01*
X12239900Y-16921014D01*
X12197043Y-16921014D01*
X12382757Y-16721014D02*
X12497043Y-16721014D01*
X12425614Y-16621014D02*
X12425614Y-16878157D01*
X12439900Y-16906729D01*
X12468471Y-16921014D01*
X12497043Y-16921014D01*
X12582757Y-16906729D02*
X12611328Y-16921014D01*
X12668471Y-16921014D01*
X12697043Y-16906729D01*
X12711328Y-16878157D01*
X12711328Y-16863872D01*
X12697043Y-16835300D01*
X12668471Y-16821014D01*
X12625614Y-16821014D01*
X12597043Y-16806729D01*
X12582757Y-16778157D01*
X12582757Y-16763871D01*
X12597043Y-16735300D01*
X12625614Y-16721014D01*
X12668471Y-16721014D01*
X12697043Y-16735300D01*
X12811328Y-17035300D02*
X12825614Y-17021014D01*
X12854186Y-16978157D01*
X12868471Y-16949586D01*
X12882757Y-16906729D01*
X12897043Y-16835300D01*
X12897043Y-16778157D01*
X12882757Y-16706729D01*
X12868471Y-16663871D01*
X12854186Y-16635300D01*
X12825614Y-16592443D01*
X12811328Y-16578157D01*
M02*
