%TF.GenerationSoftware,KiCad,Pcbnew,(5.1.7)-1*%
%TF.CreationDate,2020-11-17T12:59:15+01:00*%
%TF.ProjectId,matd_8x8,6d617464-5f38-4783-982e-6b696361645f,rev?*%
%TF.SameCoordinates,Original*%
%TF.FileFunction,Soldermask,Bot*%
%TF.FilePolarity,Negative*%
%FSLAX46Y46*%
G04 Gerber Fmt 4.6, Leading zero omitted, Abs format (unit mm)*
G04 Created by KiCad (PCBNEW (5.1.7)-1) date 2020-11-17 12:59:15*
%MOMM*%
%LPD*%
G01*
G04 APERTURE LIST*
%ADD10R,1.248000X1.248000*%
%ADD11C,1.248000*%
%ADD12C,1.700000*%
%ADD13C,1.600000*%
%ADD14R,1.600000X1.600000*%
%ADD15O,1.700000X1.700000*%
%ADD16R,1.700000X1.700000*%
%ADD17C,2.133600*%
%ADD18R,3.500000X3.500000*%
%ADD19C,3.000000*%
G04 APERTURE END LIST*
D10*
%TO.C,R2*%
X155702000Y-129076000D03*
D11*
X155702000Y-131616000D03*
X155702000Y-134156000D03*
%TD*%
D12*
%TO.C,J4*%
X164338000Y-135426000D03*
X164338000Y-142426000D03*
%TD*%
D13*
%TO.C,C70*%
X137851000Y-133013000D03*
D14*
X141351000Y-133013000D03*
%TD*%
D15*
%TO.C,J5*%
X132207000Y-135045000D03*
X132207000Y-132505000D03*
D16*
X132207000Y-129965000D03*
%TD*%
D15*
%TO.C,J2*%
X193548000Y-144018000D03*
X191008000Y-144018000D03*
X193548000Y-141478000D03*
X191008000Y-141478000D03*
X193548000Y-138938000D03*
X191008000Y-138938000D03*
X193548000Y-136398000D03*
X191008000Y-136398000D03*
X193548000Y-133858000D03*
X191008000Y-133858000D03*
X193548000Y-131318000D03*
X191008000Y-131318000D03*
X193548000Y-128778000D03*
X191008000Y-128778000D03*
X193548000Y-126238000D03*
X191008000Y-126238000D03*
X193548000Y-123698000D03*
X191008000Y-123698000D03*
X193548000Y-121158000D03*
X191008000Y-121158000D03*
X193548000Y-118618000D03*
X191008000Y-118618000D03*
X193548000Y-116078000D03*
X191008000Y-116078000D03*
X193548000Y-113538000D03*
X191008000Y-113538000D03*
X193548000Y-110998000D03*
X191008000Y-110998000D03*
X193548000Y-108458000D03*
X191008000Y-108458000D03*
X193548000Y-105918000D03*
X191008000Y-105918000D03*
X193548000Y-103378000D03*
X191008000Y-103378000D03*
X193548000Y-100838000D03*
X191008000Y-100838000D03*
X193548000Y-98298000D03*
X191008000Y-98298000D03*
X193548000Y-95758000D03*
D16*
X191008000Y-95758000D03*
%TD*%
D15*
%TO.C,J1*%
X193548000Y-91948000D03*
X191008000Y-91948000D03*
X193548000Y-89408000D03*
X191008000Y-89408000D03*
X193548000Y-86868000D03*
X191008000Y-86868000D03*
X193548000Y-84328000D03*
X191008000Y-84328000D03*
X193548000Y-81788000D03*
X191008000Y-81788000D03*
X193548000Y-79248000D03*
X191008000Y-79248000D03*
X193548000Y-76708000D03*
X191008000Y-76708000D03*
X193548000Y-74168000D03*
X191008000Y-74168000D03*
X193548000Y-71628000D03*
X191008000Y-71628000D03*
X193548000Y-69088000D03*
X191008000Y-69088000D03*
X193548000Y-66548000D03*
X191008000Y-66548000D03*
X193548000Y-64008000D03*
X191008000Y-64008000D03*
X193548000Y-61468000D03*
X191008000Y-61468000D03*
X193548000Y-58928000D03*
X191008000Y-58928000D03*
X193548000Y-56388000D03*
X191008000Y-56388000D03*
X193548000Y-53848000D03*
X191008000Y-53848000D03*
X193548000Y-51308000D03*
X191008000Y-51308000D03*
X193548000Y-48768000D03*
X191008000Y-48768000D03*
X193548000Y-46228000D03*
X191008000Y-46228000D03*
X193548000Y-43688000D03*
D16*
X191008000Y-43688000D03*
%TD*%
D17*
%TO.C,SG64*%
X113450999Y-131318000D03*
X118450999Y-131318000D03*
%TD*%
%TO.C,SG63*%
X103418000Y-131318000D03*
X108418000Y-131318000D03*
%TD*%
%TO.C,SG62*%
X93385000Y-131318000D03*
X98385000Y-131318000D03*
%TD*%
%TO.C,SG61*%
X83351999Y-131318000D03*
X88351999Y-131318000D03*
%TD*%
%TO.C,SG60*%
X73319000Y-131318000D03*
X78319000Y-131318000D03*
%TD*%
%TO.C,SG59*%
X63285999Y-131318000D03*
X68285999Y-131318000D03*
%TD*%
%TO.C,SG58*%
X53252999Y-131318000D03*
X58252999Y-131318000D03*
%TD*%
%TO.C,SG57*%
X43220000Y-131318000D03*
X48220000Y-131318000D03*
%TD*%
%TO.C,SG56*%
X113450999Y-121285000D03*
X118450999Y-121285000D03*
%TD*%
%TO.C,SG55*%
X103418000Y-121285000D03*
X108418000Y-121285000D03*
%TD*%
%TO.C,SG54*%
X93385000Y-121285000D03*
X98385000Y-121285000D03*
%TD*%
%TO.C,SG53*%
X83351999Y-121285000D03*
X88351999Y-121285000D03*
%TD*%
%TO.C,SG52*%
X73319000Y-121285000D03*
X78319000Y-121285000D03*
%TD*%
%TO.C,SG51*%
X63285999Y-121285000D03*
X68285999Y-121285000D03*
%TD*%
%TO.C,SG50*%
X53252999Y-121285000D03*
X58252999Y-121285000D03*
%TD*%
%TO.C,SG49*%
X43220000Y-121285000D03*
X48220000Y-121285000D03*
%TD*%
%TO.C,SG48*%
X113450999Y-111251999D03*
X118450999Y-111251999D03*
%TD*%
%TO.C,SG47*%
X103418000Y-111251999D03*
X108418000Y-111251999D03*
%TD*%
%TO.C,SG46*%
X93385000Y-111251999D03*
X98385000Y-111251999D03*
%TD*%
%TO.C,SG45*%
X83351999Y-111251999D03*
X88351999Y-111251999D03*
%TD*%
%TO.C,SG44*%
X73319000Y-111251999D03*
X78319000Y-111251999D03*
%TD*%
%TO.C,SG43*%
X63285999Y-111251999D03*
X68285999Y-111251999D03*
%TD*%
%TO.C,SG42*%
X53252999Y-111251999D03*
X58252999Y-111251999D03*
%TD*%
%TO.C,SG41*%
X43220000Y-111251999D03*
X48220000Y-111251999D03*
%TD*%
%TO.C,SG40*%
X113450999Y-101219000D03*
X118450999Y-101219000D03*
%TD*%
%TO.C,SG39*%
X103418000Y-101219000D03*
X108418000Y-101219000D03*
%TD*%
%TO.C,SG38*%
X93385000Y-101219000D03*
X98385000Y-101219000D03*
%TD*%
%TO.C,SG37*%
X83351999Y-101219000D03*
X88351999Y-101219000D03*
%TD*%
%TO.C,SG36*%
X73319000Y-101219000D03*
X78319000Y-101219000D03*
%TD*%
%TO.C,SG35*%
X63285999Y-101219000D03*
X68285999Y-101219000D03*
%TD*%
%TO.C,SG34*%
X53252999Y-101219000D03*
X58252999Y-101219000D03*
%TD*%
%TO.C,SG33*%
X43220000Y-101219000D03*
X48220000Y-101219000D03*
%TD*%
%TO.C,SG32*%
X113450999Y-91186000D03*
X118450999Y-91186000D03*
%TD*%
%TO.C,SG31*%
X103418000Y-91186000D03*
X108418000Y-91186000D03*
%TD*%
%TO.C,SG30*%
X93385000Y-91186000D03*
X98385000Y-91186000D03*
%TD*%
%TO.C,SG29*%
X83351999Y-91186000D03*
X88351999Y-91186000D03*
%TD*%
%TO.C,SG28*%
X73319000Y-91186000D03*
X78319000Y-91186000D03*
%TD*%
%TO.C,SG27*%
X63285999Y-91186000D03*
X68285999Y-91186000D03*
%TD*%
%TO.C,SG26*%
X53252999Y-91186000D03*
X58252999Y-91186000D03*
%TD*%
%TO.C,SG25*%
X43220000Y-91186000D03*
X48220000Y-91186000D03*
%TD*%
%TO.C,SG24*%
X113450999Y-81152999D03*
X118450999Y-81152999D03*
%TD*%
%TO.C,SG23*%
X103418000Y-81152999D03*
X108418000Y-81152999D03*
%TD*%
%TO.C,SG22*%
X93385000Y-81152999D03*
X98385000Y-81152999D03*
%TD*%
%TO.C,SG21*%
X83351999Y-81152999D03*
X88351999Y-81152999D03*
%TD*%
%TO.C,SG20*%
X73319000Y-81152999D03*
X78319000Y-81152999D03*
%TD*%
%TO.C,SG19*%
X63285999Y-81152999D03*
X68285999Y-81152999D03*
%TD*%
%TO.C,SG18*%
X53252999Y-81152999D03*
X58252999Y-81152999D03*
%TD*%
%TO.C,SG17*%
X43220000Y-81152999D03*
X48220000Y-81152999D03*
%TD*%
%TO.C,SG16*%
X113450999Y-71120000D03*
X118450999Y-71120000D03*
%TD*%
%TO.C,SG15*%
X103418000Y-71120000D03*
X108418000Y-71120000D03*
%TD*%
%TO.C,SG14*%
X93385000Y-71120000D03*
X98385000Y-71120000D03*
%TD*%
%TO.C,SG13*%
X83351999Y-71120000D03*
X88351999Y-71120000D03*
%TD*%
%TO.C,SG12*%
X73319000Y-71120000D03*
X78319000Y-71120000D03*
%TD*%
%TO.C,SG11*%
X63285999Y-71120000D03*
X68285999Y-71120000D03*
%TD*%
%TO.C,SG10*%
X53252999Y-71120000D03*
X58252999Y-71120000D03*
%TD*%
%TO.C,SG9*%
X43220000Y-71120000D03*
X48220000Y-71120000D03*
%TD*%
%TO.C,SG8*%
X113450999Y-61087000D03*
X118450999Y-61087000D03*
%TD*%
%TO.C,SG7*%
X103418000Y-61087000D03*
X108418000Y-61087000D03*
%TD*%
%TO.C,SG6*%
X93385000Y-61087000D03*
X98385000Y-61087000D03*
%TD*%
%TO.C,SG5*%
X83351999Y-61087000D03*
X88351999Y-61087000D03*
%TD*%
%TO.C,SG4*%
X73319000Y-61087000D03*
X78319000Y-61087000D03*
%TD*%
%TO.C,SG3*%
X63285999Y-61087000D03*
X68285999Y-61087000D03*
%TD*%
%TO.C,SG2*%
X53252999Y-61087000D03*
X58252999Y-61087000D03*
%TD*%
%TO.C,SG1*%
X43220000Y-61087000D03*
X48220000Y-61087000D03*
%TD*%
%TO.C,J3*%
G36*
G01*
X186931000Y-137382000D02*
X185181000Y-137382000D01*
G75*
G02*
X184306000Y-136507000I0J875000D01*
G01*
X184306000Y-134757000D01*
G75*
G02*
X185181000Y-133882000I875000J0D01*
G01*
X186931000Y-133882000D01*
G75*
G02*
X187806000Y-134757000I0J-875000D01*
G01*
X187806000Y-136507000D01*
G75*
G02*
X186931000Y-137382000I-875000J0D01*
G01*
G37*
G36*
G01*
X182356000Y-140132000D02*
X180356000Y-140132000D01*
G75*
G02*
X179606000Y-139382000I0J750000D01*
G01*
X179606000Y-137882000D01*
G75*
G02*
X180356000Y-137132000I750000J0D01*
G01*
X182356000Y-137132000D01*
G75*
G02*
X183106000Y-137882000I0J-750000D01*
G01*
X183106000Y-139382000D01*
G75*
G02*
X182356000Y-140132000I-750000J0D01*
G01*
G37*
D18*
X181356000Y-132632000D03*
%TD*%
D19*
%TO.C,*%
X37592000Y-49574000D03*
%TD*%
%TO.C,*%
X37592000Y-141776000D03*
%TD*%
%TO.C,*%
X124968000Y-49574000D03*
%TD*%
%TO.C,*%
X124968000Y-141776000D03*
%TD*%
%TO.C,*%
X173228000Y-141776000D03*
%TD*%
%TO.C,*%
X185166000Y-49574000D03*
%TD*%
M02*
